%TF.GenerationSoftware,KiCad,Pcbnew,9.0.0*%
%TF.CreationDate,2025-05-02T19:21:32+02:00*%
%TF.ProjectId,PIC_GATE_LOCK_SYSTEM,5049435f-4741-4544-955f-4c4f434b5f53,rev?*%
%TF.SameCoordinates,Original*%
%TF.FileFunction,Copper,L3,Inr*%
%TF.FilePolarity,Positive*%
%FSLAX46Y46*%
G04 Gerber Fmt 4.6, Leading zero omitted, Abs format (unit mm)*
G04 Created by KiCad (PCBNEW 9.0.0) date 2025-05-02 19:21:32*
%MOMM*%
%LPD*%
G01*
G04 APERTURE LIST*
%TA.AperFunction,ComponentPad*%
%ADD10R,1.700000X1.700000*%
%TD*%
%TA.AperFunction,ComponentPad*%
%ADD11O,1.700000X1.700000*%
%TD*%
%TA.AperFunction,ComponentPad*%
%ADD12C,1.950000*%
%TD*%
%TA.AperFunction,ComponentPad*%
%ADD13R,1.575000X1.575000*%
%TD*%
%TA.AperFunction,ComponentPad*%
%ADD14C,1.575000*%
%TD*%
%TA.AperFunction,ComponentPad*%
%ADD15C,4.066000*%
%TD*%
%TA.AperFunction,ComponentPad*%
%ADD16C,0.900000*%
%TD*%
%TA.AperFunction,ComponentPad*%
%ADD17C,8.600000*%
%TD*%
%TA.AperFunction,HeatsinkPad*%
%ADD18O,1.800000X1.150000*%
%TD*%
%TA.AperFunction,HeatsinkPad*%
%ADD19O,2.000000X1.450000*%
%TD*%
%TA.AperFunction,ComponentPad*%
%ADD20C,1.007000*%
%TD*%
%TA.AperFunction,ViaPad*%
%ADD21C,0.650000*%
%TD*%
%TA.AperFunction,ViaPad*%
%ADD22C,0.700000*%
%TD*%
G04 APERTURE END LIST*
D10*
%TO.N,PIC_VDD*%
%TO.C,J2*%
X140650000Y-76800000D03*
D11*
%TO.N,MCLR*%
X138110000Y-76800000D03*
%TO.N,GND*%
X135570000Y-76800000D03*
%TO.N,ICSP_CLK*%
X133030000Y-76800000D03*
%TO.N,ICSP_DAT*%
X130490000Y-76800000D03*
%TD*%
D12*
%TO.N,Net-(M2-Pin_1)*%
%TO.C,M2*%
X121850000Y-129250000D03*
%TO.N,Net-(M2-Pin_2)*%
X126850000Y-129250000D03*
%TD*%
D13*
%TO.N,unconnected-(J3-Pad1)*%
%TO.C,J3*%
X159680000Y-96045000D03*
D14*
%TO.N,RXD*%
X159680000Y-98815000D03*
%TO.N,TXD*%
X159680000Y-101585000D03*
%TO.N,unconnected-(J3-Pad4)*%
X159680000Y-104355000D03*
%TO.N,GND*%
X159680000Y-107125000D03*
%TO.N,unconnected-(J3-Pad6)*%
X162520000Y-97430000D03*
%TO.N,unconnected-(J3-Pad7)*%
X162520000Y-100200000D03*
%TO.N,unconnected-(J3-Pad8)*%
X162520000Y-102970000D03*
%TO.N,unconnected-(J3-Pad9)*%
X162520000Y-105740000D03*
D15*
%TO.N,N/C*%
X161100000Y-114080000D03*
X161100000Y-89090000D03*
%TD*%
D12*
%TO.N,Net-(M1-Pin_1)*%
%TO.C,M1*%
X142850000Y-129250000D03*
%TO.N,Net-(M1-Pin_2)*%
X147850000Y-129250000D03*
%TD*%
D16*
%TO.N,GND*%
%TO.C,H2*%
X101115419Y-75010419D03*
X102060000Y-72730000D03*
X102060000Y-77290838D03*
X104340419Y-71785419D03*
D17*
X104340419Y-75010419D03*
D16*
X104340419Y-78235419D03*
X106620838Y-72730000D03*
X106620838Y-77290838D03*
X107565419Y-75010419D03*
%TD*%
D12*
%TO.N,+12V*%
%TO.C,12V1*%
X103650000Y-112930000D03*
%TO.N,GND*%
X103650000Y-117930000D03*
%TD*%
D16*
%TO.N,GND*%
%TO.C,H4*%
X168055000Y-129985000D03*
X168999581Y-127704581D03*
X168999581Y-132265419D03*
X171280000Y-126760000D03*
D17*
X171280000Y-129985000D03*
D16*
X171280000Y-133210000D03*
X173560419Y-127704581D03*
X173560419Y-132265419D03*
X174505000Y-129985000D03*
%TD*%
%TO.N,GND*%
%TO.C,H1*%
X168055000Y-75010419D03*
X168999581Y-72730000D03*
X168999581Y-77290838D03*
X171280000Y-71785419D03*
D17*
X171280000Y-75010419D03*
D16*
X171280000Y-78235419D03*
X173560419Y-72730000D03*
X173560419Y-77290838D03*
X174505000Y-75010419D03*
%TD*%
D10*
%TO.N,Net-(J4-Pin_1)*%
%TO.C,J4*%
X103620000Y-91750000D03*
D11*
%TO.N,Net-(J4-Pin_2)*%
X103620000Y-89210000D03*
%TO.N,GND*%
X103620000Y-86670000D03*
%TO.N,+5V*%
X103620000Y-84130000D03*
%TD*%
D18*
%TO.N,unconnected-(J1-Shield-Pad6)*%
%TO.C,J1*%
X100505000Y-98165000D03*
D19*
%TO.N,unconnected-(J1-Shield-Pad6)_2*%
X104305000Y-98315000D03*
%TO.N,unconnected-(J1-Shield-Pad6)_1*%
X104305000Y-105765000D03*
D18*
%TO.N,unconnected-(J1-Shield-Pad6)_3*%
X100505000Y-105915000D03*
%TD*%
D16*
%TO.N,GND*%
%TO.C,H3*%
X101115419Y-129985000D03*
X102060000Y-127704581D03*
X102060000Y-132265419D03*
X104340419Y-126760000D03*
D17*
X104340419Y-129985000D03*
D16*
X104340419Y-133210000D03*
X106620838Y-127704581D03*
X106620838Y-132265419D03*
X107565419Y-129985000D03*
%TD*%
D20*
%TO.N,Net-(C11-Pad1)*%
%TO.C,Y1*%
X112835000Y-93867500D03*
%TO.N,PIC_OSC1*%
X112835000Y-88987500D03*
%TD*%
D21*
%TO.N,GND*%
X135550000Y-79420000D03*
X107885000Y-86685000D03*
D22*
X115110000Y-98970000D03*
D21*
%TO.N,+5V*%
X127260000Y-102860000D03*
%TO.N,GND*%
X144060000Y-90370000D03*
X116950000Y-92640000D03*
X120840000Y-109190000D03*
X131190000Y-123750000D03*
X153345000Y-94235000D03*
X134960000Y-110530000D03*
X136250000Y-110490000D03*
X117130000Y-113570000D03*
X129980000Y-90650000D03*
X129920000Y-123880000D03*
X146190000Y-90420000D03*
X123520000Y-112460000D03*
X118415000Y-80775000D03*
X118780000Y-109450000D03*
X116695000Y-78125000D03*
X106570000Y-103350000D03*
X121775001Y-87954999D03*
X147390000Y-103010000D03*
X117280000Y-87120000D03*
X113875000Y-78115000D03*
X125720000Y-89290000D03*
%TO.N,+5V*%
X134130000Y-93500000D03*
X144130000Y-106030000D03*
%TO.N,PIC_RXD*%
X109190000Y-91020000D03*
X124885000Y-95550000D03*
%TO.N,PIC_TXD*%
X141950000Y-96390000D03*
X143790000Y-96420000D03*
X108860000Y-92100000D03*
X125210000Y-96600000D03*
%TO.N,Net-(M1-Pin_2)*%
X146080000Y-121970000D03*
X147860000Y-121990000D03*
%TO.N,RB0*%
X140530000Y-98230000D03*
X135100000Y-87720000D03*
%TO.N,RB1*%
X137700000Y-97220000D03*
X136510000Y-86890000D03*
%TO.N,RB3*%
X144880000Y-120840000D03*
X138590000Y-87130000D03*
X156520000Y-98430000D03*
X137260000Y-85800000D03*
%TO.N,EN1.2*%
X136440000Y-107460000D03*
X128680000Y-107460000D03*
%TO.N,RB2*%
X128650000Y-109190000D03*
X130890000Y-109150000D03*
%TD*%
%TA.AperFunction,Conductor*%
%TO.N,GND*%
G36*
X170473427Y-70060185D02*
G01*
X170519182Y-70112989D01*
X170529126Y-70182147D01*
X170500101Y-70245703D01*
X170441323Y-70283477D01*
X170427921Y-70286616D01*
X170240105Y-70319733D01*
X170240092Y-70319736D01*
X169835247Y-70428212D01*
X169441360Y-70571576D01*
X169441352Y-70571579D01*
X169061504Y-70748706D01*
X169061488Y-70748714D01*
X168698513Y-70958278D01*
X168698487Y-70958294D01*
X168355166Y-71198690D01*
X168065164Y-71442031D01*
X169946651Y-73323517D01*
X169859365Y-73390495D01*
X169660076Y-73589784D01*
X169593099Y-73677070D01*
X167711612Y-71795583D01*
X167468271Y-72085585D01*
X167227875Y-72428906D01*
X167227859Y-72428932D01*
X167018295Y-72791907D01*
X167018287Y-72791923D01*
X166841160Y-73171771D01*
X166841157Y-73171779D01*
X166697793Y-73565666D01*
X166589317Y-73970511D01*
X166589314Y-73970524D01*
X166516531Y-74383293D01*
X166480000Y-74800842D01*
X166480000Y-75219995D01*
X166516531Y-75637544D01*
X166589314Y-76050313D01*
X166589317Y-76050326D01*
X166697793Y-76455171D01*
X166841157Y-76849058D01*
X166841160Y-76849066D01*
X167018287Y-77228914D01*
X167018295Y-77228930D01*
X167227859Y-77591905D01*
X167227875Y-77591931D01*
X167468271Y-77935252D01*
X167711611Y-78225253D01*
X169593098Y-76343766D01*
X169660076Y-76431054D01*
X169859365Y-76630343D01*
X169946650Y-76697319D01*
X168065163Y-78578806D01*
X168065164Y-78578807D01*
X168355159Y-78822142D01*
X168698487Y-79062543D01*
X168698513Y-79062559D01*
X169061488Y-79272123D01*
X169061504Y-79272131D01*
X169441352Y-79449258D01*
X169441360Y-79449261D01*
X169835247Y-79592625D01*
X170240092Y-79701101D01*
X170240105Y-79701104D01*
X170652874Y-79773887D01*
X171070423Y-79810418D01*
X171070426Y-79810419D01*
X171489574Y-79810419D01*
X171489576Y-79810418D01*
X171907125Y-79773887D01*
X172319894Y-79701104D01*
X172319907Y-79701101D01*
X172724752Y-79592625D01*
X173118639Y-79449261D01*
X173118647Y-79449258D01*
X173498495Y-79272131D01*
X173498511Y-79272123D01*
X173861486Y-79062559D01*
X173861512Y-79062543D01*
X174204840Y-78822142D01*
X174494834Y-78578807D01*
X174494835Y-78578806D01*
X172613348Y-76697320D01*
X172700635Y-76630343D01*
X172899924Y-76431054D01*
X172966901Y-76343767D01*
X174848387Y-78225254D01*
X174848388Y-78225253D01*
X175091723Y-77935259D01*
X175332124Y-77591931D01*
X175332140Y-77591905D01*
X175541704Y-77228930D01*
X175541712Y-77228914D01*
X175718839Y-76849066D01*
X175718842Y-76849058D01*
X175862206Y-76455171D01*
X175970682Y-76050326D01*
X175970685Y-76050313D01*
X176043468Y-75637544D01*
X176079999Y-75219995D01*
X176080000Y-75219993D01*
X176080000Y-74800845D01*
X176079999Y-74800842D01*
X176043468Y-74383293D01*
X175970685Y-73970524D01*
X175970682Y-73970511D01*
X175862206Y-73565666D01*
X175718842Y-73171779D01*
X175718839Y-73171771D01*
X175541712Y-72791923D01*
X175541704Y-72791907D01*
X175332140Y-72428932D01*
X175332124Y-72428906D01*
X175091723Y-72085578D01*
X174848388Y-71795583D01*
X174848387Y-71795582D01*
X172966900Y-73677069D01*
X172899924Y-73589784D01*
X172700635Y-73390495D01*
X172613347Y-73323516D01*
X174494834Y-71442030D01*
X174204833Y-71198690D01*
X173861512Y-70958294D01*
X173861486Y-70958278D01*
X173498511Y-70748714D01*
X173498495Y-70748706D01*
X173118647Y-70571579D01*
X173118639Y-70571576D01*
X172724752Y-70428212D01*
X172319907Y-70319736D01*
X172319897Y-70319734D01*
X172248876Y-70307210D01*
X172186274Y-70276182D01*
X172150384Y-70216235D01*
X172152602Y-70146400D01*
X172192223Y-70088851D01*
X172256668Y-70061858D01*
X172286587Y-70062154D01*
X172635971Y-70108152D01*
X172646597Y-70110025D01*
X173019284Y-70192648D01*
X173029710Y-70195442D01*
X173393765Y-70310227D01*
X173403911Y-70313920D01*
X173756578Y-70460000D01*
X173766369Y-70464566D01*
X173971939Y-70571579D01*
X174104942Y-70640816D01*
X174114309Y-70646223D01*
X174275187Y-70748714D01*
X174436244Y-70851318D01*
X174445105Y-70857523D01*
X174747930Y-71089889D01*
X174756217Y-71096843D01*
X175037635Y-71354715D01*
X175045284Y-71362364D01*
X175303156Y-71643782D01*
X175310110Y-71652069D01*
X175542476Y-71954894D01*
X175548681Y-71963755D01*
X175753775Y-72285689D01*
X175759183Y-72295057D01*
X175935430Y-72633623D01*
X175940002Y-72643427D01*
X176086075Y-72996078D01*
X176089775Y-73006244D01*
X176204554Y-73370278D01*
X176207354Y-73380727D01*
X176289971Y-73753389D01*
X176291849Y-73764042D01*
X176341671Y-74142473D01*
X176342614Y-74153249D01*
X176359382Y-74537297D01*
X176359500Y-74542706D01*
X176359500Y-130377293D01*
X176359382Y-130382702D01*
X176342614Y-130766750D01*
X176341671Y-130777526D01*
X176291849Y-131155957D01*
X176289971Y-131166610D01*
X176207354Y-131539272D01*
X176204554Y-131549721D01*
X176089775Y-131913755D01*
X176086075Y-131923921D01*
X175940002Y-132276572D01*
X175935430Y-132286376D01*
X175759183Y-132624942D01*
X175753775Y-132634310D01*
X175548681Y-132956244D01*
X175542476Y-132965105D01*
X175310110Y-133267930D01*
X175303156Y-133276217D01*
X175045284Y-133557635D01*
X175037635Y-133565284D01*
X174756217Y-133823156D01*
X174747930Y-133830110D01*
X174445105Y-134062476D01*
X174436244Y-134068681D01*
X174114310Y-134273775D01*
X174104942Y-134279183D01*
X173766376Y-134455430D01*
X173756572Y-134460002D01*
X173403921Y-134606075D01*
X173393755Y-134609775D01*
X173029721Y-134724554D01*
X173019272Y-134727354D01*
X172987241Y-134734455D01*
X172917530Y-134729747D01*
X172861431Y-134688097D01*
X172836755Y-134622730D01*
X172851336Y-134554399D01*
X172900545Y-134504798D01*
X172917993Y-134496872D01*
X173118632Y-134423845D01*
X173118647Y-134423839D01*
X173498495Y-134246712D01*
X173498511Y-134246704D01*
X173861486Y-134037140D01*
X173861512Y-134037124D01*
X174204840Y-133796723D01*
X174494834Y-133553388D01*
X174494835Y-133553387D01*
X172613348Y-131671901D01*
X172700635Y-131604924D01*
X172899924Y-131405635D01*
X172966901Y-131318348D01*
X174848387Y-133199835D01*
X174848388Y-133199834D01*
X175091723Y-132909840D01*
X175332124Y-132566512D01*
X175332140Y-132566486D01*
X175541704Y-132203511D01*
X175541712Y-132203495D01*
X175718839Y-131823647D01*
X175718842Y-131823639D01*
X175862206Y-131429752D01*
X175970682Y-131024907D01*
X175970685Y-131024894D01*
X176043468Y-130612125D01*
X176079999Y-130194576D01*
X176080000Y-130194574D01*
X176080000Y-129775426D01*
X176079999Y-129775423D01*
X176043468Y-129357874D01*
X175970685Y-128945105D01*
X175970682Y-128945092D01*
X175862206Y-128540247D01*
X175718842Y-128146360D01*
X175718839Y-128146352D01*
X175541712Y-127766504D01*
X175541704Y-127766488D01*
X175332140Y-127403513D01*
X175332124Y-127403487D01*
X175091723Y-127060159D01*
X174848388Y-126770164D01*
X174848387Y-126770163D01*
X172966900Y-128651650D01*
X172899924Y-128564365D01*
X172700635Y-128365076D01*
X172613347Y-128298097D01*
X174494834Y-126416611D01*
X174204833Y-126173271D01*
X173861512Y-125932875D01*
X173861486Y-125932859D01*
X173498511Y-125723295D01*
X173498495Y-125723287D01*
X173118647Y-125546160D01*
X173118639Y-125546157D01*
X172724752Y-125402793D01*
X172319907Y-125294317D01*
X172319894Y-125294314D01*
X171907125Y-125221531D01*
X171489576Y-125185000D01*
X171070423Y-125185000D01*
X170652874Y-125221531D01*
X170240105Y-125294314D01*
X170240092Y-125294317D01*
X169835247Y-125402793D01*
X169441360Y-125546157D01*
X169441352Y-125546160D01*
X169061504Y-125723287D01*
X169061488Y-125723295D01*
X168698513Y-125932859D01*
X168698487Y-125932875D01*
X168355166Y-126173271D01*
X168065164Y-126416612D01*
X169946651Y-128298098D01*
X169859365Y-128365076D01*
X169660076Y-128564365D01*
X169593099Y-128651651D01*
X167711612Y-126770164D01*
X167468271Y-127060166D01*
X167227875Y-127403487D01*
X167227859Y-127403513D01*
X167018295Y-127766488D01*
X167018287Y-127766504D01*
X166841160Y-128146352D01*
X166841157Y-128146360D01*
X166697793Y-128540247D01*
X166589317Y-128945092D01*
X166589314Y-128945105D01*
X166516531Y-129357874D01*
X166480000Y-129775423D01*
X166480000Y-130194576D01*
X166516531Y-130612125D01*
X166589314Y-131024894D01*
X166589317Y-131024907D01*
X166697793Y-131429752D01*
X166841157Y-131823639D01*
X166841160Y-131823647D01*
X167018287Y-132203495D01*
X167018295Y-132203511D01*
X167227859Y-132566486D01*
X167227875Y-132566512D01*
X167468271Y-132909833D01*
X167711611Y-133199834D01*
X169593098Y-131318347D01*
X169660076Y-131405635D01*
X169859365Y-131604924D01*
X169946650Y-131671900D01*
X168065163Y-133553387D01*
X168065164Y-133553388D01*
X168355159Y-133796723D01*
X168698487Y-134037124D01*
X168698513Y-134037140D01*
X169061488Y-134246704D01*
X169061504Y-134246712D01*
X169441352Y-134423839D01*
X169441360Y-134423842D01*
X169835247Y-134567206D01*
X170090966Y-134635725D01*
X170150627Y-134672090D01*
X170181156Y-134734937D01*
X170172861Y-134804312D01*
X170128376Y-134858190D01*
X170061824Y-134879465D01*
X170058873Y-134879500D01*
X105561546Y-134879500D01*
X105494507Y-134859815D01*
X105448752Y-134807011D01*
X105438808Y-134737853D01*
X105467833Y-134674297D01*
X105526611Y-134636523D01*
X105529453Y-134635725D01*
X105785171Y-134567206D01*
X106179058Y-134423842D01*
X106179066Y-134423839D01*
X106558914Y-134246712D01*
X106558930Y-134246704D01*
X106921905Y-134037140D01*
X106921931Y-134037124D01*
X107265259Y-133796723D01*
X107555253Y-133553388D01*
X107555254Y-133553387D01*
X105673767Y-131671901D01*
X105761054Y-131604924D01*
X105960343Y-131405635D01*
X106027319Y-131318348D01*
X107908806Y-133199835D01*
X107908807Y-133199834D01*
X108152142Y-132909840D01*
X108392543Y-132566512D01*
X108392559Y-132566486D01*
X108602123Y-132203511D01*
X108602131Y-132203495D01*
X108779258Y-131823647D01*
X108779261Y-131823639D01*
X108922625Y-131429752D01*
X109031101Y-131024907D01*
X109031104Y-131024894D01*
X109103887Y-130612125D01*
X109140418Y-130194576D01*
X109140419Y-130194574D01*
X109140419Y-129775426D01*
X109140418Y-129775423D01*
X109103887Y-129357874D01*
X109067328Y-129150537D01*
X109067328Y-129150536D01*
X109064389Y-129133870D01*
X120374500Y-129133870D01*
X120374500Y-129366129D01*
X120410831Y-129595514D01*
X120482601Y-129816400D01*
X120568507Y-129984998D01*
X120588039Y-130023331D01*
X120724551Y-130211224D01*
X120888776Y-130375449D01*
X121076669Y-130511961D01*
X121174436Y-130561776D01*
X121283599Y-130617398D01*
X121283601Y-130617398D01*
X121283604Y-130617400D01*
X121504486Y-130689169D01*
X121622668Y-130707886D01*
X121733871Y-130725500D01*
X121733876Y-130725500D01*
X121966129Y-130725500D01*
X122067502Y-130709443D01*
X122195514Y-130689169D01*
X122416396Y-130617400D01*
X122623331Y-130511961D01*
X122811224Y-130375449D01*
X122975449Y-130211224D01*
X123111961Y-130023331D01*
X123217400Y-129816396D01*
X123289169Y-129595514D01*
X123309443Y-129467502D01*
X123325500Y-129366129D01*
X123325500Y-129133870D01*
X125374500Y-129133870D01*
X125374500Y-129366129D01*
X125410831Y-129595514D01*
X125482601Y-129816400D01*
X125568507Y-129984998D01*
X125588039Y-130023331D01*
X125724551Y-130211224D01*
X125888776Y-130375449D01*
X126076669Y-130511961D01*
X126174436Y-130561776D01*
X126283599Y-130617398D01*
X126283601Y-130617398D01*
X126283604Y-130617400D01*
X126504486Y-130689169D01*
X126622668Y-130707886D01*
X126733871Y-130725500D01*
X126733876Y-130725500D01*
X126966129Y-130725500D01*
X127067502Y-130709443D01*
X127195514Y-130689169D01*
X127416396Y-130617400D01*
X127623331Y-130511961D01*
X127811224Y-130375449D01*
X127975449Y-130211224D01*
X128111961Y-130023331D01*
X128217400Y-129816396D01*
X128289169Y-129595514D01*
X128309443Y-129467502D01*
X128325500Y-129366129D01*
X128325500Y-129133870D01*
X141374500Y-129133870D01*
X141374500Y-129366129D01*
X141410831Y-129595514D01*
X141482601Y-129816400D01*
X141568507Y-129984998D01*
X141588039Y-130023331D01*
X141724551Y-130211224D01*
X141888776Y-130375449D01*
X142076669Y-130511961D01*
X142174436Y-130561776D01*
X142283599Y-130617398D01*
X142283601Y-130617398D01*
X142283604Y-130617400D01*
X142504486Y-130689169D01*
X142622668Y-130707886D01*
X142733871Y-130725500D01*
X142733876Y-130725500D01*
X142966129Y-130725500D01*
X143067502Y-130709443D01*
X143195514Y-130689169D01*
X143416396Y-130617400D01*
X143623331Y-130511961D01*
X143811224Y-130375449D01*
X143975449Y-130211224D01*
X144111961Y-130023331D01*
X144217400Y-129816396D01*
X144289169Y-129595514D01*
X144309443Y-129467502D01*
X144325500Y-129366129D01*
X144325500Y-129133870D01*
X146374500Y-129133870D01*
X146374500Y-129366129D01*
X146410831Y-129595514D01*
X146482601Y-129816400D01*
X146568507Y-129984998D01*
X146588039Y-130023331D01*
X146724551Y-130211224D01*
X146888776Y-130375449D01*
X147076669Y-130511961D01*
X147174436Y-130561776D01*
X147283599Y-130617398D01*
X147283601Y-130617398D01*
X147283604Y-130617400D01*
X147504486Y-130689169D01*
X147622668Y-130707886D01*
X147733871Y-130725500D01*
X147733876Y-130725500D01*
X147966129Y-130725500D01*
X148067502Y-130709443D01*
X148195514Y-130689169D01*
X148416396Y-130617400D01*
X148623331Y-130511961D01*
X148811224Y-130375449D01*
X148975449Y-130211224D01*
X149111961Y-130023331D01*
X149217400Y-129816396D01*
X149289169Y-129595514D01*
X149294056Y-129564656D01*
X149325500Y-129366129D01*
X149325500Y-129133870D01*
X149306232Y-129012222D01*
X149289169Y-128904486D01*
X149217400Y-128683604D01*
X149217398Y-128683601D01*
X149217398Y-128683599D01*
X149111960Y-128476668D01*
X148975449Y-128288776D01*
X148811224Y-128124551D01*
X148623331Y-127988039D01*
X148538337Y-127944732D01*
X148416400Y-127882601D01*
X148195514Y-127810831D01*
X147966129Y-127774500D01*
X147966124Y-127774500D01*
X147733876Y-127774500D01*
X147733871Y-127774500D01*
X147504485Y-127810831D01*
X147283599Y-127882601D01*
X147076668Y-127988039D01*
X146888773Y-128124553D01*
X146724553Y-128288773D01*
X146588039Y-128476668D01*
X146482601Y-128683599D01*
X146410831Y-128904485D01*
X146374500Y-129133870D01*
X144325500Y-129133870D01*
X144306232Y-129012222D01*
X144289169Y-128904486D01*
X144217400Y-128683604D01*
X144217398Y-128683601D01*
X144217398Y-128683599D01*
X144111960Y-128476668D01*
X143975449Y-128288776D01*
X143811224Y-128124551D01*
X143623331Y-127988039D01*
X143538337Y-127944732D01*
X143416400Y-127882601D01*
X143195514Y-127810831D01*
X142966129Y-127774500D01*
X142966124Y-127774500D01*
X142733876Y-127774500D01*
X142733871Y-127774500D01*
X142504485Y-127810831D01*
X142283599Y-127882601D01*
X142076668Y-127988039D01*
X141888773Y-128124553D01*
X141724553Y-128288773D01*
X141588039Y-128476668D01*
X141482601Y-128683599D01*
X141410831Y-128904485D01*
X141374500Y-129133870D01*
X128325500Y-129133870D01*
X128306232Y-129012222D01*
X128289169Y-128904486D01*
X128217400Y-128683604D01*
X128217398Y-128683601D01*
X128217398Y-128683599D01*
X128111960Y-128476668D01*
X127975449Y-128288776D01*
X127811224Y-128124551D01*
X127623331Y-127988039D01*
X127538337Y-127944732D01*
X127416400Y-127882601D01*
X127195514Y-127810831D01*
X126966129Y-127774500D01*
X126966124Y-127774500D01*
X126733876Y-127774500D01*
X126733871Y-127774500D01*
X126504485Y-127810831D01*
X126283599Y-127882601D01*
X126076668Y-127988039D01*
X125888773Y-128124553D01*
X125724553Y-128288773D01*
X125588039Y-128476668D01*
X125482601Y-128683599D01*
X125410831Y-128904485D01*
X125374500Y-129133870D01*
X123325500Y-129133870D01*
X123306232Y-129012222D01*
X123289169Y-128904486D01*
X123217400Y-128683604D01*
X123217398Y-128683601D01*
X123217398Y-128683599D01*
X123111960Y-128476668D01*
X122975449Y-128288776D01*
X122811224Y-128124551D01*
X122623331Y-127988039D01*
X122538337Y-127944732D01*
X122416400Y-127882601D01*
X122195514Y-127810831D01*
X121966129Y-127774500D01*
X121966124Y-127774500D01*
X121733876Y-127774500D01*
X121733871Y-127774500D01*
X121504485Y-127810831D01*
X121283599Y-127882601D01*
X121076668Y-127988039D01*
X120888773Y-128124553D01*
X120724553Y-128288773D01*
X120588039Y-128476668D01*
X120482601Y-128683599D01*
X120410831Y-128904485D01*
X120374500Y-129133870D01*
X109064389Y-129133870D01*
X109031105Y-128945109D01*
X109031101Y-128945092D01*
X108922625Y-128540247D01*
X108779261Y-128146360D01*
X108779258Y-128146352D01*
X108602131Y-127766504D01*
X108602123Y-127766488D01*
X108392559Y-127403513D01*
X108392543Y-127403487D01*
X108152142Y-127060159D01*
X107908807Y-126770164D01*
X107908806Y-126770163D01*
X106027319Y-128651650D01*
X105960343Y-128564365D01*
X105761054Y-128365076D01*
X105673766Y-128298097D01*
X107555253Y-126416611D01*
X107265252Y-126173271D01*
X106921931Y-125932875D01*
X106921905Y-125932859D01*
X106558930Y-125723295D01*
X106558914Y-125723287D01*
X106179066Y-125546160D01*
X106179058Y-125546157D01*
X105785171Y-125402793D01*
X105380326Y-125294317D01*
X105380313Y-125294314D01*
X104967544Y-125221531D01*
X104549995Y-125185000D01*
X104130842Y-125185000D01*
X103713293Y-125221531D01*
X103300524Y-125294314D01*
X103300511Y-125294317D01*
X102895666Y-125402793D01*
X102501779Y-125546157D01*
X102501771Y-125546160D01*
X102121923Y-125723287D01*
X102121907Y-125723295D01*
X101758932Y-125932859D01*
X101758906Y-125932875D01*
X101415585Y-126173271D01*
X101125583Y-126416612D01*
X103007070Y-128298098D01*
X102919784Y-128365076D01*
X102720495Y-128564365D01*
X102653517Y-128651651D01*
X100772031Y-126770164D01*
X100528690Y-127060166D01*
X100288294Y-127403487D01*
X100288278Y-127403513D01*
X100078714Y-127766488D01*
X100078706Y-127766504D01*
X99901579Y-128146352D01*
X99901576Y-128146360D01*
X99758212Y-128540247D01*
X99649736Y-128945092D01*
X99649733Y-128945105D01*
X99576950Y-129357874D01*
X99540419Y-129775423D01*
X99540419Y-130194576D01*
X99576950Y-130612125D01*
X99649733Y-131024894D01*
X99649736Y-131024907D01*
X99758212Y-131429752D01*
X99901576Y-131823639D01*
X99901579Y-131823647D01*
X100078706Y-132203495D01*
X100078714Y-132203511D01*
X100288278Y-132566486D01*
X100288294Y-132566512D01*
X100528690Y-132909833D01*
X100772030Y-133199834D01*
X102653517Y-131318347D01*
X102720495Y-131405635D01*
X102919784Y-131604924D01*
X103007069Y-131671900D01*
X101125582Y-133553387D01*
X101125583Y-133553388D01*
X101415578Y-133796723D01*
X101758906Y-134037124D01*
X101758932Y-134037140D01*
X102121907Y-134246704D01*
X102121923Y-134246712D01*
X102501771Y-134423839D01*
X102501779Y-134423842D01*
X102895668Y-134567207D01*
X102951690Y-134582217D01*
X102974862Y-134596340D01*
X102999679Y-134607319D01*
X103004254Y-134614255D01*
X103011351Y-134618581D01*
X103023209Y-134642990D01*
X103038151Y-134665643D01*
X103038249Y-134673952D01*
X103041881Y-134681427D01*
X103038659Y-134708370D01*
X103038983Y-134735508D01*
X103034573Y-134742552D01*
X103033587Y-134750803D01*
X103016312Y-134771724D01*
X103001911Y-134794732D01*
X102994391Y-134798274D01*
X102989102Y-134804681D01*
X102963257Y-134812943D01*
X102938705Y-134824511D01*
X102926624Y-134824654D01*
X102922551Y-134825957D01*
X102903413Y-134824931D01*
X102804042Y-134811849D01*
X102793389Y-134809971D01*
X102420727Y-134727354D01*
X102410278Y-134724554D01*
X102046244Y-134609775D01*
X102036078Y-134606075D01*
X101683427Y-134460002D01*
X101673623Y-134455430D01*
X101335057Y-134279183D01*
X101325689Y-134273775D01*
X101003755Y-134068681D01*
X100994894Y-134062476D01*
X100692069Y-133830110D01*
X100683782Y-133823156D01*
X100402364Y-133565284D01*
X100394715Y-133557635D01*
X100136843Y-133276217D01*
X100129889Y-133267930D01*
X99897523Y-132965105D01*
X99891318Y-132956244D01*
X99861755Y-132909840D01*
X99686223Y-132634309D01*
X99680816Y-132624942D01*
X99504569Y-132286376D01*
X99499997Y-132276572D01*
X99469734Y-132203511D01*
X99353920Y-131923911D01*
X99350224Y-131913755D01*
X99235442Y-131549710D01*
X99232648Y-131539284D01*
X99150025Y-131166597D01*
X99148152Y-131155971D01*
X99098326Y-130777506D01*
X99097386Y-130766771D01*
X99080618Y-130382702D01*
X99080500Y-130377293D01*
X99080500Y-120921307D01*
X144054499Y-120921307D01*
X144086222Y-121080783D01*
X144086225Y-121080793D01*
X144148450Y-121231019D01*
X144148452Y-121231023D01*
X144238788Y-121366220D01*
X144238794Y-121366228D01*
X144353771Y-121481205D01*
X144353779Y-121481211D01*
X144488976Y-121571547D01*
X144488980Y-121571549D01*
X144636343Y-121632588D01*
X144639211Y-121633776D01*
X144639215Y-121633776D01*
X144639216Y-121633777D01*
X144798692Y-121665500D01*
X144798695Y-121665500D01*
X144961307Y-121665500D01*
X145126763Y-121632588D01*
X145127088Y-121634226D01*
X145188931Y-121633669D01*
X145248048Y-121670911D01*
X145277645Y-121734203D01*
X145276688Y-121777148D01*
X145254500Y-121888692D01*
X145254500Y-121888695D01*
X145254500Y-122051305D01*
X145254500Y-122051307D01*
X145254499Y-122051307D01*
X145286222Y-122210783D01*
X145286225Y-122210793D01*
X145348450Y-122361019D01*
X145348452Y-122361023D01*
X145438788Y-122496220D01*
X145438794Y-122496228D01*
X145553771Y-122611205D01*
X145553779Y-122611211D01*
X145688976Y-122701547D01*
X145688980Y-122701549D01*
X145839206Y-122763774D01*
X145839211Y-122763776D01*
X145839215Y-122763776D01*
X145839216Y-122763777D01*
X145998692Y-122795500D01*
X145998695Y-122795500D01*
X146161307Y-122795500D01*
X146268598Y-122774157D01*
X146320789Y-122763776D01*
X146471021Y-122701548D01*
X146471023Y-122701547D01*
X146576288Y-122631211D01*
X146606225Y-122611208D01*
X146721208Y-122496225D01*
X146811548Y-122361021D01*
X146851297Y-122265056D01*
X146895136Y-122210656D01*
X146961430Y-122188590D01*
X147029129Y-122205869D01*
X147076740Y-122257005D01*
X147080418Y-122265058D01*
X147128452Y-122381022D01*
X147128452Y-122381023D01*
X147218788Y-122516220D01*
X147218794Y-122516228D01*
X147333771Y-122631205D01*
X147333779Y-122631211D01*
X147468976Y-122721547D01*
X147468980Y-122721549D01*
X147619206Y-122783774D01*
X147619211Y-122783776D01*
X147619215Y-122783776D01*
X147619216Y-122783777D01*
X147778692Y-122815500D01*
X147778695Y-122815500D01*
X147941307Y-122815500D01*
X148048598Y-122794157D01*
X148100789Y-122783776D01*
X148251021Y-122721548D01*
X148251023Y-122721547D01*
X148318169Y-122676680D01*
X148386225Y-122631208D01*
X148501208Y-122516225D01*
X148591548Y-122381021D01*
X148599832Y-122361023D01*
X148612290Y-122330943D01*
X148653776Y-122230789D01*
X148685500Y-122071305D01*
X148685500Y-121908695D01*
X148685500Y-121908692D01*
X148653777Y-121749216D01*
X148653776Y-121749215D01*
X148653776Y-121749211D01*
X148653774Y-121749206D01*
X148591549Y-121598980D01*
X148591547Y-121598976D01*
X148501211Y-121463779D01*
X148501205Y-121463771D01*
X148386228Y-121348794D01*
X148386220Y-121348788D01*
X148251023Y-121258452D01*
X148251019Y-121258450D01*
X148100793Y-121196225D01*
X148100783Y-121196222D01*
X147941307Y-121164500D01*
X147941305Y-121164500D01*
X147778695Y-121164500D01*
X147778693Y-121164500D01*
X147619216Y-121196222D01*
X147619206Y-121196225D01*
X147468980Y-121258450D01*
X147468976Y-121258452D01*
X147333779Y-121348788D01*
X147333771Y-121348794D01*
X147218794Y-121463771D01*
X147218788Y-121463779D01*
X147128452Y-121598976D01*
X147128452Y-121598977D01*
X147088703Y-121694941D01*
X147044862Y-121749344D01*
X146978568Y-121771409D01*
X146910868Y-121754130D01*
X146863258Y-121702992D01*
X146859581Y-121694941D01*
X146811547Y-121578976D01*
X146721211Y-121443779D01*
X146721205Y-121443771D01*
X146606228Y-121328794D01*
X146606220Y-121328788D01*
X146471023Y-121238452D01*
X146471019Y-121238450D01*
X146320793Y-121176225D01*
X146320783Y-121176222D01*
X146161307Y-121144500D01*
X146161305Y-121144500D01*
X145998695Y-121144500D01*
X145998693Y-121144500D01*
X145833237Y-121177412D01*
X145832912Y-121175780D01*
X145771033Y-121176321D01*
X145711927Y-121139061D01*
X145682349Y-121075761D01*
X145683310Y-121032854D01*
X145705500Y-120921305D01*
X145705500Y-120758695D01*
X145705500Y-120758692D01*
X145673777Y-120599216D01*
X145673776Y-120599215D01*
X145673776Y-120599211D01*
X145673774Y-120599206D01*
X145611549Y-120448980D01*
X145611547Y-120448976D01*
X145521211Y-120313779D01*
X145521205Y-120313771D01*
X145406228Y-120198794D01*
X145406220Y-120198788D01*
X145271023Y-120108452D01*
X145271019Y-120108450D01*
X145120793Y-120046225D01*
X145120783Y-120046222D01*
X144961307Y-120014500D01*
X144961305Y-120014500D01*
X144798695Y-120014500D01*
X144798693Y-120014500D01*
X144639216Y-120046222D01*
X144639206Y-120046225D01*
X144488980Y-120108450D01*
X144488976Y-120108452D01*
X144353779Y-120198788D01*
X144353771Y-120198794D01*
X144238794Y-120313771D01*
X144238788Y-120313779D01*
X144148452Y-120448976D01*
X144148450Y-120448980D01*
X144086225Y-120599206D01*
X144086222Y-120599216D01*
X144054500Y-120758692D01*
X144054500Y-120758695D01*
X144054500Y-120921305D01*
X144054500Y-120921307D01*
X144054499Y-120921307D01*
X99080500Y-120921307D01*
X99080500Y-117813909D01*
X102175000Y-117813909D01*
X102175000Y-118046090D01*
X102211318Y-118275393D01*
X102283065Y-118496205D01*
X102388465Y-118703064D01*
X102445238Y-118781207D01*
X103048958Y-118177487D01*
X103073978Y-118237890D01*
X103145112Y-118344351D01*
X103235649Y-118434888D01*
X103342110Y-118506022D01*
X103402510Y-118531041D01*
X102798791Y-119134759D01*
X102798791Y-119134760D01*
X102876935Y-119191534D01*
X103083794Y-119296934D01*
X103304606Y-119368681D01*
X103533910Y-119405000D01*
X103766090Y-119405000D01*
X103995393Y-119368681D01*
X104216205Y-119296934D01*
X104423071Y-119191530D01*
X104501207Y-119134762D01*
X104501208Y-119134760D01*
X103897488Y-118531041D01*
X103957890Y-118506022D01*
X104064351Y-118434888D01*
X104154888Y-118344351D01*
X104226022Y-118237890D01*
X104251041Y-118177488D01*
X104854760Y-118781208D01*
X104854762Y-118781207D01*
X104911530Y-118703071D01*
X105016934Y-118496205D01*
X105088681Y-118275393D01*
X105125000Y-118046090D01*
X105125000Y-117813909D01*
X105088681Y-117584606D01*
X105016934Y-117363794D01*
X104911534Y-117156935D01*
X104854760Y-117078791D01*
X104854759Y-117078791D01*
X104251041Y-117682510D01*
X104226022Y-117622110D01*
X104154888Y-117515649D01*
X104064351Y-117425112D01*
X103957890Y-117353978D01*
X103897487Y-117328957D01*
X104501207Y-116725238D01*
X104423064Y-116668465D01*
X104216205Y-116563065D01*
X103995393Y-116491318D01*
X103766090Y-116455000D01*
X103533910Y-116455000D01*
X103304606Y-116491318D01*
X103083794Y-116563065D01*
X102876925Y-116668470D01*
X102798791Y-116725237D01*
X102798791Y-116725238D01*
X103402511Y-117328958D01*
X103342110Y-117353978D01*
X103235649Y-117425112D01*
X103145112Y-117515649D01*
X103073978Y-117622110D01*
X103048958Y-117682511D01*
X102445238Y-117078791D01*
X102445237Y-117078791D01*
X102388470Y-117156925D01*
X102283065Y-117363794D01*
X102211318Y-117584606D01*
X102175000Y-117813909D01*
X99080500Y-117813909D01*
X99080500Y-112813870D01*
X102174500Y-112813870D01*
X102174500Y-113046129D01*
X102210831Y-113275514D01*
X102282601Y-113496400D01*
X102388039Y-113703331D01*
X102524551Y-113891224D01*
X102688776Y-114055449D01*
X102876669Y-114191961D01*
X102936181Y-114222284D01*
X103083599Y-114297398D01*
X103083601Y-114297398D01*
X103083604Y-114297400D01*
X103304486Y-114369169D01*
X103422668Y-114387886D01*
X103533871Y-114405500D01*
X103533876Y-114405500D01*
X103766129Y-114405500D01*
X103867502Y-114389443D01*
X103995514Y-114369169D01*
X104216396Y-114297400D01*
X104423331Y-114191961D01*
X104611224Y-114055449D01*
X104728958Y-113937715D01*
X158566500Y-113937715D01*
X158566500Y-114222284D01*
X158598357Y-114505031D01*
X158598360Y-114505045D01*
X158661679Y-114782467D01*
X158661683Y-114782479D01*
X158755660Y-115051049D01*
X158755666Y-115051063D01*
X158879126Y-115307430D01*
X158879128Y-115307433D01*
X159030521Y-115548374D01*
X159207939Y-115770849D01*
X159409151Y-115972061D01*
X159631626Y-116149479D01*
X159872567Y-116300872D01*
X160128944Y-116424337D01*
X160128950Y-116424339D01*
X160397520Y-116518316D01*
X160397532Y-116518320D01*
X160674954Y-116581640D01*
X160674963Y-116581641D01*
X160674968Y-116581642D01*
X160863466Y-116602880D01*
X160957716Y-116613499D01*
X160957719Y-116613500D01*
X160957722Y-116613500D01*
X161242281Y-116613500D01*
X161242282Y-116613499D01*
X161386790Y-116597217D01*
X161525031Y-116581642D01*
X161525034Y-116581641D01*
X161525046Y-116581640D01*
X161802468Y-116518320D01*
X162071056Y-116424337D01*
X162327433Y-116300872D01*
X162568374Y-116149479D01*
X162790849Y-115972061D01*
X162992061Y-115770849D01*
X163169479Y-115548374D01*
X163320872Y-115307433D01*
X163444337Y-115051056D01*
X163538320Y-114782468D01*
X163601640Y-114505046D01*
X163633500Y-114222278D01*
X163633500Y-113937722D01*
X163601640Y-113654954D01*
X163538320Y-113377532D01*
X163444337Y-113108944D01*
X163320872Y-112852567D01*
X163169479Y-112611626D01*
X162992061Y-112389151D01*
X162790849Y-112187939D01*
X162751636Y-112156668D01*
X162734348Y-112142881D01*
X162568374Y-112010521D01*
X162327433Y-111859128D01*
X162327430Y-111859126D01*
X162071063Y-111735666D01*
X162071049Y-111735660D01*
X161802479Y-111641683D01*
X161802467Y-111641679D01*
X161588365Y-111592812D01*
X161525046Y-111578360D01*
X161525043Y-111578359D01*
X161525031Y-111578357D01*
X161242284Y-111546500D01*
X161242278Y-111546500D01*
X160957722Y-111546500D01*
X160957715Y-111546500D01*
X160674968Y-111578357D01*
X160674954Y-111578360D01*
X160397532Y-111641679D01*
X160397520Y-111641683D01*
X160128950Y-111735660D01*
X160128936Y-111735666D01*
X159872569Y-111859126D01*
X159631627Y-112010520D01*
X159409151Y-112187938D01*
X159207938Y-112389151D01*
X159030520Y-112611627D01*
X158879126Y-112852569D01*
X158755666Y-113108936D01*
X158755660Y-113108950D01*
X158661683Y-113377520D01*
X158661679Y-113377532D01*
X158598360Y-113654954D01*
X158598357Y-113654968D01*
X158566500Y-113937715D01*
X104728958Y-113937715D01*
X104775449Y-113891224D01*
X104911961Y-113703331D01*
X105017400Y-113496396D01*
X105089169Y-113275514D01*
X105115552Y-113108936D01*
X105125500Y-113046129D01*
X105125500Y-112813870D01*
X105106232Y-112692222D01*
X105089169Y-112584486D01*
X105017400Y-112363604D01*
X105017398Y-112363601D01*
X105017398Y-112363599D01*
X104911960Y-112156668D01*
X104805778Y-112010521D01*
X104775449Y-111968776D01*
X104611224Y-111804551D01*
X104423331Y-111668039D01*
X104371597Y-111641679D01*
X104216400Y-111562601D01*
X103995514Y-111490831D01*
X103766129Y-111454500D01*
X103766124Y-111454500D01*
X103533876Y-111454500D01*
X103533871Y-111454500D01*
X103304485Y-111490831D01*
X103083599Y-111562601D01*
X102876668Y-111668039D01*
X102688773Y-111804553D01*
X102524553Y-111968773D01*
X102388039Y-112156668D01*
X102282601Y-112363599D01*
X102210831Y-112584485D01*
X102174500Y-112813870D01*
X99080500Y-112813870D01*
X99080500Y-109271307D01*
X127824499Y-109271307D01*
X127856222Y-109430783D01*
X127856225Y-109430793D01*
X127918450Y-109581019D01*
X127918452Y-109581023D01*
X128008788Y-109716220D01*
X128008794Y-109716228D01*
X128123771Y-109831205D01*
X128123779Y-109831211D01*
X128258976Y-109921547D01*
X128258980Y-109921549D01*
X128389231Y-109975500D01*
X128409211Y-109983776D01*
X128409215Y-109983776D01*
X128409216Y-109983777D01*
X128568692Y-110015500D01*
X128568695Y-110015500D01*
X128731307Y-110015500D01*
X128838598Y-109994157D01*
X128890789Y-109983776D01*
X129041021Y-109921548D01*
X129041023Y-109921547D01*
X129108169Y-109876680D01*
X129176225Y-109831208D01*
X129291208Y-109716225D01*
X129381548Y-109581021D01*
X129443776Y-109430789D01*
X129475500Y-109271305D01*
X129475500Y-109231307D01*
X130064499Y-109231307D01*
X130096222Y-109390783D01*
X130096225Y-109390793D01*
X130158450Y-109541019D01*
X130158452Y-109541023D01*
X130248788Y-109676220D01*
X130248794Y-109676228D01*
X130363771Y-109791205D01*
X130363779Y-109791211D01*
X130498976Y-109881547D01*
X130498980Y-109881549D01*
X130595550Y-109921549D01*
X130649211Y-109943776D01*
X130649215Y-109943776D01*
X130649216Y-109943777D01*
X130808692Y-109975500D01*
X130808695Y-109975500D01*
X130971307Y-109975500D01*
X131078598Y-109954157D01*
X131130789Y-109943776D01*
X131281021Y-109881548D01*
X131281023Y-109881547D01*
X131356365Y-109831205D01*
X131416225Y-109791208D01*
X131531208Y-109676225D01*
X131621548Y-109541021D01*
X131683776Y-109390789D01*
X131707543Y-109271307D01*
X131715500Y-109231307D01*
X131715500Y-109068692D01*
X131683777Y-108909216D01*
X131683776Y-108909215D01*
X131683776Y-108909211D01*
X131638117Y-108798979D01*
X131621549Y-108758980D01*
X131621547Y-108758976D01*
X131531211Y-108623779D01*
X131531205Y-108623771D01*
X131416228Y-108508794D01*
X131416220Y-108508788D01*
X131281023Y-108418452D01*
X131281019Y-108418450D01*
X131130793Y-108356225D01*
X131130783Y-108356222D01*
X130971307Y-108324500D01*
X130971305Y-108324500D01*
X130808695Y-108324500D01*
X130808693Y-108324500D01*
X130649216Y-108356222D01*
X130649206Y-108356225D01*
X130498980Y-108418450D01*
X130498976Y-108418452D01*
X130363779Y-108508788D01*
X130363771Y-108508794D01*
X130248794Y-108623771D01*
X130248788Y-108623779D01*
X130158452Y-108758976D01*
X130158450Y-108758980D01*
X130096225Y-108909206D01*
X130096222Y-108909216D01*
X130064500Y-109068692D01*
X130064500Y-109068695D01*
X130064500Y-109231305D01*
X130064500Y-109231307D01*
X130064499Y-109231307D01*
X129475500Y-109231307D01*
X129475500Y-109108695D01*
X129475499Y-109108692D01*
X129471144Y-109086796D01*
X129471144Y-109086795D01*
X129443777Y-108949216D01*
X129443776Y-108949215D01*
X129443776Y-108949211D01*
X129427210Y-108909216D01*
X129381549Y-108798980D01*
X129381547Y-108798976D01*
X129291211Y-108663779D01*
X129291205Y-108663771D01*
X129176228Y-108548794D01*
X129176220Y-108548788D01*
X129041023Y-108458452D01*
X129010414Y-108445774D01*
X128956011Y-108401933D01*
X128933946Y-108335639D01*
X128951225Y-108267940D01*
X129002362Y-108220329D01*
X129010415Y-108216652D01*
X129071019Y-108191549D01*
X129071023Y-108191547D01*
X129138169Y-108146680D01*
X129206225Y-108101208D01*
X129321208Y-107986225D01*
X129411548Y-107851021D01*
X129473776Y-107700789D01*
X129490000Y-107619228D01*
X129505500Y-107541307D01*
X135614499Y-107541307D01*
X135646222Y-107700783D01*
X135646225Y-107700793D01*
X135708450Y-107851019D01*
X135708452Y-107851023D01*
X135798788Y-107986220D01*
X135798794Y-107986228D01*
X135913771Y-108101205D01*
X135913779Y-108101211D01*
X136048976Y-108191547D01*
X136048980Y-108191549D01*
X136132559Y-108226168D01*
X136199211Y-108253776D01*
X136199215Y-108253776D01*
X136199216Y-108253777D01*
X136358692Y-108285500D01*
X136358695Y-108285500D01*
X136521307Y-108285500D01*
X136628598Y-108264157D01*
X136680789Y-108253776D01*
X136780943Y-108212290D01*
X136831019Y-108191549D01*
X136831023Y-108191547D01*
X136898169Y-108146680D01*
X136966225Y-108101208D01*
X136966228Y-108101205D01*
X137006849Y-108060585D01*
X137081205Y-107986228D01*
X137081208Y-107986225D01*
X137171548Y-107851021D01*
X137233776Y-107700789D01*
X137250000Y-107619228D01*
X137265500Y-107541307D01*
X137265500Y-107378692D01*
X137233777Y-107219216D01*
X137233776Y-107219215D01*
X137233776Y-107219211D01*
X137171548Y-107068979D01*
X137171547Y-107068978D01*
X137171547Y-107068976D01*
X137081211Y-106933779D01*
X137081205Y-106933771D01*
X136966228Y-106818794D01*
X136966220Y-106818788D01*
X136831023Y-106728452D01*
X136831019Y-106728450D01*
X136680793Y-106666225D01*
X136680783Y-106666222D01*
X136521307Y-106634500D01*
X136521305Y-106634500D01*
X136358695Y-106634500D01*
X136358693Y-106634500D01*
X136199216Y-106666222D01*
X136199206Y-106666225D01*
X136048980Y-106728450D01*
X136048976Y-106728452D01*
X135913779Y-106818788D01*
X135913771Y-106818794D01*
X135798794Y-106933771D01*
X135798788Y-106933779D01*
X135708452Y-107068976D01*
X135708450Y-107068980D01*
X135646225Y-107219206D01*
X135646222Y-107219216D01*
X135614500Y-107378692D01*
X135614500Y-107378695D01*
X135614500Y-107541305D01*
X135614500Y-107541307D01*
X135614499Y-107541307D01*
X129505500Y-107541307D01*
X129505500Y-107378692D01*
X129473777Y-107219216D01*
X129473776Y-107219215D01*
X129473776Y-107219211D01*
X129434753Y-107125000D01*
X129411549Y-107068980D01*
X129411547Y-107068976D01*
X129321211Y-106933779D01*
X129321205Y-106933771D01*
X129206228Y-106818794D01*
X129206220Y-106818788D01*
X129071023Y-106728452D01*
X129071019Y-106728450D01*
X128920793Y-106666225D01*
X128920783Y-106666222D01*
X128761307Y-106634500D01*
X128761305Y-106634500D01*
X128598695Y-106634500D01*
X128598693Y-106634500D01*
X128439216Y-106666222D01*
X128439206Y-106666225D01*
X128288980Y-106728450D01*
X128288976Y-106728452D01*
X128153779Y-106818788D01*
X128153771Y-106818794D01*
X128038794Y-106933771D01*
X128038788Y-106933779D01*
X127948452Y-107068976D01*
X127948450Y-107068980D01*
X127886225Y-107219206D01*
X127886222Y-107219216D01*
X127854500Y-107378692D01*
X127854500Y-107378695D01*
X127854500Y-107541305D01*
X127854500Y-107541307D01*
X127854499Y-107541307D01*
X127886222Y-107700783D01*
X127886225Y-107700793D01*
X127948450Y-107851019D01*
X127948452Y-107851023D01*
X128038788Y-107986220D01*
X128038794Y-107986228D01*
X128153771Y-108101205D01*
X128153779Y-108101211D01*
X128288975Y-108191546D01*
X128288977Y-108191547D01*
X128288979Y-108191548D01*
X128319584Y-108204225D01*
X128373987Y-108248065D01*
X128396053Y-108314358D01*
X128378775Y-108382058D01*
X128327638Y-108429669D01*
X128319586Y-108433346D01*
X128258982Y-108458449D01*
X128258976Y-108458452D01*
X128123779Y-108548788D01*
X128123771Y-108548794D01*
X128008794Y-108663771D01*
X128008788Y-108663779D01*
X127918452Y-108798976D01*
X127918450Y-108798980D01*
X127856225Y-108949206D01*
X127856222Y-108949216D01*
X127824500Y-109108692D01*
X127824500Y-109108693D01*
X127824500Y-109108695D01*
X127824500Y-109271305D01*
X127824500Y-109271307D01*
X127824499Y-109271307D01*
X99080500Y-109271307D01*
X99080500Y-106613051D01*
X99100185Y-106546012D01*
X99152989Y-106500257D01*
X99222147Y-106490313D01*
X99285703Y-106519338D01*
X99304816Y-106540162D01*
X99333083Y-106579069D01*
X99359654Y-106615641D01*
X99479360Y-106735347D01*
X99479365Y-106735351D01*
X99571986Y-106802643D01*
X99616315Y-106834850D01*
X99712425Y-106883820D01*
X99767146Y-106911703D01*
X99767148Y-106911703D01*
X99767151Y-106911705D01*
X99853450Y-106939745D01*
X99928152Y-106964018D01*
X100095351Y-106990500D01*
X100095356Y-106990500D01*
X100914649Y-106990500D01*
X101081847Y-106964018D01*
X101093216Y-106960324D01*
X101242849Y-106911705D01*
X101393685Y-106834850D01*
X101530641Y-106735346D01*
X101650346Y-106615641D01*
X101749850Y-106478685D01*
X101826705Y-106327849D01*
X101879018Y-106166847D01*
X101896816Y-106054474D01*
X101905500Y-105999649D01*
X101905500Y-105830350D01*
X101879018Y-105663152D01*
X101854745Y-105588450D01*
X101826705Y-105502151D01*
X101826703Y-105502148D01*
X101826703Y-105502146D01*
X101798820Y-105447425D01*
X101749850Y-105351315D01*
X101711443Y-105298452D01*
X101650351Y-105214365D01*
X101650347Y-105214360D01*
X101530639Y-105094652D01*
X101530634Y-105094648D01*
X101393688Y-104995152D01*
X101393687Y-104995151D01*
X101393685Y-104995150D01*
X101337727Y-104966638D01*
X101242853Y-104918296D01*
X101081847Y-104865981D01*
X100914649Y-104839500D01*
X100914644Y-104839500D01*
X100095356Y-104839500D01*
X100095351Y-104839500D01*
X99928152Y-104865981D01*
X99767146Y-104918296D01*
X99616311Y-104995152D01*
X99479365Y-105094648D01*
X99479360Y-105094652D01*
X99359652Y-105214360D01*
X99359648Y-105214365D01*
X99304818Y-105289833D01*
X99249488Y-105332499D01*
X99179875Y-105338478D01*
X99118080Y-105305872D01*
X99083723Y-105245034D01*
X99080500Y-105216948D01*
X99080500Y-104451304D01*
X102354500Y-104451304D01*
X102354500Y-104628695D01*
X102389103Y-104802658D01*
X102389106Y-104802667D01*
X102456983Y-104966540D01*
X102456990Y-104966553D01*
X102555535Y-105114034D01*
X102555538Y-105114038D01*
X102680961Y-105239461D01*
X102680965Y-105239464D01*
X102792897Y-105314256D01*
X102837702Y-105367869D01*
X102846409Y-105437194D01*
X102841938Y-105455672D01*
X102834678Y-105478018D01*
X102834676Y-105478026D01*
X102804500Y-105668551D01*
X102804500Y-105861448D01*
X102834675Y-106051969D01*
X102834676Y-106051972D01*
X102894285Y-106235429D01*
X102981859Y-106407302D01*
X103095241Y-106563359D01*
X103231641Y-106699759D01*
X103387698Y-106813141D01*
X103559571Y-106900715D01*
X103743028Y-106960324D01*
X103933551Y-106990500D01*
X103933552Y-106990500D01*
X104676448Y-106990500D01*
X104676449Y-106990500D01*
X104866972Y-106960324D01*
X105050429Y-106900715D01*
X105222302Y-106813141D01*
X105378359Y-106699759D01*
X105514759Y-106563359D01*
X105628141Y-106407302D01*
X105715715Y-106235429D01*
X105756045Y-106111307D01*
X143304499Y-106111307D01*
X143336222Y-106270783D01*
X143336225Y-106270793D01*
X143398450Y-106421019D01*
X143398452Y-106421023D01*
X143488788Y-106556220D01*
X143488794Y-106556228D01*
X143603771Y-106671205D01*
X143603779Y-106671211D01*
X143738976Y-106761547D01*
X143738980Y-106761549D01*
X143877183Y-106818794D01*
X143889211Y-106823776D01*
X143889215Y-106823776D01*
X143889216Y-106823777D01*
X144048692Y-106855500D01*
X144048695Y-106855500D01*
X144211307Y-106855500D01*
X144318598Y-106834157D01*
X144370789Y-106823776D01*
X144521021Y-106761548D01*
X144521023Y-106761547D01*
X144613500Y-106699756D01*
X144656225Y-106671208D01*
X144771208Y-106556225D01*
X144861548Y-106421021D01*
X144923776Y-106270789D01*
X144955500Y-106111305D01*
X144955500Y-105948695D01*
X144955500Y-105948692D01*
X144923777Y-105789216D01*
X144923776Y-105789215D01*
X144923776Y-105789211D01*
X144917262Y-105773485D01*
X144861549Y-105638980D01*
X144861547Y-105638976D01*
X144771211Y-105503779D01*
X144771205Y-105503771D01*
X144656228Y-105388794D01*
X144656220Y-105388788D01*
X144521023Y-105298452D01*
X144521019Y-105298450D01*
X144370793Y-105236225D01*
X144370783Y-105236222D01*
X144211307Y-105204500D01*
X144211305Y-105204500D01*
X144048695Y-105204500D01*
X144048693Y-105204500D01*
X143889216Y-105236222D01*
X143889206Y-105236225D01*
X143738980Y-105298450D01*
X143738976Y-105298452D01*
X143603779Y-105388788D01*
X143603771Y-105388794D01*
X143488794Y-105503771D01*
X143488788Y-105503779D01*
X143398452Y-105638976D01*
X143398450Y-105638980D01*
X143336225Y-105789206D01*
X143336222Y-105789216D01*
X143304500Y-105948692D01*
X143304500Y-105948695D01*
X143304500Y-106111305D01*
X143304500Y-106111307D01*
X143304499Y-106111307D01*
X105756045Y-106111307D01*
X105775324Y-106051972D01*
X105794353Y-105931827D01*
X105795719Y-105923205D01*
X105795719Y-105923204D01*
X105805500Y-105861449D01*
X105805500Y-105668551D01*
X105796430Y-105611285D01*
X105775324Y-105478028D01*
X105715715Y-105294571D01*
X105628141Y-105122698D01*
X105514759Y-104966641D01*
X105378359Y-104830241D01*
X105222302Y-104716859D01*
X105050429Y-104629285D01*
X104866972Y-104569676D01*
X104866970Y-104569675D01*
X104866969Y-104569675D01*
X104719767Y-104546361D01*
X104676449Y-104539500D01*
X104676448Y-104539500D01*
X104274807Y-104539500D01*
X104207768Y-104519815D01*
X104162013Y-104467011D01*
X104153190Y-104439692D01*
X104120895Y-104277340D01*
X104120894Y-104277334D01*
X104073800Y-104163637D01*
X104053016Y-104113459D01*
X104053009Y-104113446D01*
X103954464Y-103965965D01*
X103954461Y-103965961D01*
X103829038Y-103840538D01*
X103829034Y-103840535D01*
X103681553Y-103741990D01*
X103681540Y-103741983D01*
X103517667Y-103674106D01*
X103517658Y-103674103D01*
X103343694Y-103639500D01*
X103343691Y-103639500D01*
X103166309Y-103639500D01*
X103166306Y-103639500D01*
X102992341Y-103674103D01*
X102992332Y-103674106D01*
X102828459Y-103741983D01*
X102828446Y-103741990D01*
X102680965Y-103840535D01*
X102680961Y-103840538D01*
X102555538Y-103965961D01*
X102555535Y-103965965D01*
X102456990Y-104113446D01*
X102456983Y-104113459D01*
X102389106Y-104277332D01*
X102389103Y-104277341D01*
X102354500Y-104451304D01*
X99080500Y-104451304D01*
X99080500Y-102941307D01*
X126434499Y-102941307D01*
X126466222Y-103100783D01*
X126466225Y-103100793D01*
X126528450Y-103251019D01*
X126528452Y-103251023D01*
X126618788Y-103386220D01*
X126618794Y-103386228D01*
X126733771Y-103501205D01*
X126733779Y-103501211D01*
X126868976Y-103591547D01*
X126868980Y-103591549D01*
X126998166Y-103645059D01*
X127019211Y-103653776D01*
X127019215Y-103653776D01*
X127019216Y-103653777D01*
X127178692Y-103685500D01*
X127178695Y-103685500D01*
X127341307Y-103685500D01*
X127448598Y-103664157D01*
X127500789Y-103653776D01*
X127651021Y-103591548D01*
X127651023Y-103591547D01*
X127764201Y-103515924D01*
X127786225Y-103501208D01*
X127901208Y-103386225D01*
X127946680Y-103318169D01*
X127991547Y-103251023D01*
X127991549Y-103251019D01*
X128053774Y-103100793D01*
X128053776Y-103100789D01*
X128072506Y-103006630D01*
X128085500Y-102941307D01*
X128085500Y-102778692D01*
X128053777Y-102619216D01*
X128053776Y-102619215D01*
X128053776Y-102619211D01*
X128032329Y-102567433D01*
X127991549Y-102468980D01*
X127991547Y-102468976D01*
X127901211Y-102333779D01*
X127901205Y-102333771D01*
X127786228Y-102218794D01*
X127786220Y-102218788D01*
X127651023Y-102128452D01*
X127651019Y-102128450D01*
X127500793Y-102066225D01*
X127500783Y-102066222D01*
X127341307Y-102034500D01*
X127341305Y-102034500D01*
X127178695Y-102034500D01*
X127178693Y-102034500D01*
X127019216Y-102066222D01*
X127019206Y-102066225D01*
X126868980Y-102128450D01*
X126868976Y-102128452D01*
X126733779Y-102218788D01*
X126733771Y-102218794D01*
X126618794Y-102333771D01*
X126618788Y-102333779D01*
X126528452Y-102468976D01*
X126528450Y-102468980D01*
X126466225Y-102619206D01*
X126466222Y-102619216D01*
X126434500Y-102778692D01*
X126434500Y-102778695D01*
X126434500Y-102941305D01*
X126434500Y-102941307D01*
X126434499Y-102941307D01*
X99080500Y-102941307D01*
X99080500Y-99451304D01*
X102354500Y-99451304D01*
X102354500Y-99628695D01*
X102389103Y-99802658D01*
X102389106Y-99802667D01*
X102456983Y-99966540D01*
X102456990Y-99966553D01*
X102555535Y-100114034D01*
X102555538Y-100114038D01*
X102680961Y-100239461D01*
X102680965Y-100239464D01*
X102828446Y-100338009D01*
X102828459Y-100338016D01*
X102951363Y-100388923D01*
X102992334Y-100405894D01*
X102992336Y-100405894D01*
X102992341Y-100405896D01*
X103166304Y-100440499D01*
X103166307Y-100440500D01*
X103166309Y-100440500D01*
X103343693Y-100440500D01*
X103343694Y-100440499D01*
X103401682Y-100428964D01*
X103517658Y-100405896D01*
X103517661Y-100405894D01*
X103517666Y-100405894D01*
X103681547Y-100338013D01*
X103829035Y-100239464D01*
X103954464Y-100114035D01*
X104053013Y-99966547D01*
X104120894Y-99802666D01*
X104131706Y-99748307D01*
X104153190Y-99640308D01*
X104185575Y-99578397D01*
X104246291Y-99543823D01*
X104274807Y-99540500D01*
X104676448Y-99540500D01*
X104676449Y-99540500D01*
X104866972Y-99510324D01*
X105050429Y-99450715D01*
X105222302Y-99363141D01*
X105378359Y-99249759D01*
X105514759Y-99113359D01*
X105628141Y-98957302D01*
X105715715Y-98785429D01*
X105775324Y-98601972D01*
X105805500Y-98411449D01*
X105805500Y-98311307D01*
X139704499Y-98311307D01*
X139736222Y-98470783D01*
X139736225Y-98470793D01*
X139798450Y-98621019D01*
X139798452Y-98621023D01*
X139888788Y-98756220D01*
X139888794Y-98756228D01*
X140003771Y-98871205D01*
X140003779Y-98871211D01*
X140138976Y-98961547D01*
X140138980Y-98961549D01*
X140247172Y-99006363D01*
X140289211Y-99023776D01*
X140289215Y-99023776D01*
X140289216Y-99023777D01*
X140448692Y-99055500D01*
X140448695Y-99055500D01*
X140611307Y-99055500D01*
X140718598Y-99034157D01*
X140770789Y-99023776D01*
X140870943Y-98982290D01*
X140921019Y-98961549D01*
X140921023Y-98961547D01*
X141001844Y-98907544D01*
X141056225Y-98871208D01*
X141171208Y-98756225D01*
X141228298Y-98670783D01*
X141261547Y-98621023D01*
X141261549Y-98621019D01*
X141282290Y-98570943D01*
X141306993Y-98511307D01*
X155694499Y-98511307D01*
X155726222Y-98670783D01*
X155726225Y-98670793D01*
X155788450Y-98821019D01*
X155788452Y-98821023D01*
X155878788Y-98956220D01*
X155878794Y-98956228D01*
X155993771Y-99071205D01*
X155993779Y-99071211D01*
X156128976Y-99161547D01*
X156128980Y-99161549D01*
X156279206Y-99223774D01*
X156279211Y-99223776D01*
X156279215Y-99223776D01*
X156279216Y-99223777D01*
X156438692Y-99255500D01*
X156438695Y-99255500D01*
X156601307Y-99255500D01*
X156708598Y-99234157D01*
X156760789Y-99223776D01*
X156911021Y-99161548D01*
X156911023Y-99161547D01*
X156983141Y-99113359D01*
X157046225Y-99071208D01*
X157161208Y-98956225D01*
X157251548Y-98821021D01*
X157313776Y-98670789D01*
X157341464Y-98531597D01*
X157345500Y-98511307D01*
X157345500Y-98348692D01*
X157313777Y-98189216D01*
X157313776Y-98189215D01*
X157313776Y-98189211D01*
X157293366Y-98139937D01*
X157251549Y-98038980D01*
X157251547Y-98038976D01*
X157161211Y-97903779D01*
X157161205Y-97903771D01*
X157046228Y-97788794D01*
X157046220Y-97788788D01*
X156911023Y-97698452D01*
X156911019Y-97698450D01*
X156760793Y-97636225D01*
X156760783Y-97636222D01*
X156601307Y-97604500D01*
X156601305Y-97604500D01*
X156438695Y-97604500D01*
X156438693Y-97604500D01*
X156279216Y-97636222D01*
X156279206Y-97636225D01*
X156128980Y-97698450D01*
X156128976Y-97698452D01*
X155993779Y-97788788D01*
X155993771Y-97788794D01*
X155878794Y-97903771D01*
X155878788Y-97903779D01*
X155788452Y-98038976D01*
X155788450Y-98038980D01*
X155726225Y-98189206D01*
X155726222Y-98189216D01*
X155694500Y-98348692D01*
X155694500Y-98348695D01*
X155694500Y-98511305D01*
X155694500Y-98511307D01*
X155694499Y-98511307D01*
X141306993Y-98511307D01*
X141323776Y-98470789D01*
X141353655Y-98320582D01*
X141354087Y-98318411D01*
X141354087Y-98318410D01*
X141355499Y-98311309D01*
X141355500Y-98311307D01*
X141355500Y-98148692D01*
X141323777Y-97989216D01*
X141323776Y-97989215D01*
X141323776Y-97989211D01*
X141292272Y-97913153D01*
X141261549Y-97838980D01*
X141261547Y-97838976D01*
X141171211Y-97703779D01*
X141171205Y-97703771D01*
X141056228Y-97588794D01*
X141056220Y-97588788D01*
X140921023Y-97498452D01*
X140921019Y-97498450D01*
X140770793Y-97436225D01*
X140770783Y-97436222D01*
X140611307Y-97404500D01*
X140611305Y-97404500D01*
X140448695Y-97404500D01*
X140448693Y-97404500D01*
X140289216Y-97436222D01*
X140289206Y-97436225D01*
X140138980Y-97498450D01*
X140138976Y-97498452D01*
X140003779Y-97588788D01*
X140003771Y-97588794D01*
X139888794Y-97703771D01*
X139888788Y-97703779D01*
X139798452Y-97838976D01*
X139798450Y-97838980D01*
X139736225Y-97989206D01*
X139736222Y-97989216D01*
X139704500Y-98148692D01*
X139704500Y-98148695D01*
X139704500Y-98311305D01*
X139704500Y-98311307D01*
X139704499Y-98311307D01*
X105805500Y-98311307D01*
X105805500Y-98218551D01*
X105775324Y-98028028D01*
X105715715Y-97844571D01*
X105628141Y-97672698D01*
X105514759Y-97516641D01*
X105378359Y-97380241D01*
X105222302Y-97266859D01*
X105050429Y-97179285D01*
X104866972Y-97119676D01*
X104866970Y-97119675D01*
X104866969Y-97119675D01*
X104720614Y-97096495D01*
X104676449Y-97089500D01*
X103933551Y-97089500D01*
X103897697Y-97095178D01*
X103743030Y-97119675D01*
X103559568Y-97179286D01*
X103387697Y-97266859D01*
X103340287Y-97301305D01*
X103231641Y-97380241D01*
X103231639Y-97380243D01*
X103231638Y-97380243D01*
X103095243Y-97516638D01*
X103095243Y-97516639D01*
X103095241Y-97516641D01*
X103052892Y-97574930D01*
X102981859Y-97672697D01*
X102894286Y-97844568D01*
X102834675Y-98028030D01*
X102815564Y-98148695D01*
X102804500Y-98218551D01*
X102804500Y-98411449D01*
X102834676Y-98601972D01*
X102840866Y-98621023D01*
X102841939Y-98624325D01*
X102843933Y-98694167D01*
X102807851Y-98753999D01*
X102792899Y-98765743D01*
X102680961Y-98840538D01*
X102555538Y-98965961D01*
X102555535Y-98965965D01*
X102456990Y-99113446D01*
X102456983Y-99113459D01*
X102389106Y-99277332D01*
X102389103Y-99277341D01*
X102354500Y-99451304D01*
X99080500Y-99451304D01*
X99080500Y-98863051D01*
X99100185Y-98796012D01*
X99152989Y-98750257D01*
X99222147Y-98740313D01*
X99285703Y-98769338D01*
X99304816Y-98790162D01*
X99357772Y-98863051D01*
X99359654Y-98865641D01*
X99479360Y-98985347D01*
X99479365Y-98985351D01*
X99575918Y-99055500D01*
X99616315Y-99084850D01*
X99712425Y-99133820D01*
X99767146Y-99161703D01*
X99767148Y-99161703D01*
X99767151Y-99161705D01*
X99853450Y-99189745D01*
X99928152Y-99214018D01*
X100095351Y-99240500D01*
X100095356Y-99240500D01*
X100914649Y-99240500D01*
X101081847Y-99214018D01*
X101242849Y-99161705D01*
X101393685Y-99084850D01*
X101530641Y-98985346D01*
X101650346Y-98865641D01*
X101749850Y-98728685D01*
X101826705Y-98577849D01*
X101879018Y-98416847D01*
X101894265Y-98320580D01*
X101905500Y-98249649D01*
X101905500Y-98080350D01*
X101879018Y-97913152D01*
X101826703Y-97752146D01*
X101798820Y-97697425D01*
X101749850Y-97601315D01*
X101730680Y-97574930D01*
X101650351Y-97464365D01*
X101650347Y-97464360D01*
X101530639Y-97344652D01*
X101530634Y-97344648D01*
X101393688Y-97245152D01*
X101393687Y-97245151D01*
X101393685Y-97245150D01*
X101332112Y-97213777D01*
X101242853Y-97168296D01*
X101081847Y-97115981D01*
X100914649Y-97089500D01*
X100914644Y-97089500D01*
X100095356Y-97089500D01*
X100095351Y-97089500D01*
X99928152Y-97115981D01*
X99767146Y-97168296D01*
X99616311Y-97245152D01*
X99479365Y-97344648D01*
X99479360Y-97344652D01*
X99359652Y-97464360D01*
X99359648Y-97464365D01*
X99304818Y-97539833D01*
X99249488Y-97582499D01*
X99179875Y-97588478D01*
X99118080Y-97555872D01*
X99083723Y-97495034D01*
X99080500Y-97466948D01*
X99080500Y-95631307D01*
X124059499Y-95631307D01*
X124091222Y-95790783D01*
X124091225Y-95790793D01*
X124153450Y-95941019D01*
X124153452Y-95941023D01*
X124243788Y-96076220D01*
X124243794Y-96076228D01*
X124358771Y-96191205D01*
X124358775Y-96191208D01*
X124373661Y-96201155D01*
X124418466Y-96254768D01*
X124427173Y-96324093D01*
X124419333Y-96351705D01*
X124416224Y-96359210D01*
X124416222Y-96359217D01*
X124384500Y-96518692D01*
X124384500Y-96518695D01*
X124384500Y-96681305D01*
X124384500Y-96681307D01*
X124384499Y-96681307D01*
X124416222Y-96840783D01*
X124416225Y-96840793D01*
X124478450Y-96991019D01*
X124478452Y-96991023D01*
X124568788Y-97126220D01*
X124568794Y-97126228D01*
X124683771Y-97241205D01*
X124683779Y-97241211D01*
X124818976Y-97331547D01*
X124818980Y-97331549D01*
X124936539Y-97380243D01*
X124969211Y-97393776D01*
X124969215Y-97393776D01*
X124969216Y-97393777D01*
X125128692Y-97425500D01*
X125128695Y-97425500D01*
X125291307Y-97425500D01*
X125407997Y-97402288D01*
X125450789Y-97393776D01*
X125550943Y-97352290D01*
X125601019Y-97331549D01*
X125601023Y-97331547D01*
X125646280Y-97301307D01*
X136874499Y-97301307D01*
X136906222Y-97460783D01*
X136906225Y-97460793D01*
X136968450Y-97611019D01*
X136968452Y-97611023D01*
X137058788Y-97746220D01*
X137058794Y-97746228D01*
X137173771Y-97861205D01*
X137173779Y-97861211D01*
X137308976Y-97951547D01*
X137308980Y-97951549D01*
X137459206Y-98013774D01*
X137459211Y-98013776D01*
X137459215Y-98013776D01*
X137459216Y-98013777D01*
X137618692Y-98045500D01*
X137618695Y-98045500D01*
X137781307Y-98045500D01*
X137904544Y-98020986D01*
X137925694Y-98016778D01*
X137940789Y-98013776D01*
X138091021Y-97951548D01*
X138091023Y-97951547D01*
X138162525Y-97903771D01*
X138226225Y-97861208D01*
X138341208Y-97746225D01*
X138390338Y-97672697D01*
X138431547Y-97611023D01*
X138431549Y-97611019D01*
X138461035Y-97539833D01*
X138493776Y-97460789D01*
X138516878Y-97344652D01*
X138525500Y-97301307D01*
X138525500Y-97138692D01*
X138493777Y-96979216D01*
X138493776Y-96979215D01*
X138493776Y-96979211D01*
X138477527Y-96939982D01*
X138431549Y-96828980D01*
X138431547Y-96828976D01*
X138341211Y-96693779D01*
X138341205Y-96693771D01*
X138226228Y-96578794D01*
X138226220Y-96578788D01*
X138091023Y-96488452D01*
X138091019Y-96488450D01*
X138049632Y-96471307D01*
X141124499Y-96471307D01*
X141156222Y-96630783D01*
X141156225Y-96630793D01*
X141218450Y-96781019D01*
X141218452Y-96781023D01*
X141308788Y-96916220D01*
X141308794Y-96916228D01*
X141423771Y-97031205D01*
X141423779Y-97031211D01*
X141558976Y-97121547D01*
X141558980Y-97121549D01*
X141698371Y-97179286D01*
X141709211Y-97183776D01*
X141709215Y-97183776D01*
X141709216Y-97183777D01*
X141868692Y-97215500D01*
X141868695Y-97215500D01*
X142031307Y-97215500D01*
X142159283Y-97190043D01*
X142190789Y-97183776D01*
X142324501Y-97128391D01*
X142341019Y-97121549D01*
X142341023Y-97121547D01*
X142431322Y-97061211D01*
X142476225Y-97031208D01*
X142591208Y-96916225D01*
X142641610Y-96840793D01*
X142681547Y-96781023D01*
X142681549Y-96781019D01*
X142722851Y-96681307D01*
X142743776Y-96630789D01*
X142745398Y-96622631D01*
X142777782Y-96560721D01*
X142838498Y-96526146D01*
X142908267Y-96529885D01*
X142964940Y-96570750D01*
X142988633Y-96622630D01*
X142996222Y-96660783D01*
X142996225Y-96660793D01*
X143058450Y-96811019D01*
X143058452Y-96811023D01*
X143148788Y-96946220D01*
X143148794Y-96946228D01*
X143263771Y-97061205D01*
X143263779Y-97061211D01*
X143398976Y-97151547D01*
X143398980Y-97151549D01*
X143549206Y-97213774D01*
X143549211Y-97213776D01*
X143549215Y-97213776D01*
X143549216Y-97213777D01*
X143708692Y-97245500D01*
X143708695Y-97245500D01*
X143871307Y-97245500D01*
X143978598Y-97224157D01*
X144030789Y-97213776D01*
X144181021Y-97151548D01*
X144181023Y-97151547D01*
X144273883Y-97089500D01*
X144316225Y-97061208D01*
X144431208Y-96946225D01*
X144521548Y-96811021D01*
X144583776Y-96660789D01*
X144612041Y-96518695D01*
X144615500Y-96501307D01*
X144615500Y-96338692D01*
X144583777Y-96179216D01*
X144583776Y-96179215D01*
X144583776Y-96179211D01*
X144583774Y-96179206D01*
X144521549Y-96028980D01*
X144521547Y-96028976D01*
X144431211Y-95893779D01*
X144431205Y-95893771D01*
X144316228Y-95778794D01*
X144316220Y-95778788D01*
X144181023Y-95688452D01*
X144181019Y-95688450D01*
X144030793Y-95626225D01*
X144030783Y-95626222D01*
X143871307Y-95594500D01*
X143871305Y-95594500D01*
X143708695Y-95594500D01*
X143708693Y-95594500D01*
X143549216Y-95626222D01*
X143549206Y-95626225D01*
X143398980Y-95688450D01*
X143398976Y-95688452D01*
X143263779Y-95778788D01*
X143263771Y-95778794D01*
X143148794Y-95893771D01*
X143148788Y-95893779D01*
X143058452Y-96028976D01*
X143058450Y-96028980D01*
X142996225Y-96179206D01*
X142996222Y-96179216D01*
X142994599Y-96187376D01*
X142962210Y-96249285D01*
X142901492Y-96283855D01*
X142831722Y-96280111D01*
X142775053Y-96239241D01*
X142751366Y-96187370D01*
X142743776Y-96149211D01*
X142713546Y-96076228D01*
X142681549Y-95998980D01*
X142681547Y-95998976D01*
X142591211Y-95863779D01*
X142591205Y-95863771D01*
X142476228Y-95748794D01*
X142476220Y-95748788D01*
X142341023Y-95658452D01*
X142341019Y-95658450D01*
X142190793Y-95596225D01*
X142190783Y-95596222D01*
X142031307Y-95564500D01*
X142031305Y-95564500D01*
X141868695Y-95564500D01*
X141868693Y-95564500D01*
X141709216Y-95596222D01*
X141709206Y-95596225D01*
X141558980Y-95658450D01*
X141558976Y-95658452D01*
X141423779Y-95748788D01*
X141423771Y-95748794D01*
X141308794Y-95863771D01*
X141308788Y-95863779D01*
X141218452Y-95998976D01*
X141218450Y-95998980D01*
X141156225Y-96149206D01*
X141156222Y-96149216D01*
X141124500Y-96308692D01*
X141124500Y-96308695D01*
X141124500Y-96471305D01*
X141124500Y-96471307D01*
X141124499Y-96471307D01*
X138049632Y-96471307D01*
X137940793Y-96426225D01*
X137940783Y-96426222D01*
X137930716Y-96424220D01*
X137781307Y-96394500D01*
X137781305Y-96394500D01*
X137618695Y-96394500D01*
X137618693Y-96394500D01*
X137459216Y-96426222D01*
X137459206Y-96426225D01*
X137308980Y-96488450D01*
X137308976Y-96488452D01*
X137173779Y-96578788D01*
X137173771Y-96578794D01*
X137058794Y-96693771D01*
X137058788Y-96693779D01*
X136968452Y-96828976D01*
X136968450Y-96828980D01*
X136906225Y-96979206D01*
X136906222Y-96979216D01*
X136874500Y-97138692D01*
X136874500Y-97138695D01*
X136874500Y-97301305D01*
X136874500Y-97301307D01*
X136874499Y-97301307D01*
X125646280Y-97301307D01*
X125697835Y-97266859D01*
X125736225Y-97241208D01*
X125851208Y-97126225D01*
X125941548Y-96991021D01*
X126003776Y-96840789D01*
X126020853Y-96754941D01*
X126035500Y-96681307D01*
X126035500Y-96518692D01*
X126003777Y-96359216D01*
X126003776Y-96359215D01*
X126003776Y-96359211D01*
X125982852Y-96308695D01*
X125941549Y-96208980D01*
X125941547Y-96208976D01*
X125851211Y-96073779D01*
X125851205Y-96073771D01*
X125736228Y-95958794D01*
X125736223Y-95958790D01*
X125721340Y-95948846D01*
X125676534Y-95895235D01*
X125667825Y-95825910D01*
X125675666Y-95798295D01*
X125678776Y-95790789D01*
X125705100Y-95658452D01*
X125710500Y-95631307D01*
X125710500Y-95468692D01*
X125678777Y-95309216D01*
X125678776Y-95309215D01*
X125678776Y-95309211D01*
X125655807Y-95253758D01*
X125637531Y-95209635D01*
X158392000Y-95209635D01*
X158392000Y-96880370D01*
X158392001Y-96880376D01*
X158398408Y-96939983D01*
X158448702Y-97074828D01*
X158448706Y-97074835D01*
X158534952Y-97190044D01*
X158534955Y-97190047D01*
X158650164Y-97276293D01*
X158650171Y-97276297D01*
X158785017Y-97326591D01*
X158785016Y-97326591D01*
X158791944Y-97327335D01*
X158844627Y-97333000D01*
X159290168Y-97332999D01*
X159357205Y-97352683D01*
X159402960Y-97405487D01*
X159412904Y-97474646D01*
X159383879Y-97538202D01*
X159328484Y-97574930D01*
X159185582Y-97621361D01*
X159185579Y-97621362D01*
X159004937Y-97713405D01*
X158840930Y-97832562D01*
X158840925Y-97832566D01*
X158697566Y-97975925D01*
X158697562Y-97975930D01*
X158578405Y-98139937D01*
X158486362Y-98320579D01*
X158486361Y-98320582D01*
X158423715Y-98513391D01*
X158396331Y-98686285D01*
X158392000Y-98713632D01*
X158392000Y-98916368D01*
X158402925Y-98985346D01*
X158423715Y-99116608D01*
X158486361Y-99309417D01*
X158486362Y-99309420D01*
X158513735Y-99363141D01*
X158558656Y-99451304D01*
X158578405Y-99490062D01*
X158697562Y-99654069D01*
X158697566Y-99654074D01*
X158840925Y-99797433D01*
X158840930Y-99797437D01*
X158979885Y-99898393D01*
X159004941Y-99916597D01*
X159123026Y-99976764D01*
X159185579Y-100008637D01*
X159185582Y-100008638D01*
X159281986Y-100039961D01*
X159378393Y-100071285D01*
X159409699Y-100076243D01*
X159417802Y-100077527D01*
X159480937Y-100107456D01*
X159517868Y-100166768D01*
X159516870Y-100236630D01*
X159478260Y-100294863D01*
X159417802Y-100322473D01*
X159378391Y-100328715D01*
X159185582Y-100391361D01*
X159185579Y-100391362D01*
X159004937Y-100483405D01*
X158840930Y-100602562D01*
X158840925Y-100602566D01*
X158697566Y-100745925D01*
X158697562Y-100745930D01*
X158578405Y-100909937D01*
X158486362Y-101090579D01*
X158486361Y-101090582D01*
X158423715Y-101283391D01*
X158392000Y-101483632D01*
X158392000Y-101686367D01*
X158423715Y-101886608D01*
X158486361Y-102079417D01*
X158486362Y-102079420D01*
X158548915Y-102202186D01*
X158557377Y-102218794D01*
X158578405Y-102260062D01*
X158697562Y-102424069D01*
X158697566Y-102424074D01*
X158840925Y-102567433D01*
X158840930Y-102567437D01*
X158979885Y-102668393D01*
X159004941Y-102686597D01*
X159123026Y-102746764D01*
X159185579Y-102778637D01*
X159185582Y-102778638D01*
X159281986Y-102809961D01*
X159378393Y-102841285D01*
X159409699Y-102846243D01*
X159417802Y-102847527D01*
X159480937Y-102877456D01*
X159517868Y-102936768D01*
X159516870Y-103006630D01*
X159478260Y-103064863D01*
X159417802Y-103092473D01*
X159378391Y-103098715D01*
X159185582Y-103161361D01*
X159185579Y-103161362D01*
X159004937Y-103253405D01*
X158840930Y-103372562D01*
X158840925Y-103372566D01*
X158697566Y-103515925D01*
X158697562Y-103515930D01*
X158578405Y-103679937D01*
X158486362Y-103860579D01*
X158486361Y-103860582D01*
X158423715Y-104053391D01*
X158392000Y-104253632D01*
X158392000Y-104456367D01*
X158423715Y-104656608D01*
X158486361Y-104849417D01*
X158486362Y-104849420D01*
X158578405Y-105030062D01*
X158697562Y-105194069D01*
X158697566Y-105194074D01*
X158840925Y-105337433D01*
X158840930Y-105337437D01*
X158979885Y-105438393D01*
X159004941Y-105456597D01*
X159097541Y-105503779D01*
X159185579Y-105548637D01*
X159185582Y-105548638D01*
X159378392Y-105611285D01*
X159419400Y-105617780D01*
X159482535Y-105647709D01*
X159519467Y-105707020D01*
X159518469Y-105776883D01*
X159479860Y-105835116D01*
X159419402Y-105862726D01*
X159378508Y-105869203D01*
X159185774Y-105931825D01*
X159185771Y-105931826D01*
X159005204Y-106023830D01*
X158963027Y-106054473D01*
X159530178Y-106621624D01*
X159477358Y-106635778D01*
X159357643Y-106704896D01*
X159259896Y-106802643D01*
X159190778Y-106922358D01*
X159176624Y-106975178D01*
X158609473Y-106408027D01*
X158578830Y-106450204D01*
X158486826Y-106630771D01*
X158486825Y-106630774D01*
X158424203Y-106823508D01*
X158392500Y-107023672D01*
X158392500Y-107226327D01*
X158424203Y-107426491D01*
X158486825Y-107619225D01*
X158486827Y-107619228D01*
X158578831Y-107799797D01*
X158609473Y-107841971D01*
X158609474Y-107841972D01*
X159176624Y-107274821D01*
X159190778Y-107327642D01*
X159259896Y-107447357D01*
X159357643Y-107545104D01*
X159477358Y-107614222D01*
X159530178Y-107628375D01*
X158963026Y-108195525D01*
X159005202Y-108226168D01*
X159185771Y-108318172D01*
X159185774Y-108318174D01*
X159378508Y-108380796D01*
X159578673Y-108412500D01*
X159781327Y-108412500D01*
X159981491Y-108380796D01*
X160174225Y-108318174D01*
X160174228Y-108318172D01*
X160354797Y-108226168D01*
X160396971Y-108195526D01*
X160396971Y-108195525D01*
X159829821Y-107628375D01*
X159882642Y-107614222D01*
X160002357Y-107545104D01*
X160100104Y-107447357D01*
X160169222Y-107327642D01*
X160183375Y-107274821D01*
X160750525Y-107841971D01*
X160750526Y-107841971D01*
X160781168Y-107799797D01*
X160873172Y-107619228D01*
X160873174Y-107619225D01*
X160935796Y-107426491D01*
X160967500Y-107226327D01*
X160967500Y-107023672D01*
X160935796Y-106823508D01*
X160873174Y-106630774D01*
X160873172Y-106630771D01*
X160781168Y-106450202D01*
X160750525Y-106408027D01*
X160750525Y-106408026D01*
X160183375Y-106975177D01*
X160169222Y-106922358D01*
X160100104Y-106802643D01*
X160002357Y-106704896D01*
X159882642Y-106635778D01*
X159829822Y-106621624D01*
X160396972Y-106054474D01*
X160396971Y-106054473D01*
X160354797Y-106023831D01*
X160174228Y-105931827D01*
X160174225Y-105931825D01*
X159981490Y-105869202D01*
X159940598Y-105862726D01*
X159877463Y-105832797D01*
X159840532Y-105773485D01*
X159841530Y-105703622D01*
X159880140Y-105645390D01*
X159940598Y-105617780D01*
X159981607Y-105611285D01*
X160174420Y-105548637D01*
X160355059Y-105456597D01*
X160519076Y-105337432D01*
X160662432Y-105194076D01*
X160781597Y-105030059D01*
X160873637Y-104849420D01*
X160936285Y-104656607D01*
X160968000Y-104456368D01*
X160968000Y-104253632D01*
X160936285Y-104053393D01*
X160903483Y-103952437D01*
X160873638Y-103860582D01*
X160873637Y-103860579D01*
X160813211Y-103741987D01*
X160781597Y-103679941D01*
X160717375Y-103591547D01*
X160662437Y-103515930D01*
X160662433Y-103515925D01*
X160519074Y-103372566D01*
X160519069Y-103372562D01*
X160355062Y-103253405D01*
X160355061Y-103253404D01*
X160355059Y-103253403D01*
X160297186Y-103223915D01*
X160174420Y-103161362D01*
X160174417Y-103161361D01*
X159981608Y-103098715D01*
X159942197Y-103092473D01*
X159879063Y-103062544D01*
X159842131Y-103003233D01*
X159843129Y-102933370D01*
X159881739Y-102875137D01*
X159942197Y-102847527D01*
X159943041Y-102847393D01*
X159981607Y-102841285D01*
X160167464Y-102780896D01*
X160174417Y-102778638D01*
X160174420Y-102778637D01*
X160355059Y-102686597D01*
X160519076Y-102567432D01*
X160662432Y-102424076D01*
X160781597Y-102260059D01*
X160873637Y-102079420D01*
X160936285Y-101886607D01*
X160968000Y-101686368D01*
X160968000Y-101483632D01*
X160936285Y-101283393D01*
X160903483Y-101182437D01*
X160873638Y-101090582D01*
X160873637Y-101090579D01*
X160841764Y-101028026D01*
X160781597Y-100909941D01*
X160756254Y-100875059D01*
X160662437Y-100745930D01*
X160662433Y-100745925D01*
X160519074Y-100602566D01*
X160519069Y-100602562D01*
X160355062Y-100483405D01*
X160355061Y-100483404D01*
X160355059Y-100483403D01*
X160270855Y-100440499D01*
X160174420Y-100391362D01*
X160174417Y-100391361D01*
X159981608Y-100328715D01*
X159942197Y-100322473D01*
X159879063Y-100292544D01*
X159842131Y-100233233D01*
X159843129Y-100163370D01*
X159881739Y-100105137D01*
X159942197Y-100077527D01*
X159943041Y-100077393D01*
X159981607Y-100071285D01*
X160174420Y-100008637D01*
X160355059Y-99916597D01*
X160519076Y-99797432D01*
X160662432Y-99654076D01*
X160781597Y-99490059D01*
X160873637Y-99309420D01*
X160936285Y-99116607D01*
X160968000Y-98916368D01*
X160968000Y-98713632D01*
X160936285Y-98513393D01*
X160903483Y-98412437D01*
X160873638Y-98320582D01*
X160873637Y-98320579D01*
X160837493Y-98249644D01*
X160781597Y-98139941D01*
X160708242Y-98038976D01*
X160662437Y-97975930D01*
X160662433Y-97975925D01*
X160519074Y-97832566D01*
X160519069Y-97832562D01*
X160355062Y-97713405D01*
X160355061Y-97713404D01*
X160355059Y-97713403D01*
X160275169Y-97672697D01*
X160174420Y-97621362D01*
X160174417Y-97621361D01*
X160031514Y-97574930D01*
X159973839Y-97535493D01*
X159946640Y-97471134D01*
X159958554Y-97402288D01*
X160005799Y-97350812D01*
X160069831Y-97332999D01*
X160515372Y-97332999D01*
X160555996Y-97328632D01*
X161232000Y-97328632D01*
X161232000Y-97531368D01*
X161243078Y-97601311D01*
X161263715Y-97731608D01*
X161326361Y-97924417D01*
X161326362Y-97924420D01*
X161418405Y-98105062D01*
X161537562Y-98269069D01*
X161537566Y-98269074D01*
X161680925Y-98412433D01*
X161680930Y-98412437D01*
X161819885Y-98513393D01*
X161844941Y-98531597D01*
X161935716Y-98577849D01*
X162025579Y-98623637D01*
X162025582Y-98623638D01*
X162121986Y-98654961D01*
X162218393Y-98686285D01*
X162249699Y-98691243D01*
X162257802Y-98692527D01*
X162320937Y-98722456D01*
X162357868Y-98781768D01*
X162356870Y-98851630D01*
X162318260Y-98909863D01*
X162257802Y-98937473D01*
X162218391Y-98943715D01*
X162025582Y-99006361D01*
X162025579Y-99006362D01*
X161844937Y-99098405D01*
X161680930Y-99217562D01*
X161680925Y-99217566D01*
X161537566Y-99360925D01*
X161537563Y-99360929D01*
X161418405Y-99524937D01*
X161326362Y-99705579D01*
X161326361Y-99705582D01*
X161263715Y-99898391D01*
X161236331Y-100071285D01*
X161232000Y-100098632D01*
X161232000Y-100301368D01*
X161237804Y-100338013D01*
X161263715Y-100501608D01*
X161326361Y-100694417D01*
X161326362Y-100694420D01*
X161418405Y-100875062D01*
X161537562Y-101039069D01*
X161537566Y-101039074D01*
X161680925Y-101182433D01*
X161680930Y-101182437D01*
X161819885Y-101283393D01*
X161844941Y-101301597D01*
X161963026Y-101361764D01*
X162025579Y-101393637D01*
X162025582Y-101393638D01*
X162121986Y-101424961D01*
X162218393Y-101456285D01*
X162249699Y-101461243D01*
X162257802Y-101462527D01*
X162320937Y-101492456D01*
X162357868Y-101551768D01*
X162356870Y-101621630D01*
X162318260Y-101679863D01*
X162257802Y-101707473D01*
X162218391Y-101713715D01*
X162025582Y-101776361D01*
X162025579Y-101776362D01*
X161844937Y-101868405D01*
X161680930Y-101987562D01*
X161680925Y-101987566D01*
X161537566Y-102130925D01*
X161537562Y-102130930D01*
X161418405Y-102294937D01*
X161326362Y-102475579D01*
X161326361Y-102475582D01*
X161263715Y-102668391D01*
X161232000Y-102868632D01*
X161232000Y-103071367D01*
X161263715Y-103271608D01*
X161326361Y-103464417D01*
X161326362Y-103464420D01*
X161418405Y-103645062D01*
X161537562Y-103809069D01*
X161537566Y-103809074D01*
X161680925Y-103952433D01*
X161680930Y-103952437D01*
X161819885Y-104053393D01*
X161844941Y-104071597D01*
X161963026Y-104131764D01*
X162025579Y-104163637D01*
X162025582Y-104163638D01*
X162121986Y-104194961D01*
X162218393Y-104226285D01*
X162249699Y-104231243D01*
X162257802Y-104232527D01*
X162320937Y-104262456D01*
X162357868Y-104321768D01*
X162356870Y-104391630D01*
X162318260Y-104449863D01*
X162257802Y-104477473D01*
X162218391Y-104483715D01*
X162025582Y-104546361D01*
X162025579Y-104546362D01*
X161844937Y-104638405D01*
X161680930Y-104757562D01*
X161680925Y-104757566D01*
X161537566Y-104900925D01*
X161537562Y-104900930D01*
X161418405Y-105064937D01*
X161326362Y-105245579D01*
X161326361Y-105245582D01*
X161263715Y-105438391D01*
X161253360Y-105503771D01*
X161232000Y-105638632D01*
X161232000Y-105841368D01*
X161235181Y-105861449D01*
X161263715Y-106041608D01*
X161326361Y-106234417D01*
X161326362Y-106234420D01*
X161418405Y-106415062D01*
X161537562Y-106579069D01*
X161537566Y-106579074D01*
X161680925Y-106722433D01*
X161680930Y-106722437D01*
X161813555Y-106818794D01*
X161844941Y-106841597D01*
X161960963Y-106900713D01*
X162025579Y-106933637D01*
X162025582Y-106933638D01*
X162107715Y-106960324D01*
X162218393Y-106996285D01*
X162418632Y-107028000D01*
X162418633Y-107028000D01*
X162621367Y-107028000D01*
X162621368Y-107028000D01*
X162821607Y-106996285D01*
X163014420Y-106933637D01*
X163195059Y-106841597D01*
X163359076Y-106722432D01*
X163502432Y-106579076D01*
X163621597Y-106415059D01*
X163713637Y-106234420D01*
X163776285Y-106041607D01*
X163808000Y-105841368D01*
X163808000Y-105638632D01*
X163776285Y-105438393D01*
X163743483Y-105337437D01*
X163713638Y-105245582D01*
X163713637Y-105245579D01*
X163681764Y-105183026D01*
X163621597Y-105064941D01*
X163596254Y-105030059D01*
X163502437Y-104900930D01*
X163502433Y-104900925D01*
X163359074Y-104757566D01*
X163359069Y-104757562D01*
X163195062Y-104638405D01*
X163195061Y-104638404D01*
X163195059Y-104638403D01*
X163137186Y-104608915D01*
X163014420Y-104546362D01*
X163014417Y-104546361D01*
X162821608Y-104483715D01*
X162782197Y-104477473D01*
X162719063Y-104447544D01*
X162682131Y-104388233D01*
X162683129Y-104318370D01*
X162721739Y-104260137D01*
X162782197Y-104232527D01*
X162783041Y-104232393D01*
X162821607Y-104226285D01*
X163014420Y-104163637D01*
X163195059Y-104071597D01*
X163359076Y-103952432D01*
X163502432Y-103809076D01*
X163621597Y-103645059D01*
X163713637Y-103464420D01*
X163776285Y-103271607D01*
X163808000Y-103071368D01*
X163808000Y-102868632D01*
X163776285Y-102668393D01*
X163743483Y-102567437D01*
X163713638Y-102475582D01*
X163713637Y-102475579D01*
X163681764Y-102413026D01*
X163621597Y-102294941D01*
X163566269Y-102218788D01*
X163502437Y-102130930D01*
X163502433Y-102130925D01*
X163359074Y-101987566D01*
X163359069Y-101987562D01*
X163195062Y-101868405D01*
X163195061Y-101868404D01*
X163195059Y-101868403D01*
X163137186Y-101838915D01*
X163014420Y-101776362D01*
X163014417Y-101776361D01*
X162821608Y-101713715D01*
X162782197Y-101707473D01*
X162719063Y-101677544D01*
X162682131Y-101618233D01*
X162683129Y-101548370D01*
X162721739Y-101490137D01*
X162782197Y-101462527D01*
X162783041Y-101462393D01*
X162821607Y-101456285D01*
X163014420Y-101393637D01*
X163195059Y-101301597D01*
X163359076Y-101182432D01*
X163502432Y-101039076D01*
X163621597Y-100875059D01*
X163713637Y-100694420D01*
X163776285Y-100501607D01*
X163808000Y-100301368D01*
X163808000Y-100098632D01*
X163776285Y-99898393D01*
X163743483Y-99797437D01*
X163713638Y-99705582D01*
X163713637Y-99705579D01*
X163648834Y-99578397D01*
X163621597Y-99524941D01*
X163596254Y-99490059D01*
X163502437Y-99360929D01*
X163359074Y-99217566D01*
X163359069Y-99217562D01*
X163195062Y-99098405D01*
X163195061Y-99098404D01*
X163195059Y-99098403D01*
X163110857Y-99055500D01*
X163014420Y-99006362D01*
X163014417Y-99006361D01*
X162821608Y-98943715D01*
X162782197Y-98937473D01*
X162719063Y-98907544D01*
X162682131Y-98848233D01*
X162683129Y-98778370D01*
X162721739Y-98720137D01*
X162782197Y-98692527D01*
X162783041Y-98692393D01*
X162821607Y-98686285D01*
X163014420Y-98623637D01*
X163195059Y-98531597D01*
X163359076Y-98412432D01*
X163502432Y-98269076D01*
X163621597Y-98105059D01*
X163713637Y-97924420D01*
X163776285Y-97731607D01*
X163808000Y-97531368D01*
X163808000Y-97328632D01*
X163776285Y-97128393D01*
X163731650Y-96991019D01*
X163713638Y-96935582D01*
X163713637Y-96935579D01*
X163681764Y-96873026D01*
X163621597Y-96754941D01*
X163606372Y-96733986D01*
X163502437Y-96590930D01*
X163502433Y-96590925D01*
X163359074Y-96447566D01*
X163359069Y-96447562D01*
X163195062Y-96328405D01*
X163195061Y-96328404D01*
X163195059Y-96328403D01*
X163137186Y-96298915D01*
X163014420Y-96236362D01*
X163014417Y-96236361D01*
X162821608Y-96173715D01*
X162721487Y-96157857D01*
X162621368Y-96142000D01*
X162418632Y-96142000D01*
X162351885Y-96152571D01*
X162218391Y-96173715D01*
X162025582Y-96236361D01*
X162025579Y-96236362D01*
X161844937Y-96328405D01*
X161680930Y-96447562D01*
X161680925Y-96447566D01*
X161537566Y-96590925D01*
X161537562Y-96590930D01*
X161418405Y-96754937D01*
X161326362Y-96935579D01*
X161326361Y-96935582D01*
X161263715Y-97128391D01*
X161250191Y-97213777D01*
X161232000Y-97328632D01*
X160555996Y-97328632D01*
X160574983Y-97326591D01*
X160709831Y-97276296D01*
X160825046Y-97190046D01*
X160911296Y-97074831D01*
X160961591Y-96939983D01*
X160968000Y-96880373D01*
X160967999Y-95209628D01*
X160962799Y-95161257D01*
X160961591Y-95150016D01*
X160911297Y-95015171D01*
X160911293Y-95015164D01*
X160825047Y-94899955D01*
X160825044Y-94899952D01*
X160709835Y-94813706D01*
X160709828Y-94813702D01*
X160574982Y-94763408D01*
X160574983Y-94763408D01*
X160515383Y-94757001D01*
X160515381Y-94757000D01*
X160515373Y-94757000D01*
X160515364Y-94757000D01*
X158844629Y-94757000D01*
X158844623Y-94757001D01*
X158785016Y-94763408D01*
X158650171Y-94813702D01*
X158650164Y-94813706D01*
X158534955Y-94899952D01*
X158534952Y-94899955D01*
X158448706Y-95015164D01*
X158448702Y-95015171D01*
X158398408Y-95150017D01*
X158392001Y-95209616D01*
X158392001Y-95209623D01*
X158392000Y-95209635D01*
X125637531Y-95209635D01*
X125616549Y-95158980D01*
X125616547Y-95158976D01*
X125526211Y-95023779D01*
X125526205Y-95023771D01*
X125411228Y-94908794D01*
X125411220Y-94908788D01*
X125276023Y-94818452D01*
X125276019Y-94818450D01*
X125125793Y-94756225D01*
X125125783Y-94756222D01*
X124966307Y-94724500D01*
X124966305Y-94724500D01*
X124803695Y-94724500D01*
X124803693Y-94724500D01*
X124644216Y-94756222D01*
X124644206Y-94756225D01*
X124493980Y-94818450D01*
X124493976Y-94818452D01*
X124358779Y-94908788D01*
X124358771Y-94908794D01*
X124243794Y-95023771D01*
X124243788Y-95023779D01*
X124153452Y-95158976D01*
X124153450Y-95158980D01*
X124091225Y-95309206D01*
X124091222Y-95309216D01*
X124059500Y-95468692D01*
X124059500Y-95468695D01*
X124059500Y-95631305D01*
X124059500Y-95631307D01*
X124059499Y-95631307D01*
X99080500Y-95631307D01*
X99080500Y-93768610D01*
X111831000Y-93768610D01*
X111831000Y-93966389D01*
X111869581Y-94160348D01*
X111869583Y-94160356D01*
X111945267Y-94343073D01*
X112055140Y-94507511D01*
X112055146Y-94507518D01*
X112194981Y-94647353D01*
X112194988Y-94647359D01*
X112359426Y-94757232D01*
X112359427Y-94757232D01*
X112359428Y-94757233D01*
X112542144Y-94832917D01*
X112736110Y-94871499D01*
X112736114Y-94871500D01*
X112736115Y-94871500D01*
X112933886Y-94871500D01*
X112933887Y-94871499D01*
X113127856Y-94832917D01*
X113310572Y-94757233D01*
X113475013Y-94647358D01*
X113614858Y-94507513D01*
X113724733Y-94343072D01*
X113800417Y-94160356D01*
X113839000Y-93966385D01*
X113839000Y-93768615D01*
X113801742Y-93581307D01*
X133304499Y-93581307D01*
X133336222Y-93740783D01*
X133336225Y-93740793D01*
X133398450Y-93891019D01*
X133398452Y-93891023D01*
X133488788Y-94026220D01*
X133488794Y-94026228D01*
X133603771Y-94141205D01*
X133603779Y-94141211D01*
X133738976Y-94231547D01*
X133738980Y-94231549D01*
X133889206Y-94293774D01*
X133889211Y-94293776D01*
X133889215Y-94293776D01*
X133889216Y-94293777D01*
X134048692Y-94325500D01*
X134048695Y-94325500D01*
X134211307Y-94325500D01*
X134318598Y-94304157D01*
X134370789Y-94293776D01*
X134521021Y-94231548D01*
X134521023Y-94231547D01*
X134627580Y-94160348D01*
X134656225Y-94141208D01*
X134771208Y-94026225D01*
X134861548Y-93891021D01*
X134923776Y-93740789D01*
X134955500Y-93581305D01*
X134955500Y-93418695D01*
X134955500Y-93418692D01*
X134923777Y-93259216D01*
X134923776Y-93259215D01*
X134923776Y-93259211D01*
X134910633Y-93227481D01*
X134861549Y-93108980D01*
X134861547Y-93108976D01*
X134771211Y-92973779D01*
X134771205Y-92973771D01*
X134656228Y-92858794D01*
X134656220Y-92858788D01*
X134521023Y-92768452D01*
X134521019Y-92768450D01*
X134370793Y-92706225D01*
X134370783Y-92706222D01*
X134211307Y-92674500D01*
X134211305Y-92674500D01*
X134048695Y-92674500D01*
X134048693Y-92674500D01*
X133889216Y-92706222D01*
X133889206Y-92706225D01*
X133738980Y-92768450D01*
X133738976Y-92768452D01*
X133603779Y-92858788D01*
X133603771Y-92858794D01*
X133488794Y-92973771D01*
X133488788Y-92973779D01*
X133398452Y-93108976D01*
X133398450Y-93108980D01*
X133336225Y-93259206D01*
X133336222Y-93259216D01*
X133304500Y-93418692D01*
X133304500Y-93418695D01*
X133304500Y-93581305D01*
X133304500Y-93581307D01*
X133304499Y-93581307D01*
X113801742Y-93581307D01*
X113800417Y-93574644D01*
X113724733Y-93391928D01*
X113636058Y-93259216D01*
X113614859Y-93227488D01*
X113614853Y-93227481D01*
X113475018Y-93087646D01*
X113475011Y-93087640D01*
X113310573Y-92977767D01*
X113127856Y-92902083D01*
X113127848Y-92902081D01*
X112933889Y-92863500D01*
X112933885Y-92863500D01*
X112736115Y-92863500D01*
X112736110Y-92863500D01*
X112542151Y-92902081D01*
X112542143Y-92902083D01*
X112359426Y-92977767D01*
X112194988Y-93087640D01*
X112194981Y-93087646D01*
X112055146Y-93227481D01*
X112055140Y-93227488D01*
X111945267Y-93391926D01*
X111869583Y-93574643D01*
X111869581Y-93574651D01*
X111831000Y-93768610D01*
X99080500Y-93768610D01*
X99080500Y-84023713D01*
X102269500Y-84023713D01*
X102269500Y-84236286D01*
X102302753Y-84446239D01*
X102368444Y-84648414D01*
X102464951Y-84837820D01*
X102589890Y-85009786D01*
X102740213Y-85160109D01*
X102912179Y-85285048D01*
X102912181Y-85285049D01*
X102912184Y-85285051D01*
X102921493Y-85289794D01*
X102972290Y-85337766D01*
X102989087Y-85405587D01*
X102966552Y-85471722D01*
X102921502Y-85510762D01*
X102912443Y-85515378D01*
X102740540Y-85640272D01*
X102740535Y-85640276D01*
X102590276Y-85790535D01*
X102590272Y-85790540D01*
X102465379Y-85962442D01*
X102368904Y-86151782D01*
X102303242Y-86353870D01*
X102303242Y-86353873D01*
X102292769Y-86420000D01*
X103186988Y-86420000D01*
X103154075Y-86477007D01*
X103120000Y-86604174D01*
X103120000Y-86735826D01*
X103154075Y-86862993D01*
X103186988Y-86920000D01*
X102292769Y-86920000D01*
X102303242Y-86986126D01*
X102303242Y-86986129D01*
X102368904Y-87188217D01*
X102465379Y-87377557D01*
X102590272Y-87549459D01*
X102590276Y-87549464D01*
X102740535Y-87699723D01*
X102740540Y-87699727D01*
X102912444Y-87824622D01*
X102921495Y-87829234D01*
X102972292Y-87877208D01*
X102989087Y-87945029D01*
X102966550Y-88011164D01*
X102921499Y-88050202D01*
X102912182Y-88054949D01*
X102740213Y-88179890D01*
X102589890Y-88330213D01*
X102464951Y-88502179D01*
X102368444Y-88691585D01*
X102302753Y-88893760D01*
X102269500Y-89103713D01*
X102269500Y-89316286D01*
X102300980Y-89515046D01*
X102302754Y-89526243D01*
X102335660Y-89627518D01*
X102368444Y-89728414D01*
X102464951Y-89917820D01*
X102589890Y-90089786D01*
X102703430Y-90203326D01*
X102736915Y-90264649D01*
X102731931Y-90334341D01*
X102690059Y-90390274D01*
X102659083Y-90407189D01*
X102527669Y-90456203D01*
X102527664Y-90456206D01*
X102412455Y-90542452D01*
X102412452Y-90542455D01*
X102326206Y-90657664D01*
X102326202Y-90657671D01*
X102275908Y-90792517D01*
X102269501Y-90852116D01*
X102269501Y-90852123D01*
X102269500Y-90852135D01*
X102269500Y-92647870D01*
X102269501Y-92647876D01*
X102275908Y-92707483D01*
X102326202Y-92842328D01*
X102326206Y-92842335D01*
X102412452Y-92957544D01*
X102412455Y-92957547D01*
X102527664Y-93043793D01*
X102527671Y-93043797D01*
X102662517Y-93094091D01*
X102662516Y-93094091D01*
X102669444Y-93094835D01*
X102722127Y-93100500D01*
X104517872Y-93100499D01*
X104577483Y-93094091D01*
X104712331Y-93043796D01*
X104827546Y-92957546D01*
X104913796Y-92842331D01*
X104964091Y-92707483D01*
X104970500Y-92647873D01*
X104970499Y-92181307D01*
X108034499Y-92181307D01*
X108066222Y-92340783D01*
X108066225Y-92340793D01*
X108128450Y-92491019D01*
X108128452Y-92491023D01*
X108218788Y-92626220D01*
X108218794Y-92626228D01*
X108333771Y-92741205D01*
X108333779Y-92741211D01*
X108468976Y-92831547D01*
X108468980Y-92831549D01*
X108619206Y-92893774D01*
X108619211Y-92893776D01*
X108619215Y-92893776D01*
X108619216Y-92893777D01*
X108778692Y-92925500D01*
X108778695Y-92925500D01*
X108941307Y-92925500D01*
X109059038Y-92902081D01*
X109100789Y-92893776D01*
X109224979Y-92842335D01*
X109251019Y-92831549D01*
X109251023Y-92831547D01*
X109345454Y-92768450D01*
X109386225Y-92741208D01*
X109501208Y-92626225D01*
X109591548Y-92491021D01*
X109653776Y-92340789D01*
X109685500Y-92181305D01*
X109685500Y-92018695D01*
X109685500Y-92018692D01*
X109653777Y-91859216D01*
X109653776Y-91859215D01*
X109653776Y-91859211D01*
X109642019Y-91830829D01*
X109634550Y-91761361D01*
X109665824Y-91698882D01*
X109687687Y-91680275D01*
X109716225Y-91661208D01*
X109831208Y-91546225D01*
X109889629Y-91458792D01*
X109921547Y-91411023D01*
X109921549Y-91411019D01*
X109943244Y-91358643D01*
X109983776Y-91260789D01*
X110015500Y-91101305D01*
X110015500Y-90938695D01*
X110015500Y-90938692D01*
X109983777Y-90779216D01*
X109983776Y-90779215D01*
X109983776Y-90779211D01*
X109933430Y-90657664D01*
X109921549Y-90628980D01*
X109921547Y-90628976D01*
X109831211Y-90493779D01*
X109831205Y-90493771D01*
X109716228Y-90378794D01*
X109716220Y-90378788D01*
X109581023Y-90288452D01*
X109581019Y-90288450D01*
X109430793Y-90226225D01*
X109430783Y-90226222D01*
X109271307Y-90194500D01*
X109271305Y-90194500D01*
X109108695Y-90194500D01*
X109108693Y-90194500D01*
X108949216Y-90226222D01*
X108949206Y-90226225D01*
X108798980Y-90288450D01*
X108798976Y-90288452D01*
X108663779Y-90378788D01*
X108663771Y-90378794D01*
X108548794Y-90493771D01*
X108548788Y-90493779D01*
X108458452Y-90628976D01*
X108458450Y-90628980D01*
X108396225Y-90779206D01*
X108396222Y-90779216D01*
X108364500Y-90938692D01*
X108364500Y-90938695D01*
X108364500Y-91101305D01*
X108364500Y-91101307D01*
X108364499Y-91101307D01*
X108396222Y-91260783D01*
X108396225Y-91260793D01*
X108407980Y-91289173D01*
X108415447Y-91358643D01*
X108384171Y-91421121D01*
X108362311Y-91439724D01*
X108333773Y-91458792D01*
X108218794Y-91573771D01*
X108218788Y-91573779D01*
X108128452Y-91708976D01*
X108128450Y-91708980D01*
X108066225Y-91859206D01*
X108066222Y-91859216D01*
X108034500Y-92018692D01*
X108034500Y-92018695D01*
X108034500Y-92181305D01*
X108034500Y-92181307D01*
X108034499Y-92181307D01*
X104970499Y-92181307D01*
X104970499Y-91736811D01*
X104970499Y-90852129D01*
X104970498Y-90852123D01*
X104970497Y-90852116D01*
X104964091Y-90792517D01*
X104959128Y-90779211D01*
X104913797Y-90657671D01*
X104913793Y-90657664D01*
X104827547Y-90542455D01*
X104827544Y-90542452D01*
X104712335Y-90456206D01*
X104712328Y-90456202D01*
X104580917Y-90407189D01*
X104524983Y-90365318D01*
X104500566Y-90299853D01*
X104515418Y-90231580D01*
X104536563Y-90203332D01*
X104650104Y-90089792D01*
X104775051Y-89917816D01*
X104871557Y-89728412D01*
X104937246Y-89526243D01*
X104970500Y-89316287D01*
X104970500Y-89103713D01*
X104937246Y-88893757D01*
X104935574Y-88888610D01*
X111831000Y-88888610D01*
X111831000Y-89086389D01*
X111869581Y-89280348D01*
X111869583Y-89280356D01*
X111945267Y-89463073D01*
X112055140Y-89627511D01*
X112055146Y-89627518D01*
X112194981Y-89767353D01*
X112194988Y-89767359D01*
X112359426Y-89877232D01*
X112359427Y-89877232D01*
X112359428Y-89877233D01*
X112542144Y-89952917D01*
X112736110Y-89991499D01*
X112736114Y-89991500D01*
X112736115Y-89991500D01*
X112933886Y-89991500D01*
X112933887Y-89991499D01*
X113127856Y-89952917D01*
X113310572Y-89877233D01*
X113475013Y-89767358D01*
X113614858Y-89627513D01*
X113724733Y-89463072D01*
X113800417Y-89280356D01*
X113839000Y-89086385D01*
X113839000Y-88947715D01*
X158566500Y-88947715D01*
X158566500Y-89232284D01*
X158598357Y-89515031D01*
X158598360Y-89515045D01*
X158661679Y-89792467D01*
X158661683Y-89792479D01*
X158755660Y-90061049D01*
X158755666Y-90061063D01*
X158879126Y-90317430D01*
X158879128Y-90317433D01*
X159030521Y-90558374D01*
X159207939Y-90780849D01*
X159409151Y-90982061D01*
X159631626Y-91159479D01*
X159872567Y-91310872D01*
X160128944Y-91434337D01*
X160128950Y-91434339D01*
X160397520Y-91528316D01*
X160397532Y-91528320D01*
X160674954Y-91591640D01*
X160674963Y-91591641D01*
X160674968Y-91591642D01*
X160863466Y-91612880D01*
X160957716Y-91623499D01*
X160957719Y-91623500D01*
X160957722Y-91623500D01*
X161242281Y-91623500D01*
X161242282Y-91623499D01*
X161386790Y-91607217D01*
X161525031Y-91591642D01*
X161525034Y-91591641D01*
X161525046Y-91591640D01*
X161802468Y-91528320D01*
X162071056Y-91434337D01*
X162327433Y-91310872D01*
X162568374Y-91159479D01*
X162790849Y-90982061D01*
X162992061Y-90780849D01*
X163169479Y-90558374D01*
X163320872Y-90317433D01*
X163444337Y-90061056D01*
X163538320Y-89792468D01*
X163601640Y-89515046D01*
X163633500Y-89232278D01*
X163633500Y-88947722D01*
X163604986Y-88694651D01*
X163601642Y-88664968D01*
X163601641Y-88664963D01*
X163601640Y-88664954D01*
X163538320Y-88387532D01*
X163518261Y-88330208D01*
X163444339Y-88118950D01*
X163444337Y-88118944D01*
X163320872Y-87862567D01*
X163169479Y-87621626D01*
X162992061Y-87399151D01*
X162790849Y-87197939D01*
X162785622Y-87193771D01*
X162706651Y-87130793D01*
X162568374Y-87020521D01*
X162327433Y-86869128D01*
X162327430Y-86869126D01*
X162071063Y-86745666D01*
X162071049Y-86745660D01*
X161802479Y-86651683D01*
X161802467Y-86651679D01*
X161548779Y-86593777D01*
X161525046Y-86588360D01*
X161525043Y-86588359D01*
X161525031Y-86588357D01*
X161242284Y-86556500D01*
X161242278Y-86556500D01*
X160957722Y-86556500D01*
X160957715Y-86556500D01*
X160674968Y-86588357D01*
X160674954Y-86588360D01*
X160397532Y-86651679D01*
X160397520Y-86651683D01*
X160128950Y-86745660D01*
X160128936Y-86745666D01*
X159872569Y-86869126D01*
X159631627Y-87020520D01*
X159409151Y-87197938D01*
X159207938Y-87399151D01*
X159030520Y-87621627D01*
X158879126Y-87862569D01*
X158755666Y-88118936D01*
X158755660Y-88118950D01*
X158661683Y-88387520D01*
X158661679Y-88387532D01*
X158598360Y-88664954D01*
X158598357Y-88664968D01*
X158566500Y-88947715D01*
X113839000Y-88947715D01*
X113839000Y-88888615D01*
X113800417Y-88694644D01*
X113724733Y-88511928D01*
X113718222Y-88502184D01*
X113614859Y-88347488D01*
X113614853Y-88347481D01*
X113475018Y-88207646D01*
X113475011Y-88207640D01*
X113310573Y-88097767D01*
X113127856Y-88022083D01*
X113127848Y-88022081D01*
X112933889Y-87983500D01*
X112933885Y-87983500D01*
X112736115Y-87983500D01*
X112736110Y-87983500D01*
X112542151Y-88022081D01*
X112542143Y-88022083D01*
X112359426Y-88097767D01*
X112194988Y-88207640D01*
X112194981Y-88207646D01*
X112055146Y-88347481D01*
X112055140Y-88347488D01*
X111945267Y-88511926D01*
X111869583Y-88694643D01*
X111869581Y-88694651D01*
X111831000Y-88888610D01*
X104935574Y-88888610D01*
X104871557Y-88691588D01*
X104775051Y-88502184D01*
X104775049Y-88502181D01*
X104775048Y-88502179D01*
X104650109Y-88330213D01*
X104499786Y-88179890D01*
X104327817Y-88054949D01*
X104318504Y-88050204D01*
X104267707Y-88002230D01*
X104250912Y-87934409D01*
X104273449Y-87868274D01*
X104318507Y-87829232D01*
X104327558Y-87824620D01*
X104359646Y-87801307D01*
X134274499Y-87801307D01*
X134306222Y-87960783D01*
X134306225Y-87960793D01*
X134368450Y-88111019D01*
X134368452Y-88111023D01*
X134458788Y-88246220D01*
X134458794Y-88246228D01*
X134573771Y-88361205D01*
X134573779Y-88361211D01*
X134708976Y-88451547D01*
X134708980Y-88451549D01*
X134859206Y-88513774D01*
X134859211Y-88513776D01*
X134859215Y-88513776D01*
X134859216Y-88513777D01*
X135018692Y-88545500D01*
X135018695Y-88545500D01*
X135181307Y-88545500D01*
X135288598Y-88524157D01*
X135340789Y-88513776D01*
X135491021Y-88451548D01*
X135491023Y-88451547D01*
X135586846Y-88387520D01*
X135626225Y-88361208D01*
X135741208Y-88246225D01*
X135826254Y-88118944D01*
X135831547Y-88111023D01*
X135831549Y-88111019D01*
X135872910Y-88011164D01*
X135893776Y-87960789D01*
X135913314Y-87862567D01*
X135925500Y-87801307D01*
X135925500Y-87724257D01*
X135945185Y-87657218D01*
X135997989Y-87611463D01*
X136067147Y-87601519D01*
X136113322Y-87619213D01*
X136113609Y-87618678D01*
X136117872Y-87620956D01*
X136118392Y-87621156D01*
X136118980Y-87621549D01*
X136269206Y-87683774D01*
X136269211Y-87683776D01*
X136269215Y-87683776D01*
X136269216Y-87683777D01*
X136428692Y-87715500D01*
X136428695Y-87715500D01*
X136591307Y-87715500D01*
X136698598Y-87694157D01*
X136750789Y-87683776D01*
X136859632Y-87638692D01*
X136901019Y-87621549D01*
X136901023Y-87621547D01*
X137008912Y-87549458D01*
X137036225Y-87531208D01*
X137151208Y-87416225D01*
X137241548Y-87281021D01*
X137303776Y-87130789D01*
X137320106Y-87048695D01*
X137335500Y-86971307D01*
X137335500Y-86808693D01*
X137324859Y-86755202D01*
X137331086Y-86685610D01*
X137373948Y-86630432D01*
X137422285Y-86609392D01*
X137448516Y-86604174D01*
X137500789Y-86593776D01*
X137651021Y-86531548D01*
X137757818Y-86460188D01*
X137824495Y-86439311D01*
X137891875Y-86457796D01*
X137938565Y-86509774D01*
X137949741Y-86578744D01*
X137929811Y-86632181D01*
X137858450Y-86738982D01*
X137796225Y-86889206D01*
X137796222Y-86889216D01*
X137764500Y-87048692D01*
X137764500Y-87048695D01*
X137764500Y-87211305D01*
X137764500Y-87211307D01*
X137764499Y-87211307D01*
X137796222Y-87370783D01*
X137796225Y-87370793D01*
X137858450Y-87521019D01*
X137858452Y-87521023D01*
X137948788Y-87656220D01*
X137948794Y-87656228D01*
X138063771Y-87771205D01*
X138063779Y-87771211D01*
X138198976Y-87861547D01*
X138198980Y-87861549D01*
X138349206Y-87923774D01*
X138349211Y-87923776D01*
X138349215Y-87923776D01*
X138349216Y-87923777D01*
X138508692Y-87955500D01*
X138508695Y-87955500D01*
X138671307Y-87955500D01*
X138778598Y-87934157D01*
X138830789Y-87923776D01*
X138981021Y-87861548D01*
X138981023Y-87861547D01*
X139071181Y-87801305D01*
X139116225Y-87771208D01*
X139231208Y-87656225D01*
X139276680Y-87588169D01*
X139321547Y-87521023D01*
X139321549Y-87521019D01*
X139342290Y-87470943D01*
X139383776Y-87370789D01*
X139415500Y-87211305D01*
X139415500Y-87048695D01*
X139415500Y-87048692D01*
X139383777Y-86889216D01*
X139383776Y-86889215D01*
X139383776Y-86889211D01*
X139382339Y-86885742D01*
X139321549Y-86738980D01*
X139321547Y-86738976D01*
X139231211Y-86603779D01*
X139231205Y-86603771D01*
X139116228Y-86488794D01*
X139116220Y-86488788D01*
X138981023Y-86398452D01*
X138981019Y-86398450D01*
X138830793Y-86336225D01*
X138830783Y-86336222D01*
X138671307Y-86304500D01*
X138671305Y-86304500D01*
X138508695Y-86304500D01*
X138508693Y-86304500D01*
X138349216Y-86336222D01*
X138349206Y-86336225D01*
X138198982Y-86398450D01*
X138092181Y-86469811D01*
X138025503Y-86490688D01*
X137958123Y-86472203D01*
X137911434Y-86420224D01*
X137900258Y-86351253D01*
X137920188Y-86297818D01*
X137991548Y-86191021D01*
X138053776Y-86040789D01*
X138074859Y-85934799D01*
X138085500Y-85881307D01*
X138085500Y-85718692D01*
X138053777Y-85559216D01*
X138053776Y-85559215D01*
X138053776Y-85559211D01*
X138035620Y-85515378D01*
X137991549Y-85408980D01*
X137991547Y-85408976D01*
X137901211Y-85273779D01*
X137901205Y-85273771D01*
X137786228Y-85158794D01*
X137786220Y-85158788D01*
X137651023Y-85068452D01*
X137651019Y-85068450D01*
X137500793Y-85006225D01*
X137500783Y-85006222D01*
X137341307Y-84974500D01*
X137341305Y-84974500D01*
X137178695Y-84974500D01*
X137178693Y-84974500D01*
X137019216Y-85006222D01*
X137019206Y-85006225D01*
X136868980Y-85068450D01*
X136868976Y-85068452D01*
X136733779Y-85158788D01*
X136733771Y-85158794D01*
X136618794Y-85273771D01*
X136618788Y-85273779D01*
X136528452Y-85408976D01*
X136528450Y-85408980D01*
X136466225Y-85559206D01*
X136466222Y-85559216D01*
X136434500Y-85718692D01*
X136434500Y-85881309D01*
X136445140Y-85934799D01*
X136438913Y-86004390D01*
X136396050Y-86059568D01*
X136347716Y-86080607D01*
X136269215Y-86096222D01*
X136269206Y-86096225D01*
X136118980Y-86158450D01*
X136118976Y-86158452D01*
X135983779Y-86248788D01*
X135983771Y-86248794D01*
X135868794Y-86363771D01*
X135868788Y-86363779D01*
X135778452Y-86498976D01*
X135778450Y-86498980D01*
X135716225Y-86649206D01*
X135716222Y-86649216D01*
X135684500Y-86808692D01*
X135684500Y-86885742D01*
X135664815Y-86952781D01*
X135612011Y-86998536D01*
X135542853Y-87008480D01*
X135496675Y-86990788D01*
X135496391Y-86991322D01*
X135492149Y-86989055D01*
X135491620Y-86988852D01*
X135491018Y-86988450D01*
X135491019Y-86988450D01*
X135340793Y-86926225D01*
X135340783Y-86926222D01*
X135181307Y-86894500D01*
X135181305Y-86894500D01*
X135018695Y-86894500D01*
X135018693Y-86894500D01*
X134859216Y-86926222D01*
X134859206Y-86926225D01*
X134708980Y-86988450D01*
X134708976Y-86988452D01*
X134573779Y-87078788D01*
X134573771Y-87078794D01*
X134458794Y-87193771D01*
X134458788Y-87193779D01*
X134368452Y-87328976D01*
X134368450Y-87328980D01*
X134306225Y-87479206D01*
X134306222Y-87479216D01*
X134274500Y-87638692D01*
X134274500Y-87638695D01*
X134274500Y-87801305D01*
X134274500Y-87801307D01*
X134274499Y-87801307D01*
X104359646Y-87801307D01*
X104499459Y-87699727D01*
X104499464Y-87699723D01*
X104649722Y-87549465D01*
X104649728Y-87549458D01*
X104774620Y-87377557D01*
X104871095Y-87188217D01*
X104936757Y-86986129D01*
X104936757Y-86986126D01*
X104947231Y-86920000D01*
X104053012Y-86920000D01*
X104085925Y-86862993D01*
X104120000Y-86735826D01*
X104120000Y-86604174D01*
X104085925Y-86477007D01*
X104053012Y-86420000D01*
X104947231Y-86420000D01*
X104936757Y-86353873D01*
X104936757Y-86353870D01*
X104871095Y-86151782D01*
X104774620Y-85962442D01*
X104649727Y-85790540D01*
X104649723Y-85790535D01*
X104499464Y-85640276D01*
X104499459Y-85640272D01*
X104327555Y-85515377D01*
X104318500Y-85510763D01*
X104267706Y-85462788D01*
X104250912Y-85394966D01*
X104273451Y-85328832D01*
X104318508Y-85289793D01*
X104327816Y-85285051D01*
X104407007Y-85227515D01*
X104499786Y-85160109D01*
X104499788Y-85160106D01*
X104499792Y-85160104D01*
X104650104Y-85009792D01*
X104650106Y-85009788D01*
X104650109Y-85009786D01*
X104775048Y-84837820D01*
X104775047Y-84837820D01*
X104775051Y-84837816D01*
X104871557Y-84648412D01*
X104937246Y-84446243D01*
X104970500Y-84236287D01*
X104970500Y-84023713D01*
X104937246Y-83813757D01*
X104871557Y-83611588D01*
X104775051Y-83422184D01*
X104775049Y-83422181D01*
X104775048Y-83422179D01*
X104650109Y-83250213D01*
X104499786Y-83099890D01*
X104327820Y-82974951D01*
X104138414Y-82878444D01*
X104138413Y-82878443D01*
X104138412Y-82878443D01*
X103936243Y-82812754D01*
X103936241Y-82812753D01*
X103936240Y-82812753D01*
X103774957Y-82787208D01*
X103726287Y-82779500D01*
X103513713Y-82779500D01*
X103465042Y-82787208D01*
X103303760Y-82812753D01*
X103101585Y-82878444D01*
X102912179Y-82974951D01*
X102740213Y-83099890D01*
X102589890Y-83250213D01*
X102464951Y-83422179D01*
X102368444Y-83611585D01*
X102302753Y-83813760D01*
X102269500Y-84023713D01*
X99080500Y-84023713D01*
X99080500Y-75972153D01*
X99080504Y-75971185D01*
X99081043Y-75902123D01*
X99094090Y-74230506D01*
X99094201Y-74226186D01*
X99097386Y-74153226D01*
X99098326Y-74142495D01*
X99148152Y-73764025D01*
X99150025Y-73753405D01*
X99232649Y-73380709D01*
X99235440Y-73370295D01*
X99350230Y-73006227D01*
X99353917Y-72996095D01*
X99500003Y-72643412D01*
X99504561Y-72633638D01*
X99680822Y-72295045D01*
X99686217Y-72285700D01*
X99891325Y-71963744D01*
X99897515Y-71954905D01*
X100129896Y-71652060D01*
X100136834Y-71643791D01*
X100394726Y-71362352D01*
X100402352Y-71354726D01*
X100683791Y-71096834D01*
X100692060Y-71089896D01*
X100994905Y-70857515D01*
X101003744Y-70851325D01*
X101325700Y-70646217D01*
X101335045Y-70640822D01*
X101673638Y-70464561D01*
X101683412Y-70460003D01*
X102036095Y-70313917D01*
X102046227Y-70310230D01*
X102410295Y-70195440D01*
X102420709Y-70192649D01*
X102793405Y-70110025D01*
X102804025Y-70108152D01*
X103182495Y-70058326D01*
X103193226Y-70057386D01*
X103423257Y-70047343D01*
X103491090Y-70064085D01*
X103539104Y-70114843D01*
X103552055Y-70183502D01*
X103525830Y-70248263D01*
X103468755Y-70288565D01*
X103450197Y-70293341D01*
X103300524Y-70319733D01*
X103300511Y-70319736D01*
X102895666Y-70428212D01*
X102501779Y-70571576D01*
X102501771Y-70571579D01*
X102121923Y-70748706D01*
X102121907Y-70748714D01*
X101758932Y-70958278D01*
X101758906Y-70958294D01*
X101415585Y-71198690D01*
X101125583Y-71442031D01*
X103007070Y-73323517D01*
X102919784Y-73390495D01*
X102720495Y-73589784D01*
X102653517Y-73677070D01*
X100772031Y-71795583D01*
X100528690Y-72085585D01*
X100288294Y-72428906D01*
X100288278Y-72428932D01*
X100078714Y-72791907D01*
X100078706Y-72791923D01*
X99901579Y-73171771D01*
X99901576Y-73171779D01*
X99758212Y-73565666D01*
X99649736Y-73970511D01*
X99649733Y-73970524D01*
X99576950Y-74383293D01*
X99540419Y-74800842D01*
X99540419Y-75219995D01*
X99576950Y-75637544D01*
X99649733Y-76050313D01*
X99649736Y-76050326D01*
X99758212Y-76455171D01*
X99901576Y-76849058D01*
X99901579Y-76849066D01*
X100078706Y-77228914D01*
X100078714Y-77228930D01*
X100288278Y-77591905D01*
X100288294Y-77591931D01*
X100528690Y-77935252D01*
X100772030Y-78225253D01*
X102653517Y-76343766D01*
X102720495Y-76431054D01*
X102919784Y-76630343D01*
X103007069Y-76697319D01*
X101125582Y-78578806D01*
X101125583Y-78578807D01*
X101415578Y-78822142D01*
X101758906Y-79062543D01*
X101758932Y-79062559D01*
X102121907Y-79272123D01*
X102121923Y-79272131D01*
X102501771Y-79449258D01*
X102501779Y-79449261D01*
X102895666Y-79592625D01*
X103300511Y-79701101D01*
X103300524Y-79701104D01*
X103713293Y-79773887D01*
X104130842Y-79810418D01*
X104130845Y-79810419D01*
X104549993Y-79810419D01*
X104549995Y-79810418D01*
X104967544Y-79773887D01*
X105380313Y-79701104D01*
X105380326Y-79701101D01*
X105785171Y-79592625D01*
X106179058Y-79449261D01*
X106179066Y-79449258D01*
X106558914Y-79272131D01*
X106558930Y-79272123D01*
X106921905Y-79062559D01*
X106921931Y-79062543D01*
X107265259Y-78822142D01*
X107555253Y-78578807D01*
X107555254Y-78578806D01*
X105673767Y-76697320D01*
X105761054Y-76630343D01*
X105960343Y-76431054D01*
X106027319Y-76343767D01*
X107908806Y-78225254D01*
X107908807Y-78225253D01*
X108152142Y-77935259D01*
X108392543Y-77591931D01*
X108392559Y-77591905D01*
X108602123Y-77228930D01*
X108602131Y-77228914D01*
X108779258Y-76849066D01*
X108779261Y-76849058D01*
X108835803Y-76693713D01*
X129139500Y-76693713D01*
X129139500Y-76906287D01*
X129172754Y-77116243D01*
X129209368Y-77228930D01*
X129238444Y-77318414D01*
X129334951Y-77507820D01*
X129459890Y-77679786D01*
X129610213Y-77830109D01*
X129782179Y-77955048D01*
X129782181Y-77955049D01*
X129782184Y-77955051D01*
X129971588Y-78051557D01*
X130173757Y-78117246D01*
X130383713Y-78150500D01*
X130383714Y-78150500D01*
X130596286Y-78150500D01*
X130596287Y-78150500D01*
X130806243Y-78117246D01*
X131008412Y-78051557D01*
X131197816Y-77955051D01*
X131284138Y-77892335D01*
X131369786Y-77830109D01*
X131369788Y-77830106D01*
X131369792Y-77830104D01*
X131520104Y-77679792D01*
X131520106Y-77679788D01*
X131520109Y-77679786D01*
X131645048Y-77507820D01*
X131645047Y-77507820D01*
X131645051Y-77507816D01*
X131649514Y-77499054D01*
X131697488Y-77448259D01*
X131765308Y-77431463D01*
X131831444Y-77453999D01*
X131870486Y-77499056D01*
X131874951Y-77507820D01*
X131999890Y-77679786D01*
X132150213Y-77830109D01*
X132322179Y-77955048D01*
X132322181Y-77955049D01*
X132322184Y-77955051D01*
X132511588Y-78051557D01*
X132713757Y-78117246D01*
X132923713Y-78150500D01*
X132923714Y-78150500D01*
X133136286Y-78150500D01*
X133136287Y-78150500D01*
X133346243Y-78117246D01*
X133548412Y-78051557D01*
X133737816Y-77955051D01*
X133824138Y-77892335D01*
X133909786Y-77830109D01*
X133909788Y-77830106D01*
X133909792Y-77830104D01*
X134060104Y-77679792D01*
X134060106Y-77679788D01*
X134060109Y-77679786D01*
X134185048Y-77507820D01*
X134185051Y-77507816D01*
X134189793Y-77498508D01*
X134237763Y-77447711D01*
X134305583Y-77430911D01*
X134371719Y-77453445D01*
X134410763Y-77498500D01*
X134415377Y-77507555D01*
X134540272Y-77679459D01*
X134540276Y-77679464D01*
X134690535Y-77829723D01*
X134690540Y-77829727D01*
X134862442Y-77954620D01*
X135051782Y-78051095D01*
X135253871Y-78116757D01*
X135320000Y-78127231D01*
X135320000Y-77233012D01*
X135377007Y-77265925D01*
X135504174Y-77300000D01*
X135635826Y-77300000D01*
X135762993Y-77265925D01*
X135820000Y-77233012D01*
X135820000Y-78127230D01*
X135886126Y-78116757D01*
X135886129Y-78116757D01*
X136088217Y-78051095D01*
X136277557Y-77954620D01*
X136449459Y-77829727D01*
X136449464Y-77829723D01*
X136599723Y-77679464D01*
X136599727Y-77679459D01*
X136724620Y-77507558D01*
X136729232Y-77498507D01*
X136777205Y-77447709D01*
X136845025Y-77430912D01*
X136911161Y-77453447D01*
X136950204Y-77498504D01*
X136954949Y-77507817D01*
X137079890Y-77679786D01*
X137230213Y-77830109D01*
X137402179Y-77955048D01*
X137402181Y-77955049D01*
X137402184Y-77955051D01*
X137591588Y-78051557D01*
X137793757Y-78117246D01*
X138003713Y-78150500D01*
X138003714Y-78150500D01*
X138216286Y-78150500D01*
X138216287Y-78150500D01*
X138426243Y-78117246D01*
X138628412Y-78051557D01*
X138817816Y-77955051D01*
X138989792Y-77830104D01*
X139103329Y-77716566D01*
X139164648Y-77683084D01*
X139234340Y-77688068D01*
X139290274Y-77729939D01*
X139307189Y-77760917D01*
X139356202Y-77892328D01*
X139356206Y-77892335D01*
X139442452Y-78007544D01*
X139442455Y-78007547D01*
X139557664Y-78093793D01*
X139557671Y-78093797D01*
X139692517Y-78144091D01*
X139692516Y-78144091D01*
X139699444Y-78144835D01*
X139752127Y-78150500D01*
X141547872Y-78150499D01*
X141607483Y-78144091D01*
X141742331Y-78093796D01*
X141857546Y-78007546D01*
X141943796Y-77892331D01*
X141994091Y-77757483D01*
X142000500Y-77697873D01*
X142000499Y-75902128D01*
X141994091Y-75842517D01*
X141992810Y-75839083D01*
X141943797Y-75707671D01*
X141943793Y-75707664D01*
X141857547Y-75592455D01*
X141857544Y-75592452D01*
X141742335Y-75506206D01*
X141742328Y-75506202D01*
X141607482Y-75455908D01*
X141607483Y-75455908D01*
X141547883Y-75449501D01*
X141547881Y-75449500D01*
X141547873Y-75449500D01*
X141547864Y-75449500D01*
X139752129Y-75449500D01*
X139752123Y-75449501D01*
X139692516Y-75455908D01*
X139557671Y-75506202D01*
X139557664Y-75506206D01*
X139442455Y-75592452D01*
X139442452Y-75592455D01*
X139356206Y-75707664D01*
X139356203Y-75707669D01*
X139307189Y-75839083D01*
X139265317Y-75895016D01*
X139199853Y-75919433D01*
X139131580Y-75904581D01*
X139103326Y-75883430D01*
X138989786Y-75769890D01*
X138817820Y-75644951D01*
X138628414Y-75548444D01*
X138628413Y-75548443D01*
X138628412Y-75548443D01*
X138426243Y-75482754D01*
X138426241Y-75482753D01*
X138426240Y-75482753D01*
X138264957Y-75457208D01*
X138216287Y-75449500D01*
X138003713Y-75449500D01*
X137955042Y-75457208D01*
X137793760Y-75482753D01*
X137591585Y-75548444D01*
X137402179Y-75644951D01*
X137230213Y-75769890D01*
X137079890Y-75920213D01*
X136954949Y-76092182D01*
X136950202Y-76101499D01*
X136902227Y-76152293D01*
X136834405Y-76169087D01*
X136768271Y-76146548D01*
X136729234Y-76101495D01*
X136724622Y-76092444D01*
X136599727Y-75920540D01*
X136599723Y-75920535D01*
X136449464Y-75770276D01*
X136449459Y-75770272D01*
X136277557Y-75645379D01*
X136088215Y-75548903D01*
X135886124Y-75483241D01*
X135820000Y-75472768D01*
X135820000Y-76366988D01*
X135762993Y-76334075D01*
X135635826Y-76300000D01*
X135504174Y-76300000D01*
X135377007Y-76334075D01*
X135320000Y-76366988D01*
X135320000Y-75472768D01*
X135319999Y-75472768D01*
X135253875Y-75483241D01*
X135051784Y-75548903D01*
X134862442Y-75645379D01*
X134690540Y-75770272D01*
X134690535Y-75770276D01*
X134540276Y-75920535D01*
X134540272Y-75920540D01*
X134415378Y-76092443D01*
X134410762Y-76101502D01*
X134362784Y-76152295D01*
X134294963Y-76169087D01*
X134228829Y-76146546D01*
X134189794Y-76101493D01*
X134185051Y-76092184D01*
X134185049Y-76092181D01*
X134185048Y-76092179D01*
X134060109Y-75920213D01*
X133909786Y-75769890D01*
X133737820Y-75644951D01*
X133548414Y-75548444D01*
X133548413Y-75548443D01*
X133548412Y-75548443D01*
X133346243Y-75482754D01*
X133346241Y-75482753D01*
X133346240Y-75482753D01*
X133184957Y-75457208D01*
X133136287Y-75449500D01*
X132923713Y-75449500D01*
X132875042Y-75457208D01*
X132713760Y-75482753D01*
X132511585Y-75548444D01*
X132322179Y-75644951D01*
X132150213Y-75769890D01*
X131999890Y-75920213D01*
X131874949Y-76092182D01*
X131870484Y-76100946D01*
X131822509Y-76151742D01*
X131754688Y-76168536D01*
X131688553Y-76145998D01*
X131649516Y-76100946D01*
X131645050Y-76092182D01*
X131520109Y-75920213D01*
X131369786Y-75769890D01*
X131197820Y-75644951D01*
X131008414Y-75548444D01*
X131008413Y-75548443D01*
X131008412Y-75548443D01*
X130806243Y-75482754D01*
X130806241Y-75482753D01*
X130806240Y-75482753D01*
X130644957Y-75457208D01*
X130596287Y-75449500D01*
X130383713Y-75449500D01*
X130335042Y-75457208D01*
X130173760Y-75482753D01*
X129971585Y-75548444D01*
X129782179Y-75644951D01*
X129610213Y-75769890D01*
X129459890Y-75920213D01*
X129334951Y-76092179D01*
X129238444Y-76281585D01*
X129172753Y-76483760D01*
X129171291Y-76492993D01*
X129139500Y-76693713D01*
X108835803Y-76693713D01*
X108853013Y-76646430D01*
X108853013Y-76646429D01*
X108922624Y-76455175D01*
X109031101Y-76050326D01*
X109031104Y-76050313D01*
X109103887Y-75637544D01*
X109140418Y-75219995D01*
X109140419Y-75219993D01*
X109140419Y-74800845D01*
X109140418Y-74800842D01*
X109103887Y-74383293D01*
X109031104Y-73970524D01*
X109031101Y-73970511D01*
X108922625Y-73565666D01*
X108779261Y-73171779D01*
X108779258Y-73171771D01*
X108602131Y-72791923D01*
X108602123Y-72791907D01*
X108392559Y-72428932D01*
X108392543Y-72428906D01*
X108152142Y-72085578D01*
X107908807Y-71795583D01*
X107908806Y-71795582D01*
X106027319Y-73677069D01*
X105960343Y-73589784D01*
X105761054Y-73390495D01*
X105673766Y-73323516D01*
X107555253Y-71442030D01*
X107265252Y-71198690D01*
X106921931Y-70958294D01*
X106921905Y-70958278D01*
X106558930Y-70748714D01*
X106558914Y-70748706D01*
X106179066Y-70571579D01*
X106179058Y-70571576D01*
X105785171Y-70428212D01*
X105380326Y-70319736D01*
X105380313Y-70319733D01*
X105192498Y-70286616D01*
X105129896Y-70255589D01*
X105094005Y-70195642D01*
X105096222Y-70125808D01*
X105135843Y-70068258D01*
X105200287Y-70041264D01*
X105214031Y-70040500D01*
X170406388Y-70040500D01*
X170473427Y-70060185D01*
G37*
%TD.AperFunction*%
%TD*%
M02*
