M48
; DRILL file {KiCad 9.0.0} date 2025-05-02T19:21:21+0200
; FORMAT={-:-/ absolute / metric / decimal}
; #@! TF.CreationDate,2025-05-02T19:21:21+02:00
; #@! TF.GenerationSoftware,Kicad,Pcbnew,9.0.0
; #@! TF.FileFunction,MixedPlating,1,4
FMAT,2
METRIC
; #@! TA.AperFunction,Plated,PTH,ViaDrill
T1C0.250
; #@! TA.AperFunction,Plated,PTH,ViaDrill
T2C0.300
; #@! TA.AperFunction,Plated,PTH,ComponentDrill
T3C0.550
; #@! TA.AperFunction,Plated,PTH,ComponentDrill
T4C0.600
; #@! TA.AperFunction,Plated,PTH,ComponentDrill
T5C0.657
; #@! TA.AperFunction,Plated,PTH,ComponentDrill
T6C0.850
; #@! TA.AperFunction,Plated,PTH,ComponentDrill
T7C1.000
; #@! TA.AperFunction,Plated,PTH,ComponentDrill
T8C1.050
; #@! TA.AperFunction,Plated,PTH,ComponentDrill
T9C1.300
; #@! TA.AperFunction,Plated,PTH,ComponentDrill
T10C3.050
; #@! TA.AperFunction,Plated,PTH,ComponentDrill
T11C4.300
; #@! TA.AperFunction,NonPlated,NPTH,ComponentDrill
T12C0.800
%
G90
G05
T1
X106.57Y-103.35
X107.885Y-86.685
X108.86Y-92.1
X109.19Y-91.02
X113.875Y-78.115
X116.695Y-78.125
X116.95Y-92.64
X117.13Y-113.57
X117.28Y-87.12
X118.415Y-80.775
X118.78Y-109.45
X120.84Y-109.19
X121.775Y-87.955
X123.52Y-112.46
X124.885Y-95.55
X125.21Y-96.6
X125.72Y-89.29
X128.65Y-109.19
X128.68Y-107.46
X129.92Y-123.88
X129.98Y-90.65
X130.89Y-109.15
X131.19Y-123.75
X134.13Y-93.5
X134.96Y-110.53
X135.1Y-87.72
X135.55Y-79.42
X136.25Y-110.49
X136.44Y-107.46
X136.51Y-86.89
X137.26Y-85.8
X137.7Y-97.22
X138.59Y-87.13
X140.53Y-98.23
X141.95Y-96.39
X143.79Y-96.42
X144.06Y-90.37
X144.13Y-106.03
X144.88Y-120.84
X146.08Y-121.97
X146.19Y-90.42
X147.39Y-103.01
X147.86Y-121.99
X153.345Y-94.235
X156.52Y-98.43
T2
X115.11Y-98.97
X127.26Y-102.86
T4
X101.115Y-75.01
X101.115Y-129.985
X102.06Y-72.73
X102.06Y-77.291
X102.06Y-127.705
X102.06Y-132.265
X104.34Y-71.785
X104.34Y-78.235
X104.34Y-126.76
X104.34Y-133.21
X106.621Y-72.73
X106.621Y-77.291
X106.621Y-127.705
X106.621Y-132.265
X107.565Y-75.01
X107.565Y-129.985
X168.055Y-75.01
X168.055Y-129.985
X169.0Y-72.73
X169.0Y-77.291
X169.0Y-127.705
X169.0Y-132.265
X171.28Y-71.785
X171.28Y-78.235
X171.28Y-126.76
X171.28Y-133.21
X173.56Y-72.73
X173.56Y-77.291
X173.56Y-127.705
X173.56Y-132.265
X174.505Y-75.01
X174.505Y-129.985
T5
X112.835Y-88.987
X112.835Y-93.867
T7
X103.62Y-84.13
X103.62Y-86.67
X103.62Y-89.21
X103.62Y-91.75
X130.49Y-76.8
X133.03Y-76.8
X135.57Y-76.8
X138.11Y-76.8
X140.65Y-76.8
T8
X159.68Y-96.045
X159.68Y-98.815
X159.68Y-101.585
X159.68Y-104.355
X159.68Y-107.125
X162.52Y-97.43
X162.52Y-100.2
X162.52Y-102.97
X162.52Y-105.74
T9
X103.65Y-112.93
X103.65Y-117.93
X121.85Y-129.25
X126.85Y-129.25
X142.85Y-129.25
X147.85Y-129.25
T10
X161.1Y-89.09
X161.1Y-114.08
T11
X104.34Y-75.01
X104.34Y-129.985
X171.28Y-75.01
X171.28Y-129.985
T12
X103.255Y-99.54
X103.255Y-104.54
T3
G00X100.83Y-98.165
M15
G01X100.18Y-98.165
M16
G05
G00X100.83Y-105.915
M15
G01X100.18Y-105.915
M16
G05
T6
G00X104.58Y-98.315
M15
G01X104.03Y-98.315
M16
G05
G00X104.58Y-105.765
M15
G01X104.03Y-105.765
M16
G05
M30
