%TF.GenerationSoftware,KiCad,Pcbnew,9.0.0*%
%TF.CreationDate,2025-05-02T19:21:32+02:00*%
%TF.ProjectId,PIC_GATE_LOCK_SYSTEM,5049435f-4741-4544-955f-4c4f434b5f53,rev?*%
%TF.SameCoordinates,Original*%
%TF.FileFunction,Copper,L4,Bot*%
%TF.FilePolarity,Positive*%
%FSLAX46Y46*%
G04 Gerber Fmt 4.6, Leading zero omitted, Abs format (unit mm)*
G04 Created by KiCad (PCBNEW 9.0.0) date 2025-05-02 19:21:32*
%MOMM*%
%LPD*%
G01*
G04 APERTURE LIST*
%TA.AperFunction,ComponentPad*%
%ADD10R,1.700000X1.700000*%
%TD*%
%TA.AperFunction,ComponentPad*%
%ADD11O,1.700000X1.700000*%
%TD*%
%TA.AperFunction,ComponentPad*%
%ADD12C,1.950000*%
%TD*%
%TA.AperFunction,ComponentPad*%
%ADD13R,1.575000X1.575000*%
%TD*%
%TA.AperFunction,ComponentPad*%
%ADD14C,1.575000*%
%TD*%
%TA.AperFunction,ComponentPad*%
%ADD15C,4.066000*%
%TD*%
%TA.AperFunction,ComponentPad*%
%ADD16C,0.900000*%
%TD*%
%TA.AperFunction,ComponentPad*%
%ADD17C,8.600000*%
%TD*%
%TA.AperFunction,HeatsinkPad*%
%ADD18O,1.800000X1.150000*%
%TD*%
%TA.AperFunction,HeatsinkPad*%
%ADD19O,2.000000X1.450000*%
%TD*%
%TA.AperFunction,ComponentPad*%
%ADD20C,1.007000*%
%TD*%
%TA.AperFunction,ViaPad*%
%ADD21C,0.650000*%
%TD*%
%TA.AperFunction,ViaPad*%
%ADD22C,0.700000*%
%TD*%
%TA.AperFunction,Conductor*%
%ADD23C,0.500000*%
%TD*%
%TA.AperFunction,Conductor*%
%ADD24C,0.300000*%
%TD*%
G04 APERTURE END LIST*
D10*
%TO.P,J2,1,Pin_1*%
%TO.N,PIC_VDD*%
X140650000Y-76800000D03*
D11*
%TO.P,J2,2,Pin_2*%
%TO.N,MCLR*%
X138110000Y-76800000D03*
%TO.P,J2,3,Pin_3*%
%TO.N,GND*%
X135570000Y-76800000D03*
%TO.P,J2,4,Pin_4*%
%TO.N,ICSP_CLK*%
X133030000Y-76800000D03*
%TO.P,J2,5,Pin_5*%
%TO.N,ICSP_DAT*%
X130490000Y-76800000D03*
%TD*%
D12*
%TO.P,M2,1,Pin_1*%
%TO.N,Net-(M2-Pin_1)*%
X121850000Y-129250000D03*
%TO.P,M2,2,Pin_2*%
%TO.N,Net-(M2-Pin_2)*%
X126850000Y-129250000D03*
%TD*%
D13*
%TO.P,J3,1,1*%
%TO.N,unconnected-(J3-Pad1)*%
X159680000Y-96045000D03*
D14*
%TO.P,J3,2,2*%
%TO.N,RXD*%
X159680000Y-98815000D03*
%TO.P,J3,3,3*%
%TO.N,TXD*%
X159680000Y-101585000D03*
%TO.P,J3,4,4*%
%TO.N,unconnected-(J3-Pad4)*%
X159680000Y-104355000D03*
%TO.P,J3,5,5*%
%TO.N,GND*%
X159680000Y-107125000D03*
%TO.P,J3,6,6*%
%TO.N,unconnected-(J3-Pad6)*%
X162520000Y-97430000D03*
%TO.P,J3,7,7*%
%TO.N,unconnected-(J3-Pad7)*%
X162520000Y-100200000D03*
%TO.P,J3,8,8*%
%TO.N,unconnected-(J3-Pad8)*%
X162520000Y-102970000D03*
%TO.P,J3,9,9*%
%TO.N,unconnected-(J3-Pad9)*%
X162520000Y-105740000D03*
D15*
%TO.P,J3,S1*%
%TO.N,N/C*%
X161100000Y-114080000D03*
%TO.P,J3,S2*%
X161100000Y-89090000D03*
%TD*%
D12*
%TO.P,M1,1,Pin_1*%
%TO.N,Net-(M1-Pin_1)*%
X142850000Y-129250000D03*
%TO.P,M1,2,Pin_2*%
%TO.N,Net-(M1-Pin_2)*%
X147850000Y-129250000D03*
%TD*%
D16*
%TO.P,H2,1,1*%
%TO.N,GND*%
X101115419Y-75010419D03*
X102060000Y-72730000D03*
X102060000Y-77290838D03*
X104340419Y-71785419D03*
D17*
X104340419Y-75010419D03*
D16*
X104340419Y-78235419D03*
X106620838Y-72730000D03*
X106620838Y-77290838D03*
X107565419Y-75010419D03*
%TD*%
D12*
%TO.P,12V1,1,Pin_1*%
%TO.N,+12V*%
X103650000Y-112930000D03*
%TO.P,12V1,2,Pin_2*%
%TO.N,GND*%
X103650000Y-117930000D03*
%TD*%
D16*
%TO.P,H4,1,1*%
%TO.N,GND*%
X168055000Y-129985000D03*
X168999581Y-127704581D03*
X168999581Y-132265419D03*
X171280000Y-126760000D03*
D17*
X171280000Y-129985000D03*
D16*
X171280000Y-133210000D03*
X173560419Y-127704581D03*
X173560419Y-132265419D03*
X174505000Y-129985000D03*
%TD*%
%TO.P,H1,1,1*%
%TO.N,GND*%
X168055000Y-75010419D03*
X168999581Y-72730000D03*
X168999581Y-77290838D03*
X171280000Y-71785419D03*
D17*
X171280000Y-75010419D03*
D16*
X171280000Y-78235419D03*
X173560419Y-72730000D03*
X173560419Y-77290838D03*
X174505000Y-75010419D03*
%TD*%
D10*
%TO.P,J4,1,Pin_1*%
%TO.N,Net-(J4-Pin_1)*%
X103620000Y-91750000D03*
D11*
%TO.P,J4,2,Pin_2*%
%TO.N,Net-(J4-Pin_2)*%
X103620000Y-89210000D03*
%TO.P,J4,3,Pin_3*%
%TO.N,GND*%
X103620000Y-86670000D03*
%TO.P,J4,4,Pin_4*%
%TO.N,+5V*%
X103620000Y-84130000D03*
%TD*%
D18*
%TO.P,J1,6,Shield*%
%TO.N,unconnected-(J1-Shield-Pad6)*%
X100505000Y-98165000D03*
D19*
%TO.N,unconnected-(J1-Shield-Pad6)_2*%
X104305000Y-98315000D03*
%TO.N,unconnected-(J1-Shield-Pad6)_1*%
X104305000Y-105765000D03*
D18*
%TO.N,unconnected-(J1-Shield-Pad6)_3*%
X100505000Y-105915000D03*
%TD*%
D16*
%TO.P,H3,1,1*%
%TO.N,GND*%
X101115419Y-129985000D03*
X102060000Y-127704581D03*
X102060000Y-132265419D03*
X104340419Y-126760000D03*
D17*
X104340419Y-129985000D03*
D16*
X104340419Y-133210000D03*
X106620838Y-127704581D03*
X106620838Y-132265419D03*
X107565419Y-129985000D03*
%TD*%
D20*
%TO.P,Y1,1,1*%
%TO.N,Net-(C11-Pad1)*%
X112835000Y-93867500D03*
%TO.P,Y1,2,2*%
%TO.N,PIC_OSC1*%
X112835000Y-88987500D03*
%TD*%
D21*
%TO.N,GND*%
X135550000Y-79420000D03*
X107885000Y-86685000D03*
D22*
X115110000Y-98970000D03*
D21*
%TO.N,+5V*%
X127260000Y-102860000D03*
%TO.N,GND*%
X144060000Y-90370000D03*
X116950000Y-92640000D03*
X120840000Y-109190000D03*
X131190000Y-123750000D03*
X153345000Y-94235000D03*
X134960000Y-110530000D03*
X136250000Y-110490000D03*
X117130000Y-113570000D03*
X129980000Y-90650000D03*
X129920000Y-123880000D03*
X146190000Y-90420000D03*
X123520000Y-112460000D03*
X118415000Y-80775000D03*
X118780000Y-109450000D03*
X116695000Y-78125000D03*
X106570000Y-103350000D03*
X121775001Y-87954999D03*
X147390000Y-103010000D03*
X117280000Y-87120000D03*
X113875000Y-78115000D03*
X125720000Y-89290000D03*
%TO.N,+5V*%
X134130000Y-93500000D03*
X144130000Y-106030000D03*
%TO.N,PIC_RXD*%
X109190000Y-91020000D03*
X124885000Y-95550000D03*
%TO.N,PIC_TXD*%
X141950000Y-96390000D03*
X143790000Y-96420000D03*
X108860000Y-92100000D03*
X125210000Y-96600000D03*
%TO.N,Net-(M1-Pin_2)*%
X146080000Y-121970000D03*
X147860000Y-121990000D03*
%TO.N,RB0*%
X140530000Y-98230000D03*
X135100000Y-87720000D03*
%TO.N,RB1*%
X137700000Y-97220000D03*
X136510000Y-86890000D03*
%TO.N,RB3*%
X144880000Y-120840000D03*
X138590000Y-87130000D03*
X156520000Y-98430000D03*
X137260000Y-85800000D03*
%TO.N,EN1.2*%
X136440000Y-107460000D03*
X128680000Y-107460000D03*
%TO.N,RB2*%
X128650000Y-109190000D03*
X130890000Y-109150000D03*
%TD*%
D23*
%TO.N,+5V*%
X130760000Y-99360000D02*
X127260000Y-102860000D01*
X134130000Y-99360000D02*
X130760000Y-99360000D01*
X134130000Y-98780000D02*
X134130000Y-99360000D01*
X140800000Y-106030000D02*
X144130000Y-106030000D01*
X134130000Y-93500000D02*
X134130000Y-97520000D01*
X134130000Y-99360000D02*
X140800000Y-106030000D01*
X134130000Y-97520000D02*
X134130000Y-98780000D01*
D24*
%TO.N,PIC_RXD*%
X111910000Y-91020000D02*
X109190000Y-91020000D01*
X116440000Y-95550000D02*
X111910000Y-91020000D01*
X124885000Y-95550000D02*
X116440000Y-95550000D01*
%TO.N,PIC_TXD*%
X143790000Y-96420000D02*
X141980000Y-96420000D01*
X113260000Y-96500000D02*
X108860000Y-92100000D01*
X141980000Y-96420000D02*
X141950000Y-96390000D01*
X125210000Y-96600000D02*
X125110000Y-96500000D01*
X125110000Y-96500000D02*
X113260000Y-96500000D01*
%TO.N,Net-(M1-Pin_2)*%
X146080000Y-121970000D02*
X147840000Y-121970000D01*
X147840000Y-121970000D02*
X147860000Y-121990000D01*
%TO.N,RB0*%
X140230000Y-98230000D02*
X140190000Y-98270000D01*
X136730000Y-98270000D02*
X135100000Y-96640000D01*
X140530000Y-98230000D02*
X140230000Y-98230000D01*
X140190000Y-98270000D02*
X136730000Y-98270000D01*
X135100000Y-96640000D02*
X135100000Y-87720000D01*
%TO.N,RB1*%
X137640000Y-97160000D02*
X137700000Y-97220000D01*
X136510000Y-86890000D02*
X137610000Y-87990000D01*
X137610000Y-87990000D02*
X137640000Y-87990000D01*
X137640000Y-87990000D02*
X137640000Y-97160000D01*
%TO.N,RB3*%
X137260000Y-85800000D02*
X138590000Y-87130000D01*
X156520000Y-98780000D02*
X156520000Y-98430000D01*
X144880000Y-120840000D02*
X149330000Y-120840000D01*
X156520000Y-113570000D02*
X156520000Y-98780000D01*
X156560000Y-113610000D02*
X156520000Y-113570000D01*
X149330000Y-120840000D02*
X156560000Y-113610000D01*
%TO.N,EN1.2*%
X128680000Y-107460000D02*
X136440000Y-107460000D01*
%TO.N,RB2*%
X128650000Y-109190000D02*
X130850000Y-109190000D01*
X130850000Y-109190000D02*
X130890000Y-109150000D01*
%TD*%
M02*
