%TF.GenerationSoftware,KiCad,Pcbnew,9.0.0*%
%TF.CreationDate,2025-05-02T19:21:32+02:00*%
%TF.ProjectId,PIC_GATE_LOCK_SYSTEM,5049435f-4741-4544-955f-4c4f434b5f53,rev?*%
%TF.SameCoordinates,Original*%
%TF.FileFunction,Paste,Top*%
%TF.FilePolarity,Positive*%
%FSLAX46Y46*%
G04 Gerber Fmt 4.6, Leading zero omitted, Abs format (unit mm)*
G04 Created by KiCad (PCBNEW 9.0.0) date 2025-05-02 19:21:32*
%MOMM*%
%LPD*%
G01*
G04 APERTURE LIST*
G04 Aperture macros list*
%AMRoundRect*
0 Rectangle with rounded corners*
0 $1 Rounding radius*
0 $2 $3 $4 $5 $6 $7 $8 $9 X,Y pos of 4 corners*
0 Add a 4 corners polygon primitive as box body*
4,1,4,$2,$3,$4,$5,$6,$7,$8,$9,$2,$3,0*
0 Add four circle primitives for the rounded corners*
1,1,$1+$1,$2,$3*
1,1,$1+$1,$4,$5*
1,1,$1+$1,$6,$7*
1,1,$1+$1,$8,$9*
0 Add four rect primitives between the rounded corners*
20,1,$1+$1,$2,$3,$4,$5,0*
20,1,$1+$1,$4,$5,$6,$7,0*
20,1,$1+$1,$6,$7,$8,$9,0*
20,1,$1+$1,$8,$9,$2,$3,0*%
G04 Aperture macros list end*
%ADD10RoundRect,0.150000X-0.150000X0.875000X-0.150000X-0.875000X0.150000X-0.875000X0.150000X0.875000X0*%
%ADD11RoundRect,0.225000X0.375000X-0.225000X0.375000X0.225000X-0.375000X0.225000X-0.375000X-0.225000X0*%
%ADD12RoundRect,0.218750X-0.256250X0.218750X-0.256250X-0.218750X0.256250X-0.218750X0.256250X0.218750X0*%
%ADD13RoundRect,0.250000X0.625000X-0.375000X0.625000X0.375000X-0.625000X0.375000X-0.625000X-0.375000X0*%
%ADD14RoundRect,0.135000X-0.135000X-0.185000X0.135000X-0.185000X0.135000X0.185000X-0.135000X0.185000X0*%
%ADD15RoundRect,0.135000X0.135000X0.185000X-0.135000X0.185000X-0.135000X-0.185000X0.135000X-0.185000X0*%
%ADD16RoundRect,0.140000X0.170000X-0.140000X0.170000X0.140000X-0.170000X0.140000X-0.170000X-0.140000X0*%
%ADD17RoundRect,0.135000X-0.185000X0.135000X-0.185000X-0.135000X0.185000X-0.135000X0.185000X0.135000X0*%
%ADD18RoundRect,0.250000X0.325000X0.650000X-0.325000X0.650000X-0.325000X-0.650000X0.325000X-0.650000X0*%
%ADD19RoundRect,0.140000X-0.170000X0.140000X-0.170000X-0.140000X0.170000X-0.140000X0.170000X0.140000X0*%
%ADD20RoundRect,0.250000X-0.325000X-0.650000X0.325000X-0.650000X0.325000X0.650000X-0.325000X0.650000X0*%
%ADD21RoundRect,0.218750X-0.218750X-0.381250X0.218750X-0.381250X0.218750X0.381250X-0.218750X0.381250X0*%
%ADD22RoundRect,0.150000X-0.150000X0.587500X-0.150000X-0.587500X0.150000X-0.587500X0.150000X0.587500X0*%
%ADD23R,1.655601X0.431800*%
%ADD24RoundRect,0.225000X0.250000X-0.225000X0.250000X0.225000X-0.250000X0.225000X-0.250000X-0.225000X0*%
%ADD25RoundRect,0.375000X0.375000X-0.625000X0.375000X0.625000X-0.375000X0.625000X-0.375000X-0.625000X0*%
%ADD26RoundRect,0.500000X1.400000X-0.500000X1.400000X0.500000X-1.400000X0.500000X-1.400000X-0.500000X0*%
%ADD27RoundRect,0.225000X-0.225000X-0.250000X0.225000X-0.250000X0.225000X0.250000X-0.225000X0.250000X0*%
%ADD28RoundRect,0.075000X0.910000X0.225000X-0.910000X0.225000X-0.910000X-0.225000X0.910000X-0.225000X0*%
%ADD29RoundRect,0.225000X-0.375000X0.225000X-0.375000X-0.225000X0.375000X-0.225000X0.375000X0.225000X0*%
%ADD30RoundRect,0.218750X-0.218750X-0.256250X0.218750X-0.256250X0.218750X0.256250X-0.218750X0.256250X0*%
%ADD31RoundRect,0.135000X0.185000X-0.135000X0.185000X0.135000X-0.185000X0.135000X-0.185000X-0.135000X0*%
%ADD32R,1.300000X0.450000*%
G04 APERTURE END LIST*
D10*
%TO.C,U4*%
X140080000Y-121660000D03*
X138810000Y-121660000D03*
X137540000Y-121660000D03*
X136270000Y-121660000D03*
X135000000Y-121660000D03*
X133730000Y-121660000D03*
X132460000Y-121660000D03*
X131190000Y-121660000D03*
X129920000Y-121660000D03*
X128650000Y-121660000D03*
X128650000Y-112350000D03*
X129920000Y-112350000D03*
X131190000Y-112350000D03*
X132460000Y-112350000D03*
X133730000Y-112350000D03*
X135000000Y-112350000D03*
X136270000Y-112350000D03*
X137540000Y-112350000D03*
X138810000Y-112350000D03*
X140080000Y-112350000D03*
%TD*%
D11*
%TO.C,D1*%
X126160000Y-104580000D03*
X126160000Y-107880000D03*
%TD*%
D12*
%TO.C,RXD*%
X143050000Y-92820000D03*
X143050000Y-94395000D03*
%TD*%
D13*
%TO.C,F1*%
X111345000Y-118487500D03*
X111345000Y-115687500D03*
%TD*%
D14*
%TO.C,R4*%
X106910000Y-89850000D03*
X107930000Y-89850000D03*
%TD*%
D15*
%TO.C,R3*%
X147225000Y-91380000D03*
X146205000Y-91380000D03*
%TD*%
D16*
%TO.C,C7*%
X118415000Y-82705000D03*
X118415000Y-81745000D03*
%TD*%
D17*
%TO.C,R8*%
X118275000Y-89645000D03*
X118275000Y-90665000D03*
%TD*%
D18*
%TO.C,C4*%
X123805000Y-107505000D03*
X120855000Y-107505000D03*
%TD*%
D19*
%TO.C,C9*%
X129970000Y-88740000D03*
X129970000Y-89700000D03*
%TD*%
D14*
%TO.C,R5*%
X106990000Y-92090000D03*
X108010000Y-92090000D03*
%TD*%
%TO.C,R2*%
X143025000Y-91300000D03*
X144045000Y-91300000D03*
%TD*%
D17*
%TO.C,R1*%
X122655000Y-111435000D03*
X122655000Y-112455000D03*
%TD*%
D20*
%TO.C,C5*%
X115820000Y-107545000D03*
X118770000Y-107545000D03*
%TD*%
D21*
%TO.C,FB1*%
X114897500Y-109990000D03*
X117022500Y-109990000D03*
%TD*%
D22*
%TO.C,Q1*%
X115695000Y-113557500D03*
X113795000Y-113557500D03*
X114745000Y-115432500D03*
%TD*%
D23*
%TO.C,U3*%
X120389398Y-83405001D03*
X120389398Y-84055002D03*
X120389398Y-84705001D03*
X120389398Y-85355002D03*
X120389398Y-86005000D03*
X120389398Y-86655002D03*
X120389398Y-87305000D03*
X120389398Y-87954999D03*
X120389398Y-88605000D03*
X120389398Y-89254999D03*
X120389398Y-89905000D03*
X120389398Y-90554999D03*
X120389398Y-91205000D03*
X120389398Y-91854999D03*
X127645000Y-91855001D03*
X127645000Y-91205000D03*
X127645000Y-90555001D03*
X127645000Y-89905000D03*
X127645000Y-89255002D03*
X127645000Y-88605000D03*
X127645000Y-87955002D03*
X127645000Y-87305000D03*
X127645000Y-86655002D03*
X127645000Y-86005000D03*
X127645000Y-85355002D03*
X127645000Y-84705001D03*
X127645000Y-84055002D03*
X127645000Y-83405001D03*
%TD*%
D24*
%TO.C,C1*%
X153320000Y-97040000D03*
X153320000Y-95490000D03*
%TD*%
D25*
%TO.C,U2*%
X117295000Y-104615000D03*
X119595000Y-104615000D03*
X121895000Y-104615000D03*
D26*
X119595000Y-98315000D03*
%TD*%
D27*
%TO.C,C2*%
X147615000Y-106270000D03*
X149165000Y-106270000D03*
%TD*%
D28*
%TO.C,U1*%
X150775000Y-104280000D03*
X150775000Y-103010000D03*
X150775000Y-101740000D03*
X150775000Y-100470000D03*
X150775000Y-99200000D03*
X150775000Y-97930000D03*
X150775000Y-96660000D03*
X150775000Y-95390000D03*
X145825000Y-95390000D03*
X145825000Y-96660000D03*
X145825000Y-97930000D03*
X145825000Y-99200000D03*
X145825000Y-100470000D03*
X145825000Y-101740000D03*
X145825000Y-103010000D03*
X145825000Y-104280000D03*
%TD*%
D12*
%TO.C,D6*%
X116695000Y-79340000D03*
X116695000Y-80915000D03*
%TD*%
D19*
%TO.C,C11*%
X116945000Y-90845000D03*
X116945000Y-91805000D03*
%TD*%
D29*
%TO.C,D7*%
X133420000Y-88650000D03*
X133420000Y-91950000D03*
%TD*%
D30*
%TO.C,D2*%
X122777500Y-109715000D03*
X124352500Y-109715000D03*
%TD*%
D31*
%TO.C,R7*%
X116695000Y-83430000D03*
X116695000Y-82410000D03*
%TD*%
D24*
%TO.C,C3*%
X153295000Y-100360000D03*
X153295000Y-98810000D03*
%TD*%
D31*
%TO.C,R6*%
X113805000Y-83335000D03*
X113805000Y-82315000D03*
%TD*%
D12*
%TO.C,TXD*%
X148625000Y-91580000D03*
X148625000Y-93155000D03*
%TD*%
D32*
%TO.C,J1*%
X104355000Y-100740000D03*
X104355000Y-101390000D03*
X104355000Y-102040000D03*
X104355000Y-102690000D03*
X104355000Y-103340000D03*
%TD*%
D16*
%TO.C,C8*%
X118215000Y-88085000D03*
X118215000Y-87125000D03*
%TD*%
D19*
%TO.C,C10*%
X131220000Y-88790000D03*
X131220000Y-89750000D03*
%TD*%
D12*
%TO.C,D5*%
X113875000Y-79357500D03*
X113875000Y-80932500D03*
%TD*%
D24*
%TO.C,C6*%
X153335000Y-103715000D03*
X153335000Y-102165000D03*
%TD*%
M02*
