%TF.GenerationSoftware,KiCad,Pcbnew,9.0.0*%
%TF.CreationDate,2025-05-02T19:21:31+02:00*%
%TF.ProjectId,PIC_GATE_LOCK_SYSTEM,5049435f-4741-4544-955f-4c4f434b5f53,rev?*%
%TF.SameCoordinates,Original*%
%TF.FileFunction,Copper,L1,Top*%
%TF.FilePolarity,Positive*%
%FSLAX46Y46*%
G04 Gerber Fmt 4.6, Leading zero omitted, Abs format (unit mm)*
G04 Created by KiCad (PCBNEW 9.0.0) date 2025-05-02 19:21:31*
%MOMM*%
%LPD*%
G01*
G04 APERTURE LIST*
G04 Aperture macros list*
%AMRoundRect*
0 Rectangle with rounded corners*
0 $1 Rounding radius*
0 $2 $3 $4 $5 $6 $7 $8 $9 X,Y pos of 4 corners*
0 Add a 4 corners polygon primitive as box body*
4,1,4,$2,$3,$4,$5,$6,$7,$8,$9,$2,$3,0*
0 Add four circle primitives for the rounded corners*
1,1,$1+$1,$2,$3*
1,1,$1+$1,$4,$5*
1,1,$1+$1,$6,$7*
1,1,$1+$1,$8,$9*
0 Add four rect primitives between the rounded corners*
20,1,$1+$1,$2,$3,$4,$5,0*
20,1,$1+$1,$4,$5,$6,$7,0*
20,1,$1+$1,$6,$7,$8,$9,0*
20,1,$1+$1,$8,$9,$2,$3,0*%
G04 Aperture macros list end*
%TA.AperFunction,SMDPad,CuDef*%
%ADD10RoundRect,0.150000X-0.150000X0.875000X-0.150000X-0.875000X0.150000X-0.875000X0.150000X0.875000X0*%
%TD*%
%TA.AperFunction,SMDPad,CuDef*%
%ADD11RoundRect,0.225000X0.375000X-0.225000X0.375000X0.225000X-0.375000X0.225000X-0.375000X-0.225000X0*%
%TD*%
%TA.AperFunction,ComponentPad*%
%ADD12R,1.700000X1.700000*%
%TD*%
%TA.AperFunction,ComponentPad*%
%ADD13O,1.700000X1.700000*%
%TD*%
%TA.AperFunction,SMDPad,CuDef*%
%ADD14RoundRect,0.218750X-0.256250X0.218750X-0.256250X-0.218750X0.256250X-0.218750X0.256250X0.218750X0*%
%TD*%
%TA.AperFunction,SMDPad,CuDef*%
%ADD15RoundRect,0.250000X0.625000X-0.375000X0.625000X0.375000X-0.625000X0.375000X-0.625000X-0.375000X0*%
%TD*%
%TA.AperFunction,SMDPad,CuDef*%
%ADD16RoundRect,0.135000X-0.135000X-0.185000X0.135000X-0.185000X0.135000X0.185000X-0.135000X0.185000X0*%
%TD*%
%TA.AperFunction,ComponentPad*%
%ADD17C,1.950000*%
%TD*%
%TA.AperFunction,SMDPad,CuDef*%
%ADD18RoundRect,0.135000X0.135000X0.185000X-0.135000X0.185000X-0.135000X-0.185000X0.135000X-0.185000X0*%
%TD*%
%TA.AperFunction,SMDPad,CuDef*%
%ADD19RoundRect,0.140000X0.170000X-0.140000X0.170000X0.140000X-0.170000X0.140000X-0.170000X-0.140000X0*%
%TD*%
%TA.AperFunction,ComponentPad*%
%ADD20R,1.575000X1.575000*%
%TD*%
%TA.AperFunction,ComponentPad*%
%ADD21C,1.575000*%
%TD*%
%TA.AperFunction,ComponentPad*%
%ADD22C,4.066000*%
%TD*%
%TA.AperFunction,ComponentPad*%
%ADD23C,0.900000*%
%TD*%
%TA.AperFunction,ComponentPad*%
%ADD24C,8.600000*%
%TD*%
%TA.AperFunction,SMDPad,CuDef*%
%ADD25RoundRect,0.135000X-0.185000X0.135000X-0.185000X-0.135000X0.185000X-0.135000X0.185000X0.135000X0*%
%TD*%
%TA.AperFunction,SMDPad,CuDef*%
%ADD26RoundRect,0.250000X0.325000X0.650000X-0.325000X0.650000X-0.325000X-0.650000X0.325000X-0.650000X0*%
%TD*%
%TA.AperFunction,SMDPad,CuDef*%
%ADD27RoundRect,0.140000X-0.170000X0.140000X-0.170000X-0.140000X0.170000X-0.140000X0.170000X0.140000X0*%
%TD*%
%TA.AperFunction,SMDPad,CuDef*%
%ADD28RoundRect,0.250000X-0.325000X-0.650000X0.325000X-0.650000X0.325000X0.650000X-0.325000X0.650000X0*%
%TD*%
%TA.AperFunction,SMDPad,CuDef*%
%ADD29RoundRect,0.218750X-0.218750X-0.381250X0.218750X-0.381250X0.218750X0.381250X-0.218750X0.381250X0*%
%TD*%
%TA.AperFunction,SMDPad,CuDef*%
%ADD30RoundRect,0.150000X-0.150000X0.587500X-0.150000X-0.587500X0.150000X-0.587500X0.150000X0.587500X0*%
%TD*%
%TA.AperFunction,SMDPad,CuDef*%
%ADD31R,1.655601X0.431800*%
%TD*%
%TA.AperFunction,SMDPad,CuDef*%
%ADD32C,2.500000*%
%TD*%
%TA.AperFunction,SMDPad,CuDef*%
%ADD33RoundRect,0.225000X0.250000X-0.225000X0.250000X0.225000X-0.250000X0.225000X-0.250000X-0.225000X0*%
%TD*%
%TA.AperFunction,SMDPad,CuDef*%
%ADD34RoundRect,0.375000X0.375000X-0.625000X0.375000X0.625000X-0.375000X0.625000X-0.375000X-0.625000X0*%
%TD*%
%TA.AperFunction,SMDPad,CuDef*%
%ADD35RoundRect,0.500000X1.400000X-0.500000X1.400000X0.500000X-1.400000X0.500000X-1.400000X-0.500000X0*%
%TD*%
%TA.AperFunction,SMDPad,CuDef*%
%ADD36RoundRect,0.225000X-0.225000X-0.250000X0.225000X-0.250000X0.225000X0.250000X-0.225000X0.250000X0*%
%TD*%
%TA.AperFunction,SMDPad,CuDef*%
%ADD37RoundRect,0.075000X0.910000X0.225000X-0.910000X0.225000X-0.910000X-0.225000X0.910000X-0.225000X0*%
%TD*%
%TA.AperFunction,SMDPad,CuDef*%
%ADD38RoundRect,0.225000X-0.375000X0.225000X-0.375000X-0.225000X0.375000X-0.225000X0.375000X0.225000X0*%
%TD*%
%TA.AperFunction,SMDPad,CuDef*%
%ADD39RoundRect,0.218750X-0.218750X-0.256250X0.218750X-0.256250X0.218750X0.256250X-0.218750X0.256250X0*%
%TD*%
%TA.AperFunction,SMDPad,CuDef*%
%ADD40RoundRect,0.135000X0.185000X-0.135000X0.185000X0.135000X-0.185000X0.135000X-0.185000X-0.135000X0*%
%TD*%
%TA.AperFunction,SMDPad,CuDef*%
%ADD41R,1.300000X0.450000*%
%TD*%
%TA.AperFunction,HeatsinkPad*%
%ADD42O,1.800000X1.150000*%
%TD*%
%TA.AperFunction,HeatsinkPad*%
%ADD43O,2.000000X1.450000*%
%TD*%
%TA.AperFunction,ComponentPad*%
%ADD44C,1.007000*%
%TD*%
%TA.AperFunction,ViaPad*%
%ADD45C,0.650000*%
%TD*%
%TA.AperFunction,ViaPad*%
%ADD46C,0.700000*%
%TD*%
%TA.AperFunction,Conductor*%
%ADD47C,0.300000*%
%TD*%
%TA.AperFunction,Conductor*%
%ADD48C,0.500000*%
%TD*%
%TA.AperFunction,Conductor*%
%ADD49C,1.000000*%
%TD*%
G04 APERTURE END LIST*
D10*
%TO.P,U4,20*%
%TO.N,N/C*%
X140080000Y-121660000D03*
%TO.P,U4,19*%
X138810000Y-121660000D03*
%TO.P,U4,18*%
X137540000Y-121660000D03*
%TO.P,U4,17*%
X136270000Y-121660000D03*
%TO.P,U4,16,VCC1*%
%TO.N,+12V*%
X135000000Y-121660000D03*
%TO.P,U4,15,4A*%
%TO.N,RB3*%
X133730000Y-121660000D03*
%TO.P,U4,14,4Y*%
%TO.N,Net-(M2-Pin_2)*%
X132460000Y-121660000D03*
%TO.P,U4,13,GND*%
%TO.N,GND*%
X131190000Y-121660000D03*
%TO.P,U4,12,GND*%
X129920000Y-121660000D03*
%TO.P,U4,11,3Y*%
%TO.N,Net-(M2-Pin_1)*%
X128650000Y-121660000D03*
%TO.P,U4,10,3A*%
%TO.N,RB2*%
X128650000Y-112350000D03*
%TO.P,U4,9,EN3\u002C4*%
%TO.N,EN3.4*%
X129920000Y-112350000D03*
%TO.P,U4,8,VCC2*%
%TO.N,+12V*%
X131190000Y-112350000D03*
%TO.P,U4,7,2A*%
%TO.N,RB1*%
X132460000Y-112350000D03*
%TO.P,U4,6,2Y*%
%TO.N,Net-(M1-Pin_2)*%
X133730000Y-112350000D03*
%TO.P,U4,5,GND*%
%TO.N,GND*%
X135000000Y-112350000D03*
%TO.P,U4,4,GND*%
X136270000Y-112350000D03*
%TO.P,U4,3,1Y*%
%TO.N,Net-(M1-Pin_1)*%
X137540000Y-112350000D03*
%TO.P,U4,2,1A*%
%TO.N,RB0*%
X138810000Y-112350000D03*
%TO.P,U4,1,EN1\u002C2*%
%TO.N,EN1.2*%
X140080000Y-112350000D03*
%TD*%
D11*
%TO.P,D1,2,A*%
%TO.N,+5V*%
X126160000Y-104580000D03*
%TO.P,D1,1,K*%
%TO.N,Net-(D1-K)*%
X126160000Y-107880000D03*
%TD*%
D12*
%TO.P,J2,1,Pin_1*%
%TO.N,PIC_VDD*%
X140650000Y-76800000D03*
D13*
%TO.P,J2,2,Pin_2*%
%TO.N,MCLR*%
X138110000Y-76800000D03*
%TO.P,J2,3,Pin_3*%
%TO.N,GND*%
X135570000Y-76800000D03*
%TO.P,J2,4,Pin_4*%
%TO.N,ICSP_CLK*%
X133030000Y-76800000D03*
%TO.P,J2,5,Pin_5*%
%TO.N,ICSP_DAT*%
X130490000Y-76800000D03*
%TD*%
D14*
%TO.P,RXD,1,K*%
%TO.N,Net-(D3-K)*%
X143050000Y-92820000D03*
%TO.P,RXD,2,A*%
%TO.N,PIC_RXD*%
X143050000Y-94395000D03*
%TD*%
D15*
%TO.P,F1,1*%
%TO.N,+12V*%
X111345000Y-118487500D03*
%TO.P,F1,2*%
%TO.N,Net-(Q1-D)*%
X111345000Y-115687500D03*
%TD*%
D16*
%TO.P,R4,1*%
%TO.N,Net-(J4-Pin_2)*%
X106910000Y-89850000D03*
%TO.P,R4,2*%
%TO.N,PIC_RXD*%
X107930000Y-89850000D03*
%TD*%
D17*
%TO.P,M2,1,Pin_1*%
%TO.N,Net-(M2-Pin_1)*%
X121850000Y-129250000D03*
%TO.P,M2,2,Pin_2*%
%TO.N,Net-(M2-Pin_2)*%
X126850000Y-129250000D03*
%TD*%
D18*
%TO.P,R3,1*%
%TO.N,Net-(D4-K)*%
X147225000Y-91380000D03*
%TO.P,R3,2*%
%TO.N,GND*%
X146205000Y-91380000D03*
%TD*%
D19*
%TO.P,C7,1*%
%TO.N,MCLR*%
X118415000Y-82705000D03*
%TO.P,C7,2*%
%TO.N,GND*%
X118415000Y-81745000D03*
%TD*%
D20*
%TO.P,J3,1,1*%
%TO.N,unconnected-(J3-Pad1)*%
X159680000Y-96045000D03*
D21*
%TO.P,J3,2,2*%
%TO.N,RXD*%
X159680000Y-98815000D03*
%TO.P,J3,3,3*%
%TO.N,TXD*%
X159680000Y-101585000D03*
%TO.P,J3,4,4*%
%TO.N,unconnected-(J3-Pad4)*%
X159680000Y-104355000D03*
%TO.P,J3,5,5*%
%TO.N,GND*%
X159680000Y-107125000D03*
%TO.P,J3,6,6*%
%TO.N,unconnected-(J3-Pad6)*%
X162520000Y-97430000D03*
%TO.P,J3,7,7*%
%TO.N,unconnected-(J3-Pad7)*%
X162520000Y-100200000D03*
%TO.P,J3,8,8*%
%TO.N,unconnected-(J3-Pad8)*%
X162520000Y-102970000D03*
%TO.P,J3,9,9*%
%TO.N,unconnected-(J3-Pad9)*%
X162520000Y-105740000D03*
D22*
%TO.P,J3,S1*%
%TO.N,N/C*%
X161100000Y-114080000D03*
%TO.P,J3,S2*%
X161100000Y-89090000D03*
%TD*%
D17*
%TO.P,M1,1,Pin_1*%
%TO.N,Net-(M1-Pin_1)*%
X142850000Y-129250000D03*
%TO.P,M1,2,Pin_2*%
%TO.N,Net-(M1-Pin_2)*%
X147850000Y-129250000D03*
%TD*%
D23*
%TO.P,H2,1,1*%
%TO.N,GND*%
X101115419Y-75010419D03*
X102060000Y-72730000D03*
X102060000Y-77290838D03*
X104340419Y-71785419D03*
D24*
X104340419Y-75010419D03*
D23*
X104340419Y-78235419D03*
X106620838Y-72730000D03*
X106620838Y-77290838D03*
X107565419Y-75010419D03*
%TD*%
D25*
%TO.P,R8,1*%
%TO.N,PIC_OSC2*%
X118275000Y-89645000D03*
%TO.P,R8,2*%
%TO.N,Net-(C11-Pad1)*%
X118275000Y-90665000D03*
%TD*%
D26*
%TO.P,C4,1*%
%TO.N,Net-(D1-K)*%
X123805000Y-107505000D03*
%TO.P,C4,2*%
%TO.N,GND*%
X120855000Y-107505000D03*
%TD*%
D27*
%TO.P,C9,1*%
%TO.N,PIC_VDD*%
X129970000Y-88740000D03*
%TO.P,C9,2*%
%TO.N,GND*%
X129970000Y-89700000D03*
%TD*%
D16*
%TO.P,R5,1*%
%TO.N,Net-(J4-Pin_1)*%
X106990000Y-92090000D03*
%TO.P,R5,2*%
%TO.N,PIC_TXD*%
X108010000Y-92090000D03*
%TD*%
%TO.P,R2,1*%
%TO.N,Net-(D3-K)*%
X143025000Y-91300000D03*
%TO.P,R2,2*%
%TO.N,GND*%
X144045000Y-91300000D03*
%TD*%
D25*
%TO.P,R1,1*%
%TO.N,Net-(D2-K)*%
X122655000Y-111435000D03*
%TO.P,R1,2*%
%TO.N,GND*%
X122655000Y-112455000D03*
%TD*%
D28*
%TO.P,C5,1*%
%TO.N,Net-(U2-IN)*%
X115820000Y-107545000D03*
%TO.P,C5,2*%
%TO.N,GND*%
X118770000Y-107545000D03*
%TD*%
D29*
%TO.P,FB1,1*%
%TO.N,Net-(Q1-S)*%
X114897500Y-109990000D03*
%TO.P,FB1,2*%
%TO.N,Net-(U2-IN)*%
X117022500Y-109990000D03*
%TD*%
D30*
%TO.P,Q1,1,G*%
%TO.N,GND*%
X115695000Y-113557500D03*
%TO.P,Q1,2,S*%
%TO.N,Net-(Q1-S)*%
X113795000Y-113557500D03*
%TO.P,Q1,3,D*%
%TO.N,Net-(Q1-D)*%
X114745000Y-115432500D03*
%TD*%
D31*
%TO.P,U3,1,RE3/~{MCLR}/Vpp*%
%TO.N,MCLR*%
X120389398Y-83405001D03*
%TO.P,U3,2,ULPWU/C12IN0-/AN0/RA0*%
%TO.N,unconnected-(U3-ULPWU{slash}C12IN0-{slash}AN0{slash}RA0-Pad2)*%
X120389398Y-84055002D03*
%TO.P,U3,3,C12IN1-/AN1/RA1*%
%TO.N,unconnected-(U3-C12IN1-{slash}AN1{slash}RA1-Pad3)*%
X120389398Y-84705001D03*
%TO.P,U3,4,CVref/C2IN1+/Vref-/AN2/RA2*%
%TO.N,GREEN*%
X120389398Y-85355002D03*
%TO.P,U3,5,C1IN+/Vref+/AN3/RA3*%
%TO.N,RED*%
X120389398Y-86005000D03*
%TO.P,U3,6,T0CKI/C1OUT/RA4*%
%TO.N,unconnected-(U3-T0CKI{slash}C1OUT{slash}RA4-Pad6)*%
X120389398Y-86655002D03*
%TO.P,U3,7,~{SS}/C2OUT/AN4/RA5*%
%TO.N,unconnected-(U3-~{SS}{slash}C2OUT{slash}AN4{slash}RA5-Pad7)*%
X120389398Y-87305000D03*
%TO.P,U3,8,VSS*%
%TO.N,GND*%
X120389398Y-87954999D03*
%TO.P,U3,9,CLKIN/OSC1/RA7*%
%TO.N,PIC_OSC1*%
X120389398Y-88605000D03*
%TO.P,U3,10,CLKOUT/OSC2/RA6*%
%TO.N,PIC_OSC2*%
X120389398Y-89254999D03*
%TO.P,U3,11,RC0/T1OSO/T1CK1*%
%TO.N,unconnected-(U3-RC0{slash}T1OSO{slash}T1CK1-Pad11)*%
X120389398Y-89905000D03*
%TO.P,U3,12,RC1/T1OSI/CCP2*%
%TO.N,EN3.4*%
X120389398Y-90554999D03*
%TO.P,U3,13,RC2/P1A/CCP1*%
%TO.N,EN1.2*%
X120389398Y-91205000D03*
%TO.P,U3,14,RC3/SCK/SCL*%
%TO.N,unconnected-(U3-RC3{slash}SCK{slash}SCL-Pad14)*%
X120389398Y-91854999D03*
%TO.P,U3,15,RC4/SDI/SDA*%
%TO.N,unconnected-(U3-RC4{slash}SDI{slash}SDA-Pad15)*%
X127645000Y-91855001D03*
%TO.P,U3,16,RC5/SDO*%
%TO.N,unconnected-(U3-RC5{slash}SDO-Pad16)*%
X127645000Y-91205000D03*
%TO.P,U3,17,RC6/TX/CK*%
%TO.N,PIC_TXD*%
X127645000Y-90555001D03*
%TO.P,U3,18,RC7/RX/DT*%
%TO.N,PIC_RXD*%
X127645000Y-89905000D03*
%TO.P,U3,19,VSS*%
%TO.N,GND*%
X127645000Y-89255002D03*
%TO.P,U3,20,VDD*%
%TO.N,PIC_VDD*%
X127645000Y-88605000D03*
%TO.P,U3,21,INT/AN12/RB0*%
%TO.N,RB0*%
X127645000Y-87955002D03*
%TO.P,U3,22,P1C/AN10/RB1*%
%TO.N,RB1*%
X127645000Y-87305000D03*
%TO.P,U3,23,P1B/AN8/RB2*%
%TO.N,RB2*%
X127645000Y-86655002D03*
%TO.P,U3,24,PGM/C12IN2-/AN8/RB3*%
%TO.N,RB3*%
X127645000Y-86005000D03*
%TO.P,U3,25,P1D/AN11/RB4*%
%TO.N,unconnected-(U3-P1D{slash}AN11{slash}RB4-Pad25)*%
X127645000Y-85355002D03*
%TO.P,U3,26,~{T1G}/AN13/RB5*%
%TO.N,unconnected-(U3-~{T1G}{slash}AN13{slash}RB5-Pad26)*%
X127645000Y-84705001D03*
%TO.P,U3,27,ICSPCLK/RB6*%
%TO.N,ICSP_CLK*%
X127645000Y-84055002D03*
%TO.P,U3,28,ICSPDAT/RB7*%
%TO.N,ICSP_DAT*%
X127645000Y-83405001D03*
%TD*%
D32*
%TO.P,TP2,1,1*%
%TO.N,+5V*%
X110120000Y-102990000D03*
%TD*%
D33*
%TO.P,C1,1*%
%TO.N,Net-(U1-VS-)*%
X153320000Y-97040000D03*
%TO.P,C1,2*%
%TO.N,GND*%
X153320000Y-95490000D03*
%TD*%
D17*
%TO.P,12V1,1,Pin_1*%
%TO.N,+12V*%
X103650000Y-112930000D03*
%TO.P,12V1,2,Pin_2*%
%TO.N,GND*%
X103650000Y-117930000D03*
%TD*%
D34*
%TO.P,U2,1,IN*%
%TO.N,Net-(U2-IN)*%
X117295000Y-104615000D03*
%TO.P,U2,2,GND*%
%TO.N,GND*%
X119595000Y-104615000D03*
%TO.P,U2,3,OUT*%
%TO.N,Net-(D1-K)*%
X121895000Y-104615000D03*
D35*
%TO.P,U2,4*%
%TO.N,GND*%
X119595000Y-98315000D03*
%TD*%
D36*
%TO.P,C2,1*%
%TO.N,+5V*%
X147615000Y-106270000D03*
%TO.P,C2,2*%
%TO.N,Net-(U1-VS+)*%
X149165000Y-106270000D03*
%TD*%
D37*
%TO.P,U1,1,C1+*%
%TO.N,Net-(U1-C1+)*%
X150775000Y-104280000D03*
%TO.P,U1,2,VS+*%
%TO.N,Net-(U1-VS+)*%
X150775000Y-103010000D03*
%TO.P,U1,3,C1-*%
%TO.N,Net-(U1-C1-)*%
X150775000Y-101740000D03*
%TO.P,U1,4,C2+*%
%TO.N,Net-(U1-C2+)*%
X150775000Y-100470000D03*
%TO.P,U1,5,C2-*%
%TO.N,Net-(U1-C2-)*%
X150775000Y-99200000D03*
%TO.P,U1,6,VS-*%
%TO.N,Net-(U1-VS-)*%
X150775000Y-97930000D03*
%TO.P,U1,7,T2OUT*%
%TO.N,unconnected-(U1-T2OUT-Pad7)*%
X150775000Y-96660000D03*
%TO.P,U1,8,R2IN*%
%TO.N,unconnected-(U1-R2IN-Pad8)*%
X150775000Y-95390000D03*
%TO.P,U1,9,R2OUT*%
%TO.N,unconnected-(U1-R2OUT-Pad9)*%
X145825000Y-95390000D03*
%TO.P,U1,10,T2IN*%
%TO.N,unconnected-(U1-T2IN-Pad10)*%
X145825000Y-96660000D03*
%TO.P,U1,11,T1IN*%
%TO.N,PIC_TXD*%
X145825000Y-97930000D03*
%TO.P,U1,12,R1OUT*%
%TO.N,PIC_RXD*%
X145825000Y-99200000D03*
%TO.P,U1,13,R1IN*%
%TO.N,TXD*%
X145825000Y-100470000D03*
%TO.P,U1,14,T1OUT*%
%TO.N,RXD*%
X145825000Y-101740000D03*
%TO.P,U1,15,GND*%
%TO.N,GND*%
X145825000Y-103010000D03*
%TO.P,U1,16,VCC*%
%TO.N,+5V*%
X145825000Y-104280000D03*
%TD*%
D14*
%TO.P,D6,1,K*%
%TO.N,GND*%
X116695000Y-79340000D03*
%TO.P,D6,2,A*%
%TO.N,Net-(D6-A)*%
X116695000Y-80915000D03*
%TD*%
D27*
%TO.P,C11,1*%
%TO.N,Net-(C11-Pad1)*%
X116945000Y-90845000D03*
%TO.P,C11,2*%
%TO.N,GND*%
X116945000Y-91805000D03*
%TD*%
D38*
%TO.P,D7,1,K*%
%TO.N,PIC_VDD*%
X133420000Y-88650000D03*
%TO.P,D7,2,A*%
%TO.N,+5V*%
X133420000Y-91950000D03*
%TD*%
D39*
%TO.P,D2,1,K*%
%TO.N,Net-(D2-K)*%
X122777500Y-109715000D03*
%TO.P,D2,2,A*%
%TO.N,Net-(D1-K)*%
X124352500Y-109715000D03*
%TD*%
D40*
%TO.P,R7,1*%
%TO.N,GREEN*%
X116695000Y-83430000D03*
%TO.P,R7,2*%
%TO.N,Net-(D6-A)*%
X116695000Y-82410000D03*
%TD*%
D23*
%TO.P,H4,1,1*%
%TO.N,GND*%
X168055000Y-129985000D03*
X168999581Y-127704581D03*
X168999581Y-132265419D03*
X171280000Y-126760000D03*
D24*
X171280000Y-129985000D03*
D23*
X171280000Y-133210000D03*
X173560419Y-127704581D03*
X173560419Y-132265419D03*
X174505000Y-129985000D03*
%TD*%
D33*
%TO.P,C3,1*%
%TO.N,Net-(U1-C2+)*%
X153295000Y-100360000D03*
%TO.P,C3,2*%
%TO.N,Net-(U1-C2-)*%
X153295000Y-98810000D03*
%TD*%
D23*
%TO.P,H1,1,1*%
%TO.N,GND*%
X168055000Y-75010419D03*
X168999581Y-72730000D03*
X168999581Y-77290838D03*
X171280000Y-71785419D03*
D24*
X171280000Y-75010419D03*
D23*
X171280000Y-78235419D03*
X173560419Y-72730000D03*
X173560419Y-77290838D03*
X174505000Y-75010419D03*
%TD*%
D40*
%TO.P,R6,1*%
%TO.N,RED*%
X113805000Y-83335000D03*
%TO.P,R6,2*%
%TO.N,Net-(D5-A)*%
X113805000Y-82315000D03*
%TD*%
D12*
%TO.P,J4,1,Pin_1*%
%TO.N,Net-(J4-Pin_1)*%
X103620000Y-91750000D03*
D13*
%TO.P,J4,2,Pin_2*%
%TO.N,Net-(J4-Pin_2)*%
X103620000Y-89210000D03*
%TO.P,J4,3,Pin_3*%
%TO.N,GND*%
X103620000Y-86670000D03*
%TO.P,J4,4,Pin_4*%
%TO.N,+5V*%
X103620000Y-84130000D03*
%TD*%
D14*
%TO.P,TXD,1,K*%
%TO.N,Net-(D4-K)*%
X148625000Y-91580000D03*
%TO.P,TXD,2,A*%
%TO.N,PIC_TXD*%
X148625000Y-93155000D03*
%TD*%
D32*
%TO.P,TP1,1,1*%
%TO.N,+12V*%
X116315000Y-121667500D03*
%TD*%
D41*
%TO.P,J1,1,VBUS*%
%TO.N,+5V*%
X104355000Y-100740000D03*
%TO.P,J1,2,D-*%
%TO.N,unconnected-(J1-D--Pad2)*%
X104355000Y-101390000D03*
%TO.P,J1,3,D+*%
%TO.N,unconnected-(J1-D+-Pad3)*%
X104355000Y-102040000D03*
%TO.P,J1,4,ID*%
%TO.N,unconnected-(J1-ID-Pad4)*%
X104355000Y-102690000D03*
%TO.P,J1,5,GND*%
%TO.N,GND*%
X104355000Y-103340000D03*
D42*
%TO.P,J1,6,Shield*%
%TO.N,unconnected-(J1-Shield-Pad6)*%
X100505000Y-98165000D03*
D43*
%TO.N,unconnected-(J1-Shield-Pad6)_2*%
X104305000Y-98315000D03*
%TO.N,unconnected-(J1-Shield-Pad6)_1*%
X104305000Y-105765000D03*
D42*
%TO.N,unconnected-(J1-Shield-Pad6)_3*%
X100505000Y-105915000D03*
%TD*%
D19*
%TO.P,C8,1*%
%TO.N,PIC_OSC1*%
X118215000Y-88085000D03*
%TO.P,C8,2*%
%TO.N,GND*%
X118215000Y-87125000D03*
%TD*%
D27*
%TO.P,C10,1*%
%TO.N,PIC_VDD*%
X131220000Y-88790000D03*
%TO.P,C10,2*%
%TO.N,GND*%
X131220000Y-89750000D03*
%TD*%
D14*
%TO.P,D5,1,K*%
%TO.N,GND*%
X113875000Y-79357500D03*
%TO.P,D5,2,A*%
%TO.N,Net-(D5-A)*%
X113875000Y-80932500D03*
%TD*%
D23*
%TO.P,H3,1,1*%
%TO.N,GND*%
X101115419Y-129985000D03*
X102060000Y-127704581D03*
X102060000Y-132265419D03*
X104340419Y-126760000D03*
D24*
X104340419Y-129985000D03*
D23*
X104340419Y-133210000D03*
X106620838Y-127704581D03*
X106620838Y-132265419D03*
X107565419Y-129985000D03*
%TD*%
D44*
%TO.P,Y1,1,1*%
%TO.N,Net-(C11-Pad1)*%
X112835000Y-93867500D03*
%TO.P,Y1,2,2*%
%TO.N,PIC_OSC1*%
X112835000Y-88987500D03*
%TD*%
D33*
%TO.P,C6,1*%
%TO.N,Net-(U1-C1+)*%
X153335000Y-103715000D03*
%TO.P,C6,2*%
%TO.N,Net-(U1-C1-)*%
X153335000Y-102165000D03*
%TD*%
D45*
%TO.N,GND*%
X135550000Y-79420000D03*
X107885000Y-86685000D03*
D46*
X115110000Y-98970000D03*
D45*
%TO.N,+5V*%
X127260000Y-102860000D03*
%TO.N,GND*%
X144060000Y-90370000D03*
X116950000Y-92640000D03*
X120840000Y-109190000D03*
X131190000Y-123750000D03*
X153345000Y-94235000D03*
X134960000Y-110530000D03*
X136250000Y-110490000D03*
X117130000Y-113570000D03*
X129980000Y-90650000D03*
X129920000Y-123880000D03*
X146190000Y-90420000D03*
X123520000Y-112460000D03*
X118415000Y-80775000D03*
X118780000Y-109450000D03*
X116695000Y-78125000D03*
X106570000Y-103350000D03*
X121775001Y-87954999D03*
X147390000Y-103010000D03*
X117280000Y-87120000D03*
X113875000Y-78115000D03*
X125720000Y-89290000D03*
%TO.N,+5V*%
X134130000Y-93500000D03*
X144130000Y-106030000D03*
%TO.N,PIC_RXD*%
X109190000Y-91020000D03*
X124885000Y-95550000D03*
%TO.N,PIC_TXD*%
X141950000Y-96390000D03*
X143790000Y-96420000D03*
X108860000Y-92100000D03*
X125210000Y-96600000D03*
%TO.N,Net-(M1-Pin_2)*%
X146080000Y-121970000D03*
X147860000Y-121990000D03*
%TO.N,RB0*%
X140530000Y-98230000D03*
X135100000Y-87720000D03*
%TO.N,RB1*%
X137700000Y-97220000D03*
X136510000Y-86890000D03*
%TO.N,RB3*%
X144880000Y-120840000D03*
X138590000Y-87130000D03*
X156520000Y-98430000D03*
X137260000Y-85800000D03*
%TO.N,EN1.2*%
X136440000Y-107460000D03*
X128680000Y-107460000D03*
%TO.N,RB2*%
X128650000Y-109190000D03*
X130890000Y-109150000D03*
%TD*%
D47*
%TO.N,GND*%
X104355000Y-103340000D02*
X106560000Y-103340000D01*
X106560000Y-103340000D02*
X106570000Y-103350000D01*
%TO.N,+5V*%
X104355000Y-100740000D02*
X104365000Y-100730000D01*
X104365000Y-100730000D02*
X110120000Y-100730000D01*
D48*
X110120000Y-100730000D02*
X110120000Y-102990000D01*
%TO.N,GND*%
X135570000Y-79400000D02*
X135550000Y-79420000D01*
X135570000Y-76800000D02*
X135570000Y-79400000D01*
X107885000Y-86685000D02*
X107940000Y-86740000D01*
X107870000Y-86670000D02*
X107885000Y-86685000D01*
X103620000Y-86670000D02*
X107870000Y-86670000D01*
%TO.N,+5V*%
X126510000Y-104580000D02*
X127260000Y-103830000D01*
X127260000Y-103830000D02*
X127260000Y-102860000D01*
X126160000Y-104580000D02*
X126510000Y-104580000D01*
X124340000Y-102240000D02*
X113730000Y-102240000D01*
X113730000Y-102240000D02*
X110120000Y-98630000D01*
X126160000Y-104060000D02*
X124340000Y-102240000D01*
X126160000Y-104580000D02*
X126160000Y-104060000D01*
%TO.N,GND*%
X119595000Y-105655000D02*
X119595000Y-104615000D01*
X118770000Y-106480000D02*
X119595000Y-105655000D01*
X118770000Y-107545000D02*
X118770000Y-106480000D01*
%TO.N,Net-(D1-K)*%
X121895000Y-105705000D02*
X121895000Y-104615000D01*
X123695000Y-107505000D02*
X121895000Y-105705000D01*
X123805000Y-107505000D02*
X123695000Y-107505000D01*
X126160000Y-108780000D02*
X126160000Y-107880000D01*
X125225000Y-109715000D02*
X126160000Y-108780000D01*
X124352500Y-109715000D02*
X125225000Y-109715000D01*
X123805000Y-108795000D02*
X123805000Y-107505000D01*
X124352500Y-109342500D02*
X123805000Y-108795000D01*
X124352500Y-109715000D02*
X124352500Y-109342500D01*
%TO.N,Net-(D2-K)*%
X121845000Y-111435000D02*
X122655000Y-111435000D01*
X121420000Y-111010000D02*
X121845000Y-111435000D01*
X121420000Y-110220000D02*
X121420000Y-111010000D01*
X121925000Y-109715000D02*
X121420000Y-110220000D01*
X122777500Y-109715000D02*
X121925000Y-109715000D01*
%TO.N,Net-(Q1-S)*%
X113795000Y-113557500D02*
X113795000Y-111092500D01*
X113795000Y-111092500D02*
X114897500Y-109990000D01*
%TO.N,Net-(U2-IN)*%
X115820000Y-108787500D02*
X117022500Y-109990000D01*
X115820000Y-107545000D02*
X115820000Y-108787500D01*
D47*
%TO.N,Net-(U1-VS-)*%
X150775000Y-97930000D02*
X151880000Y-97930000D01*
X152735000Y-97075000D02*
X153345000Y-97075000D01*
X151880000Y-97930000D02*
X152735000Y-97075000D01*
D48*
%TO.N,GND*%
X113875000Y-79357500D02*
X113875000Y-78115000D01*
D47*
X121775001Y-87954999D02*
X121800000Y-87930000D01*
D48*
X116695000Y-78125000D02*
X116650000Y-78080000D01*
X118415000Y-81745000D02*
X118415000Y-80775000D01*
D47*
X153345000Y-94235000D02*
X153340000Y-94230000D01*
X144045000Y-91300000D02*
X144045000Y-90385000D01*
D48*
X119595000Y-104615000D02*
X119595000Y-104395000D01*
D47*
X117285000Y-87125000D02*
X117280000Y-87120000D01*
D48*
X123515000Y-112455000D02*
X123520000Y-112460000D01*
D47*
X135000000Y-112350000D02*
X136270000Y-112350000D01*
X131170000Y-89700000D02*
X131220000Y-89750000D01*
X136270000Y-110510000D02*
X136250000Y-110490000D01*
D48*
X117117500Y-113557500D02*
X117130000Y-113570000D01*
D47*
X146205000Y-91380000D02*
X146205000Y-90435000D01*
X147390000Y-103010000D02*
X147410000Y-102990000D01*
X125754998Y-89255002D02*
X125720000Y-89290000D01*
D48*
X116677500Y-79357500D02*
X116695000Y-79340000D01*
D47*
X153345000Y-95525000D02*
X153345000Y-94235000D01*
D48*
X120815000Y-107545000D02*
X120855000Y-107505000D01*
X116695000Y-79340000D02*
X116695000Y-78125000D01*
D47*
X116945000Y-92635000D02*
X116950000Y-92640000D01*
D48*
X115695000Y-113557500D02*
X117117500Y-113557500D01*
X113875000Y-79357500D02*
X116677500Y-79357500D01*
D47*
X118215000Y-87125000D02*
X117285000Y-87125000D01*
X129970000Y-90640000D02*
X129980000Y-90650000D01*
D48*
X120855000Y-109175000D02*
X120840000Y-109190000D01*
D47*
X136270000Y-112350000D02*
X136270000Y-110510000D01*
D48*
X131190000Y-121660000D02*
X131190000Y-123750000D01*
D47*
X135000000Y-110570000D02*
X134960000Y-110530000D01*
D48*
X113875000Y-78115000D02*
X113860000Y-78100000D01*
D47*
X144045000Y-90385000D02*
X144060000Y-90370000D01*
X127645000Y-89255002D02*
X125754998Y-89255002D01*
X145825000Y-103010000D02*
X147390000Y-103010000D01*
D48*
X129920000Y-123880000D02*
X129920000Y-121660000D01*
X120855000Y-107505000D02*
X120855000Y-109175000D01*
X122655000Y-112455000D02*
X123515000Y-112455000D01*
X118770000Y-107545000D02*
X120815000Y-107545000D01*
X118780000Y-109050000D02*
X118770000Y-109040000D01*
D47*
X129970000Y-89700000D02*
X129970000Y-90640000D01*
X120389398Y-87954999D02*
X121775001Y-87954999D01*
X129970000Y-89700000D02*
X131170000Y-89700000D01*
D48*
X118415000Y-80775000D02*
X118390000Y-80750000D01*
D47*
X135000000Y-112350000D02*
X135000000Y-110570000D01*
X116945000Y-91805000D02*
X116945000Y-92635000D01*
D48*
X118780000Y-109450000D02*
X118780000Y-109050000D01*
D47*
X146205000Y-90435000D02*
X146190000Y-90420000D01*
D48*
X118770000Y-109040000D02*
X118770000Y-107545000D01*
X129920000Y-121660000D02*
X131190000Y-121660000D01*
%TO.N,+5V*%
X101870000Y-95800000D02*
X107290000Y-95800000D01*
X133420000Y-92790000D02*
X134130000Y-93500000D01*
X101150000Y-84810000D02*
X101150000Y-95080000D01*
D47*
X110120000Y-101480000D02*
X110120000Y-102990000D01*
D48*
X101150000Y-95080000D02*
X101870000Y-95800000D01*
X103620000Y-84130000D02*
X101830000Y-84130000D01*
X107290000Y-95800000D02*
X110120000Y-98630000D01*
X144490000Y-104280000D02*
X144130000Y-104640000D01*
D47*
X147615000Y-106270000D02*
X147615000Y-105025000D01*
X110170000Y-101230000D02*
X110120000Y-101280000D01*
D48*
X133420000Y-91950000D02*
X133420000Y-92790000D01*
D47*
X147615000Y-105025000D02*
X146840000Y-104250000D01*
D48*
X101830000Y-84130000D02*
X101150000Y-84810000D01*
X110120000Y-98630000D02*
X110120000Y-100730000D01*
D47*
X110120000Y-101280000D02*
X110120000Y-101480000D01*
D48*
X145825000Y-104280000D02*
X144490000Y-104280000D01*
X144130000Y-104640000D02*
X144130000Y-106030000D01*
D47*
%TO.N,Net-(U1-VS+)*%
X150775000Y-103010000D02*
X149400000Y-103010000D01*
X149110000Y-103300000D02*
X149110000Y-105750000D01*
X149165000Y-105825000D02*
X149165000Y-106270000D01*
X149110000Y-105750000D02*
X149100000Y-105760000D01*
X149400000Y-103010000D02*
X149110000Y-103300000D01*
X149100000Y-105760000D02*
X149165000Y-105825000D01*
%TO.N,Net-(U1-C2+)*%
X150775000Y-100470000D02*
X153185000Y-100470000D01*
X153185000Y-100470000D02*
X153295000Y-100360000D01*
%TO.N,Net-(U1-C2-)*%
X151980000Y-99200000D02*
X152370000Y-98810000D01*
X150775000Y-99200000D02*
X151980000Y-99200000D01*
X152370000Y-98810000D02*
X153295000Y-98810000D01*
D48*
%TO.N,Net-(U2-IN)*%
X115820000Y-106090000D02*
X117295000Y-104615000D01*
X115820000Y-107545000D02*
X115820000Y-106090000D01*
D47*
%TO.N,Net-(U1-C1+)*%
X150775000Y-104280000D02*
X151770000Y-104280000D01*
X151770000Y-104280000D02*
X152335000Y-103715000D01*
X152335000Y-103715000D02*
X153335000Y-103715000D01*
%TO.N,Net-(U1-C1-)*%
X151850000Y-101740000D02*
X152275000Y-102165000D01*
X150775000Y-101740000D02*
X151850000Y-101740000D01*
X152275000Y-102165000D02*
X153335000Y-102165000D01*
%TO.N,MCLR*%
X119115001Y-83405001D02*
X118415000Y-82705000D01*
X120389398Y-79110602D02*
X126680000Y-72820000D01*
X138130000Y-74940000D02*
X138110000Y-74960000D01*
X138130000Y-73770000D02*
X138130000Y-74940000D01*
X126680000Y-72820000D02*
X137180000Y-72820000D01*
X138110000Y-74960000D02*
X138110000Y-76800000D01*
X137180000Y-72820000D02*
X138130000Y-73770000D01*
X120389398Y-83405001D02*
X119115001Y-83405001D01*
X120389398Y-83405001D02*
X120389398Y-79110602D01*
%TO.N,PIC_VDD*%
X140650000Y-84060000D02*
X140650000Y-76800000D01*
X133730000Y-88700000D02*
X133740000Y-88690000D01*
X140670000Y-84080000D02*
X140650000Y-84060000D01*
X133420000Y-88650000D02*
X136100000Y-88650000D01*
X129670000Y-88700000D02*
X130810000Y-88700000D01*
X136100000Y-88650000D02*
X140670000Y-84080000D01*
X130810000Y-88700000D02*
X133730000Y-88700000D01*
X129575000Y-88605000D02*
X129670000Y-88700000D01*
X127645000Y-88605000D02*
X129575000Y-88605000D01*
%TO.N,PIC_OSC1*%
X118215000Y-88085000D02*
X113737500Y-88085000D01*
X113737500Y-88085000D02*
X112835000Y-88987500D01*
X120389398Y-88605000D02*
X119365000Y-88605000D01*
X118845000Y-88085000D02*
X118215000Y-88085000D01*
X119365000Y-88605000D02*
X118845000Y-88085000D01*
%TO.N,Net-(C11-Pad1)*%
X116945000Y-90845000D02*
X114685000Y-90845000D01*
X112835000Y-92695000D02*
X112835000Y-93867500D01*
X117125000Y-90665000D02*
X116945000Y-90845000D01*
X114685000Y-90845000D02*
X112835000Y-92695000D01*
X118275000Y-90665000D02*
X117125000Y-90665000D01*
D48*
%TO.N,Net-(D2-K)*%
X122655000Y-109837500D02*
X122777500Y-109715000D01*
D47*
%TO.N,Net-(D3-K)*%
X143025000Y-92795000D02*
X143050000Y-92820000D01*
X143025000Y-91300000D02*
X143025000Y-92795000D01*
%TO.N,PIC_RXD*%
X129565000Y-94395000D02*
X143050000Y-94395000D01*
X143050000Y-97630000D02*
X144620000Y-99200000D01*
X126245000Y-89905000D02*
X124885000Y-91265000D01*
X124885000Y-91265000D02*
X124885000Y-95550000D01*
X126245000Y-89905000D02*
X127645000Y-89905000D01*
X144620000Y-99200000D02*
X145825000Y-99200000D01*
X129230000Y-94060000D02*
X129565000Y-94395000D01*
X129230000Y-90362200D02*
X129230000Y-94060000D01*
X109100000Y-90430000D02*
X109190000Y-90520000D01*
X107910000Y-89880000D02*
X108550000Y-89880000D01*
X108550000Y-89880000D02*
X109100000Y-90430000D01*
X128772800Y-89905000D02*
X129230000Y-90362200D01*
X109190000Y-90520000D02*
X109190000Y-91020000D01*
X127645000Y-89905000D02*
X128772800Y-89905000D01*
X143050000Y-94395000D02*
X143050000Y-97630000D01*
%TO.N,PIC_TXD*%
X126390000Y-94410000D02*
X128370000Y-96390000D01*
X126390000Y-95420000D02*
X126390000Y-94120000D01*
X145825000Y-97930000D02*
X144680000Y-97930000D01*
X108850000Y-92090000D02*
X108860000Y-92100000D01*
X143790000Y-97040000D02*
X143790000Y-96420000D01*
X126517200Y-90555001D02*
X126390000Y-90682201D01*
X126390000Y-94120000D02*
X126390000Y-94410000D01*
X128370000Y-96390000D02*
X141950000Y-96390000D01*
X108010000Y-92090000D02*
X108850000Y-92090000D01*
X148625000Y-96455000D02*
X148625000Y-93155000D01*
X126390000Y-90682201D02*
X126390000Y-94120000D01*
X127645000Y-90555001D02*
X126517200Y-90555001D01*
X144680000Y-97930000D02*
X144050000Y-97300000D01*
X147150000Y-97930000D02*
X148625000Y-96455000D01*
X144050000Y-97300000D02*
X143790000Y-97040000D01*
X125210000Y-96600000D02*
X126390000Y-95420000D01*
X145825000Y-97930000D02*
X147150000Y-97930000D01*
%TO.N,Net-(D4-K)*%
X147225000Y-91380000D02*
X148425000Y-91380000D01*
X148425000Y-91380000D02*
X148625000Y-91580000D01*
%TO.N,Net-(D5-A)*%
X113875000Y-80932500D02*
X113875000Y-82245000D01*
X113875000Y-82245000D02*
X113805000Y-82315000D01*
%TO.N,Net-(D6-A)*%
X116695000Y-80915000D02*
X116695000Y-82410000D01*
D48*
%TO.N,Net-(Q1-D)*%
X111345000Y-115687500D02*
X114490000Y-115687500D01*
X114490000Y-115687500D02*
X114745000Y-115432500D01*
D49*
%TO.N,+12V*%
X116315000Y-120425000D02*
X116315000Y-121667500D01*
X114587500Y-118487500D02*
X116420000Y-120320000D01*
X118960000Y-119340000D02*
X118801250Y-119181250D01*
X131190000Y-112350000D02*
X131190000Y-113374999D01*
X129524999Y-115040000D02*
X122942500Y-115040000D01*
X111345000Y-118487500D02*
X114587500Y-118487500D01*
X135000000Y-120635001D02*
X133704999Y-119340000D01*
X133704999Y-119340000D02*
X118960000Y-119340000D01*
X116420000Y-120320000D02*
X116315000Y-120425000D01*
X118801250Y-119181250D02*
X116315000Y-121667500D01*
X131190000Y-113374999D02*
X129524999Y-115040000D01*
X106050000Y-113510000D02*
X105470000Y-112930000D01*
X111345000Y-118487500D02*
X108927500Y-118487500D01*
X122942500Y-115040000D02*
X118801250Y-119181250D01*
X106050000Y-115610000D02*
X106050000Y-113510000D01*
X135000000Y-121660000D02*
X135000000Y-120635001D01*
X108927500Y-118487500D02*
X106050000Y-115610000D01*
X105470000Y-112930000D02*
X103650000Y-112930000D01*
D47*
%TO.N,RXD*%
X143960000Y-107580000D02*
X143420000Y-107040000D01*
X155150000Y-100820000D02*
X155150000Y-106030000D01*
X143420000Y-107040000D02*
X143420000Y-102480000D01*
X157085000Y-98885000D02*
X155150000Y-100820000D01*
X143420000Y-102480000D02*
X144160000Y-101740000D01*
X159710000Y-98885000D02*
X157085000Y-98885000D01*
X153600000Y-107580000D02*
X143960000Y-107580000D01*
X155150000Y-106030000D02*
X153600000Y-107580000D01*
X144160000Y-101740000D02*
X145825000Y-101740000D01*
%TO.N,TXD*%
X158075000Y-101655000D02*
X159710000Y-101655000D01*
X144270000Y-100470000D02*
X142740000Y-102000000D01*
X157020000Y-102560000D02*
X157830000Y-101750000D01*
X157020000Y-105670000D02*
X157020000Y-102560000D01*
X142740000Y-102000000D02*
X142740000Y-107580000D01*
X157830000Y-101750000D02*
X157830000Y-101720000D01*
X157830000Y-101720000D02*
X158010000Y-101720000D01*
X143560000Y-108400000D02*
X154290000Y-108400000D01*
X154290000Y-108400000D02*
X157020000Y-105670000D01*
X145825000Y-100470000D02*
X144270000Y-100470000D01*
X142740000Y-107580000D02*
X143560000Y-108400000D01*
X158010000Y-101720000D02*
X158075000Y-101655000D01*
%TO.N,ICSP_CLK*%
X127645000Y-84055002D02*
X129134998Y-84055002D01*
X133030000Y-80160000D02*
X133030000Y-76800000D01*
X129134998Y-84055002D02*
X133030000Y-80160000D01*
%TO.N,ICSP_DAT*%
X127645000Y-82735000D02*
X130490000Y-79890000D01*
X127645000Y-83405001D02*
X127645000Y-82735000D01*
X130490000Y-79890000D02*
X130490000Y-76800000D01*
%TO.N,Net-(J4-Pin_2)*%
X106890000Y-89880000D02*
X105240000Y-89880000D01*
X105240000Y-89880000D02*
X104650000Y-89290000D01*
X104650000Y-89290000D02*
X102810000Y-89290000D01*
%TO.N,Net-(J4-Pin_1)*%
X103070000Y-92090000D02*
X102810000Y-91830000D01*
X106990000Y-92090000D02*
X103070000Y-92090000D01*
%TO.N,Net-(M1-Pin_1)*%
X143540000Y-124950000D02*
X142860000Y-125630000D01*
X142860000Y-125630000D02*
X142860000Y-129510000D01*
X137540000Y-113374999D02*
X139245001Y-115080000D01*
X137540000Y-112350000D02*
X137540000Y-113374999D01*
X145120000Y-115080000D02*
X146940000Y-116900000D01*
X146940000Y-116900000D02*
X146940000Y-124370000D01*
X139245001Y-115080000D02*
X145120000Y-115080000D01*
X146940000Y-124370000D02*
X146360000Y-124950000D01*
X146360000Y-124950000D02*
X143540000Y-124950000D01*
%TO.N,Net-(M1-Pin_2)*%
X147860000Y-129510000D02*
X147860000Y-121990000D01*
X133730000Y-112350000D02*
X133730000Y-113374999D01*
X144340000Y-115890000D02*
X146080000Y-117630000D01*
X136245001Y-115890000D02*
X144340000Y-115890000D01*
X146080000Y-117630000D02*
X146080000Y-121970000D01*
X133730000Y-113374999D02*
X136245001Y-115890000D01*
%TO.N,Net-(M2-Pin_2)*%
X132480000Y-126650000D02*
X132460000Y-126630000D01*
X126830000Y-129380000D02*
X129750000Y-129380000D01*
X129750000Y-129380000D02*
X132480000Y-126650000D01*
X132460000Y-126630000D02*
X132460000Y-121660000D01*
%TO.N,Net-(M2-Pin_1)*%
X127710000Y-123970000D02*
X123030000Y-123970000D01*
X121830000Y-125170000D02*
X121830000Y-129380000D01*
X128650000Y-121660000D02*
X128650000Y-123030000D01*
X123030000Y-123970000D02*
X121830000Y-125170000D01*
X128650000Y-123030000D02*
X127710000Y-123970000D01*
%TO.N,GREEN*%
X119375002Y-85355002D02*
X117450000Y-83430000D01*
X120389398Y-85355002D02*
X119375002Y-85355002D01*
X117450000Y-83430000D02*
X116695000Y-83430000D01*
%TO.N,RED*%
X120389398Y-86005000D02*
X117865000Y-86005000D01*
X115195000Y-83335000D02*
X113805000Y-83335000D01*
X117865000Y-86005000D02*
X115195000Y-83335000D01*
%TO.N,PIC_OSC2*%
X118945000Y-89645000D02*
X118275000Y-89645000D01*
X120389398Y-89254999D02*
X119335001Y-89254999D01*
X119335001Y-89254999D02*
X118945000Y-89645000D01*
%TO.N,RB0*%
X134470000Y-87090000D02*
X135100000Y-87720000D01*
X142080000Y-98920000D02*
X141390000Y-98230000D01*
X127645000Y-87955002D02*
X131294998Y-87955002D01*
X141390000Y-98230000D02*
X140530000Y-98230000D01*
X142080000Y-113340000D02*
X142080000Y-98920000D01*
X138810000Y-112350000D02*
X138810000Y-113200000D01*
X139720000Y-114110000D02*
X141310000Y-114110000D01*
X138810000Y-113200000D02*
X139720000Y-114110000D01*
X141310000Y-114110000D02*
X142080000Y-113340000D01*
X131294998Y-87955002D02*
X132160000Y-87090000D01*
X138810000Y-112350000D02*
X138620000Y-112160000D01*
X132160000Y-87090000D02*
X134470000Y-87090000D01*
%TO.N,RB1*%
X131940000Y-86220000D02*
X135160000Y-86220000D01*
X131665000Y-86495000D02*
X131940000Y-86220000D01*
X135160000Y-86220000D02*
X135840000Y-86220000D01*
X137700000Y-103160000D02*
X132460000Y-108400000D01*
X135840000Y-86220000D02*
X136510000Y-86890000D01*
X137700000Y-97220000D02*
X137700000Y-103160000D01*
X127645000Y-87305000D02*
X130855000Y-87305000D01*
X132460000Y-108400000D02*
X132460000Y-112350000D01*
X131665000Y-86495000D02*
X131760000Y-86400000D01*
X130855000Y-87305000D02*
X131665000Y-86495000D01*
X132460000Y-112350000D02*
X132460000Y-111370000D01*
%TO.N,RB3*%
X141340000Y-123790000D02*
X134835001Y-123790000D01*
X136860000Y-85400000D02*
X137260000Y-85800000D01*
X133730000Y-122684999D02*
X133730000Y-121660000D01*
X131010000Y-85400000D02*
X136860000Y-85400000D01*
X144880000Y-120840000D02*
X144290000Y-120840000D01*
X134835001Y-123790000D02*
X133730000Y-122684999D01*
X156520000Y-98430000D02*
X156520000Y-92870000D01*
X156520000Y-92870000D02*
X150760000Y-87110000D01*
X127645000Y-86005000D02*
X130405000Y-86005000D01*
X150760000Y-87110000D02*
X138610000Y-87110000D01*
X138610000Y-87110000D02*
X138590000Y-87130000D01*
X144290000Y-120840000D02*
X141340000Y-123790000D01*
X130405000Y-86005000D02*
X131010000Y-85400000D01*
%TO.N,EN1.2*%
X122540000Y-98590000D02*
X122540000Y-99010000D01*
X120389398Y-91205000D02*
X121517198Y-91205000D01*
X128020000Y-101010000D02*
X128130000Y-101120000D01*
X140080000Y-112350000D02*
X140080000Y-111100000D01*
X128130000Y-106910000D02*
X128680000Y-107460000D01*
X124540000Y-101010000D02*
X128020000Y-101010000D01*
X140080000Y-111100000D02*
X136440000Y-107460000D01*
X128130000Y-101120000D02*
X128130000Y-106910000D01*
X122540000Y-99010000D02*
X124540000Y-101010000D01*
X122540000Y-92227802D02*
X122540000Y-98590000D01*
X121517198Y-91205000D02*
X122540000Y-92227802D01*
%TO.N,EN3.4*%
X123630000Y-98760000D02*
X125270000Y-100400000D01*
X125270000Y-100400000D02*
X129090000Y-100400000D01*
X129090000Y-100400000D02*
X129920000Y-101230000D01*
X123084999Y-90554999D02*
X123630000Y-91100000D01*
X129920000Y-101230000D02*
X129920000Y-112350000D01*
X123630000Y-91100000D02*
X123630000Y-98760000D01*
X120389398Y-90554999D02*
X123084999Y-90554999D01*
%TO.N,RB2*%
X127645000Y-86655002D02*
X126517200Y-86655002D01*
X129020000Y-99400000D02*
X130890000Y-101270000D01*
X125010000Y-99400000D02*
X129020000Y-99400000D01*
X124210000Y-98600000D02*
X125010000Y-99400000D01*
X130890000Y-109150000D02*
X130870000Y-109170000D01*
X128650000Y-112350000D02*
X128650000Y-109190000D01*
X126517200Y-86655002D02*
X124210000Y-88962202D01*
X130890000Y-101270000D02*
X130890000Y-109150000D01*
X124210000Y-88962202D02*
X124210000Y-98600000D01*
D48*
%TO.N,GND*%
X115765000Y-98315000D02*
X115110000Y-98970000D01*
X119595000Y-98315000D02*
X115765000Y-98315000D01*
%TD*%
M02*
